  0
SECTION
  2
HEADER
  9
$ACADVER
  1
AC1009
  9
$INSBASE
 10
0
 20
0
 30
0
  9
$EXTMIN
 10
0
 20
0
  9
$EXTMAX
 10
420
 20
297
  9
$LIMMIN
 10
0
 20
0
  9
$LIMMAX
 10
420
 20
297
  9
$LTSCALE
 40
1
  0
ENDSEC
  0
SECTION
  2
TABLES
  0
TABLE
  2
LTYPE
 70
     9
  0
LTYPE
  2
CONTINUOUS
 70
    64
  3
実線
 72
    65
 73
     0
 40
0.0
  0
LTYPE
  2
DASHED1
 70
    64
  3
--  --  --  --  --  --  --  --  
 72
    65
 73
     2
 40
2.5
 49
1.25
 49
-1.25
  0
LTYPE
  2
DASHED2
 70
    64
  3
----    ----    ----    ----    
 72
    65
 73
     2
 40
5.0
 49
2.5
 49
-2.5
  0
LTYPE
  2
DASHED3
 70
    64
  3
------  ------  ------  ------  
 72
    65
 73
     2
 40
5.0
 49
3.75
 49
-1.25
  0
LTYPE
  2
CENTER1
 70
    64
  3
----- - ----- - ----- - ----- - 
 72
    65
 73
     4
 40
10.0
 49
6.25
 49
-1.25
 49
1.25
 49
-1.25
  0
LTYPE
  2
CENTER2
 70
    64
  3
----------  --  ----------  --  
 72
    65
 73
     4
 40
20.0
 49
12.5
 49
-2.5
 49
2.5
 49
-2.5
  0
LTYPE
  2
PHANTOM1
 70
    64
  3
--- - - --- - - --- - - --- - - 
 72
    65
 73
     6
 40
10.0
 49
3.25
 49
-1.25
 49
1.25
 49
-1.25
 49
1.25
 49
-1.25
  0
LTYPE
  2
PHANTOM2
 70
    64
  3
--------  -  -  --------  -  -  
 72
    65
 73
     6
 40
20.0
 49
10.0
 49
-2.5
 49
1.25
 49
-2.5
 49
1.25
 49
-2.5
  0
LTYPE
  2
DOT
 70
    64
  3
-   -   -   -   -   -   -   -   
 72
    65
 73
     2
 40
2.5
 49
0.625
 49
-1.875
  0
LTYPE
  2
DUMMY
 70
    64
  3
ダミー
 72
    65
 73
     0
 40
0.0
  0
LTYPE
  2
RAND1
 70
    64
  3
ランダム線1
 72
    65
 73
     4
 40
10.0
 49
1.0
 49
-2.0
 49
3.0
 49
-4.0
  0
LTYPE
  2
RAND2
 70
    64
  3
ランダム線2
 72
    65
 73
     4
 40
14.0
 49
2.0
 49
-3.0
 49
4.0
 49
-5.0
  0
LTYPE
  2
RAND3
 70
    64
  3
ランダム線3
 72
    65
 73
     4
 40
18.0
 49
3.0
 49
-4.0
 49
5.0
 49
-6.0
  0
LTYPE
  2
RAND4
 70
    64
  3
ランダム線4
 72
    65
 73
     4
 40
22.0
 49
4.0
 49
-5.0
 49
6.0
 49
-7.0
  0
LTYPE
  2
RAND5
 70
    64
  3
ランダム線5
 72
    65
 73
     4
 40
26.0
 49
5.0
 49
-6.0
 49
7.0
 49
-8.0
  0
LTYPE
  2
LONG1
 70
    64
  3
----------  --  ----------  --  
 72
    65
 73
     4
 40
40.0
 49
32.5
 49
-2.5
 49
2.5
 49
-2.5
  0
LTYPE
  2
LONG2
 70
    64
  3
--------  -  -  --------  -  -  
 72
    65
 73
     6
 40
40.0
 49
30.0
 49
-2.5
 49
1.25
 49
-2.5
 49
1.25
 49
-2.5
  0
LTYPE
  2
LONG3
 70
    64
  3
+++++++++++++++..+++++++++++++++
 72
    65
 73
     2
 40
40.0
 49
37.5
 49
-2.5
  0
LTYPE
  2
LONG4
 70
    64
  3
+++++++++++++++..+++++++++++++++
 72
    65
 73
     2
 40
80.0
 49
75.0
 49
-5.0
  0
LTYPE
  2
LONG5
 70
    64
  3
----------  --  ----------  --  
 72
    65
 73
     4
 40
60.0
 49
37.5
 49
-7.5
 49
7.5
 49
-7.5
  0
LTYPE
  2
dashed
 70
   64
  3
-------   -------------   ------
 72
   65
 73
    2
 40
7.5
 49
6
 49
-1.5
  0
LTYPE
  2
dashed_spaced
 70
   64
  3
----        --------        ----
 72
   65
 73
    2
 40
12
 49
6
 49
-6
  0
LTYPE
  2
long_dashed_dotted
 70
   64
  3
------------- --- --------------
 72
   65
 73
    4
 40
15.25
 49
12
 49
-1.5
 49
0.25
 49
-1.5
  0
LTYPE
  2
long_dashed_double-dotted
 70
   64
  3
----------- --- --- ------------
 72
   65
 73
    6
 40
17
 49
12
 49
-1.5
 49
0.25
 49
-1.5
 49
0.25
 49
-1.5
  0
LTYPE
  2
long_dashed_triplicate-dotted
 70
   64
  3
--------- --- --- --- ----------
 72
   65
 73
    8
 40
18.75
 49
12
 49
-1.5
 49
0.25
 49
-1.5
 49
0.25
 49
-1.5
 49
0.25
 49
-1.5
  0
LTYPE
  2
dotted
 70
   64
  3
   -       -       -       -    
 72
   65
 73
    2
 40
1.75
 49
0.25
 49
-1.5
  0
LTYPE
  2
chain
 70
   64
  3
-------------- -- --------------
 72
   65
 73
    4
 40
18.5
 49
12
 49
-1.5
 49
3.5
 49
-1.5
  0
LTYPE
  2
chain_double_dash
 70
   64
  3
------------ -- -- -------------
 72
   65
 73
    6
 40
23.5
 49
12
 49
-1.5
 49
3.5
 49
-1.5
 49
3.5
 49
-1.5
  0
LTYPE
  2
dashed_dotted
 70
   64
  3
-----------     -     ----------
 72
   65
 73
    4
 40
9.25
 49
6
 49
-1.5
 49
0.25
 49
-1.5
  0
LTYPE
  2
double-dashed_dotted
 70
   64
  3
------   -----------   -   -----
 72
   65
 73
    6
 40
16.75
 49
6
 49
-1.5
 49
6
 49
-1.5
 49
0.25
 49
-1.5
  0
LTYPE
  2
dashed_double-dotted
 70
   64
  3
---------    -    -    ---------
 72
   65
 73
    6
 40
11
 49
6
 49
-1.5
 49
0.25
 49
-1.5
 49
0.25
 49
-1.5
  0
LTYPE
  2
double-dashed_double-dotted
 70
   64
  3
-----   ---------   -   -   ----
 72
   65
 73
    8
 40
18.5
 49
6
 49
-1.5
 49
6
 49
-1.5
 49
0.25
 49
-1.5
 49
0.25
 49
-1.5
  0
LTYPE
  2
dashed_triplicate-dotted
 70
   64
  3
-------    -    -    -    ------
 72
   65
 73
    8
 40
12.75
 49
6
 49
-1.5
 49
0.25
 49
-1.5
 49
0.25
 49
-1.5
 49
0.25
 49
-1.5
  0
LTYPE
  2
double-dashed_triplicate-dotted
 70
   64
  3
-----  ---------  -  -  -  -----
 72
   65
 73
   10
 40
20.25
 49
6
 49
-1.5
 49
6
 49
-1.5
 49
0.25
 49
-1.5
 49
0.25
 49
-1.5
 49
0.25
 49
-1.5
  0
LTYPE
  2
undefined
 70
   64
  3
--------------------------------
 72
   65
 73
    0
 40
0
  0
LTYPE
  2
_
 70
   64
  3
                                
 72
   65
 73
    0
 40
0
  0
LTYPE
  2
__18
 70
   64
  3
                                
 72
   65
 73
    0
 40
0
  0
LTYPE
  2
__19
 70
   64
  3
                                
 72
   65
 73
    0
 40
0
  0
LTYPE
  2
__20
 70
   64
  3
                                
 72
   65
 73
    0
 40
0
  0
LTYPE
  2
__21
 70
   64
  3
                                
 72
   65
 73
    0
 40
0
  0
LTYPE
  2
__22
 70
   64
  3
                                
 72
   65
 73
    0
 40
0
  0
LTYPE
  2
__23
 70
   64
  3
                                
 72
   65
 73
    0
 40
0
  0
LTYPE
  2
__24
 70
   64
  3
                                
 72
   65
 73
    0
 40
0
  0
LTYPE
  2
__25
 70
   64
  3
                                
 72
   65
 73
    0
 40
0
  0
LTYPE
  2
__26
 70
   64
  3
                                
 72
   65
 73
    0
 40
0
  0
LTYPE
  2
__27
 70
   64
  3
                                
 72
   65
 73
    0
 40
0
  0
LTYPE
  2
__28
 70
   64
  3
                                
 72
   65
 73
    0
 40
0
  0
LTYPE
  2
__29
 70
   64
  3
                                
 72
   65
 73
    0
 40
0
  0
LTYPE
  2
__30
 70
   64
  3
                                
 72
   65
 73
    0
 40
0
  0
LTYPE
  2
__31
 70
   64
  3
                                
 72
   65
 73
    0
 40
0
  0
LTYPE
  2
__32
 70
   64
  3
                                
 72
   65
 73
    0
 40
0
  0
ENDTAB
  0
TABLE
  2
STYLE
  5
3
100
AcDbSymbolTable
 70
     1
  0
STYLE
  5
10
100
AcDbSymbolTableRecord
100
AcDbTextStyleTableRecord
  2
STANDARD
 70
     0
 40
0.0
 41
1.0
 50
0.0
 71
     0
 42
0.2
  3
txt
  4
bigfont.shx
  0
STYLE
  5
26
100
AcDbSymbolTableRecord
100
AcDbTextStyleTableRecord
  2
TATEGAKI
 70
    68
 40
0.0
 41
1.0
 50
0.0
 71
     0
 42
1.0
  3
txt
  4
bigfont.shx
  0
ENDTAB
  0
TABLE
  2
LAYER
 70
    2
  0
LAYER
  2
_0-0_
 70
   64
 62
    7
  6
CONTINUOUS
  0
LAYER
  2
ADD_LINE
 70
   64
 62
    7
  6
CONTINUOUS
  0
ENDTAB
  0
ENDSEC
  0
SECTION
  2
BLOCKS
  0
ENDSEC
  0
SECTION
  2
ENTITIES
  0
LINE
  8
_0-0_
  6
CONTINUOUS
 62
    7
 10
75.902171171101998
 20
268.28312726364436
 11
49.902171171101998
 21
268.28312726364436
  0
LINE
  8
_0-0_
  6
CONTINUOUS
 62
    7
 10
224.90216292310794
 20
128.2831272636443
 11
309.90216292310794
 21
128.2831272636443
  0
LINE
  8
_0-0_
  6
CONTINUOUS
 62
    7
 10
309.90216292310794
 20
96.283127263644303
 11
309.90216292310794
 21
276.28312726364436
  0
LINE
  8
_0-0_
  6
CONTINUOUS
 62
    7
 10
49.902171171101998
 20
276.28312726364436
 11
49.902171171101998
 21
96.283127263644303
  0
LINE
  8
_0-0_
  6
CONTINUOUS
 62
    7
 10
49.902171171101998
 20
96.283127263644303
 11
309.90216292310794
 21
96.283127263644303
  0
LINE
  8
_0-0_
  6
CONTINUOUS
 62
    7
 10
309.90216292310794
 20
276.28312726364436
 11
49.902171171101998
 21
276.28312726364436
  0
LINE
  8
_0-0_
  6
CONTINUOUS
 62
    7
 10
283.90216292310794
 20
96.283127263644303
 11
283.90216292310794
 21
104.2831272636443
  0
LINE
  8
_0-0_
  6
CONTINUOUS
 62
    7
 10
279.90216292310794
 20
109.2831272636443
 11
309.90216292310794
 21
109.2831272636443
  0
LINE
  8
_0-0_
  6
CONTINUOUS
 62
    7
 10
279.90216292310794
 20
112.2831272636443
 11
309.90216292310794
 21
112.2831272636443
  0
LINE
  8
_0-0_
  6
CONTINUOUS
 62
    7
 10
279.90216292310794
 20
120.2831272636443
 11
309.90216292310794
 21
120.2831272636443
  0
LINE
  8
_0-0_
  6
CONTINUOUS
 62
    7
 10
279.90216292310794
 20
117.2831272636443
 11
309.90216292310794
 21
117.2831272636443
  0
LINE
  8
_0-0_
  6
CONTINUOUS
 62
    7
 10
279.90216292310794
 20
125.2831272636443
 11
309.90216292310794
 21
125.2831272636443
  0
LINE
  8
_0-0_
  6
CONTINUOUS
 62
    7
 10
289.90216292310794
 20
104.2831272636443
 11
289.90216292310794
 21
112.2831272636443
  0
LINE
  8
_0-0_
  6
CONTINUOUS
 62
    7
 10
299.90216292310794
 20
104.2831272636443
 11
299.90216292310794
 21
112.2831272636443
  0
LINE
  8
_0-0_
  6
CONTINUOUS
 62
    7
 10
224.90216292310794
 20
104.2831272636443
 11
309.90216292310794
 21
104.2831272636443
  0
LINE
  8
_0-0_
  6
CONTINUOUS
 62
    7
 10
229.90216292310794
 20
104.2831272636443
 11
229.90216292310794
 21
128.2831272636443
  0
LINE
  8
_0-0_
  6
CONTINUOUS
 62
    7
 10
75.902171171101998
 20
276.28312726364436
 11
75.902171171101998
 21
268.28312726364436
  0
LINE
  8
_0-0_
  6
CONTINUOUS
 62
    7
 10
224.90216292310794
 20
116.2831272636443
 11
279.90216292310794
 21
116.2831272636443
  0
LINE
  8
_0-0_
  6
CONTINUOUS
 62
    7
 10
224.90216292310794
 20
133.2831272636443
 11
309.90216292310794
 21
133.2831272636443
  0
LINE
  8
_0-0_
  6
CONTINUOUS
 62
    7
 10
299.90216292310794
 20
128.2831272636443
 11
299.90216292310794
 21
138.2831272636443
  0
LINE
  8
_0-0_
  6
CONTINUOUS
 62
    7
 10
279.90216292310794
 20
96.283127263644303
 11
279.90216292310794
 21
138.2831272636443
  0
LINE
  8
_0-0_
  6
CONTINUOUS
 62
    7
 10
234.90216292310794
 20
128.2831272636443
 11
234.90216292310794
 21
138.2831272636443
  0
LINE
  8
_0-0_
  6
CONTINUOUS
 62
    7
 10
224.90216292310794
 20
138.2831272636443
 11
309.90216292310794
 21
138.2831272636443
  0
LINE
  8
_0-0_
  6
CONTINUOUS
 62
    7
 10
224.90216292310794
 20
96.283127263644303
 11
224.90216292310794
 21
138.2831272636443
  0
TEXT
  8
_0-0_
 62
    7
 10
227.40216292310794
 20
113.5331272636443
 40
3
 41
1
 50
0
  1
品名
  7
TATEGAKI
  0
TEXT
  8
_0-0_
 62
    7
 10
227.40216292310794
 20
127.2831272636443
 40
3
 41
1
 50
0
  1
機械名
  7
TATEGAKI
  0
TEXT
  8
_0-0_
 62
    7
 10
281.90216292310794
 20
102.7831272636443
 40
2.5
 41
1
 50
0
  1
図番
  7
TATEGAKI
  0
TEXT
  8
_0-0_
 62
    7
 10
282.40216292310794
 20
109.5331272636443
 40
2.5
 41
1
 50
0
  1
設計
  0
TEXT
  8
_0-0_
 62
    7
 10
292.40216292310794
 20
109.5331272636443
 40
2.5
 41
1
 50
0
  1
製図
  0
TEXT
  8
_0-0_
 62
    7
 10
302.40216292310794
 20
109.5331272636443
 40
2.5
 41
1
 50
0
  1
検図
  0
TEXT
  8
_0-0_
 62
    7
 10
288.65216292310794
 20
125.5331272636443
 40
2.5
 41
1
 50
0
  1
図面作成日
  0
TEXT
  8
_0-0_
 62
    7
 10
284.90216292310794
 20
129.2831272636443
 40
3
 41
1
 50
0
  1
材　料
  0
TEXT
  8
_0-0_
 62
    7
 10
240.15216292310794
 20
129.2831272636443
 40
3
 41
1
 50
0
  1
名　　　　　　　　称
  0
TEXT
  8
_0-0_
 62
    7
 10
226.65216292310794
 20
129.2831272636443
 40
3
 41
1
 50
0
  1
番号
  0
TEXT
  8
_0-0_
 62
    7
 10
290.52716292310794
 20
112.7831272636443
 40
4
 41
1
 50
0
  1
1：1
  0
TEXT
  8
_0-0_
 62
    7
 10
244.05095541401275
 20
98.369426751592357
 40
4
 41
1
 50
0
  1
科研費研究
  0
TEXT
  8
_0-0_
 62
    7
 10
291.77600849256902
 20
105.35244161358811
 40
3
 41
1
 50
0
  1
牧山
  0
TEXT
  8
_0-0_
 62
    7
 10
281.78025477707007
 20
105.44585987261146
 40
3
 41
1
 50
0
  1
牧山
  0
TEXT
  8
_0-0_
 62
    7
 10
292.07231953290869
 20
117.5814755838641
 40
2.5
 41
1
 50
0
  1
尺度
  0
TEXT
  8
_0-0_
 62
    7
 10
301.7411093418259
 20
129.4923036093418
 40
3
 41
1
 50
0
  1
個数
  0
TEXT
  8
_0-0_
 62
    7
 10
303.84302016985134
 20
134.25663481953291
 40
3
 41
1
 50
0
  1
1
  0
TEXT
  8
_0-0_
 62
    7
 10
60.238853503184714
 20
256.95859872611464
 40
4
 41
1
 50
0
  1
t=3
  0
TEXT
  8
_0-0_
 62
    7
 10
287.87579617834393
 20
134.31210191082803
 40
3
 41
1
 50
0
  1
MDF
  0
TEXT
  8
_0-0_
 62
    7
 10
302.69426751592357
 20
105.62101910828025
 40
3
 41
1
 50
0
  1
森
  0
TEXT
  8
_0-0_
 62
    7
 10
245.94267515923568
 20
108.77388535031847
 40
4
 41
1
 50
0
  1
基盤部
  0
TEXT
  8
_0-0_
 62
    7
 10
63.391719745222929
 20
274.29936305732485
 40
4
 41
1
 50
180
  1
03
  0
TEXT
  8
_0-0_
 62
    7
 10
228.91719745222929
 20
134.31210191082803
 40
3
 41
1
 50
0
  1
3
  0
TEXT
  8
_0-0_
 62
    7
 10
285.01875442321295
 20
120.78591648973814
 40
4
 41
1
 50
0
  1
2019/10/24
  0
TEXT
  8
_0-0_
 62
    7
 10
247.63588110403396
 20
133.71656050955414
 40
4
 41
1
 50
0
  1
MDF中板
  0
TEXT
  8
_0-0_
 62
    7
 10
297.1446390658175
 20
98.059978768577537
 40
4
 41
1
 50
0
  1
03
  0
TEXT
  8
_0-0_
 62
    7
 10
233.55913344342218
 20
120.57140048753638
 40
4
 41
1
 50
0
  1
楕円コンパス（直交型）
  0
LINE
  8
_0-0_
  6
CONTINUOUS
 62
    7
 10
170.10854355426827
 20
191.56290403532938
 11
170.10854355426827
 21
146.81723259523318
  0
LINE
  8
_0-0_
  6
CONTINUOUS
 62
    7
 10
170.10854355426827
 20
201.56290403532938
 11
170.10854355426827
 21
246.30185583213682
  0
LINE
  8
_0-0_
  6
CONTINUOUS
 62
    7
 10
180.10854355426827
 20
201.56290403532938
 11
180.10854355426827
 21
246.30445078377636
  0
LINE
  8
_0-0_
  6
CONTINUOUS
 62
    7
 10
180.10854355426827
 20
191.56290403532938
 11
180.10854355426827
 21
146.84704250264787
  0
LINE
  8
_0-0_
  6
CONTINUOUS
 62
    7
 10
180.10854355426827
 20
201.56290403532938
 11
224.83272454996077
 21
201.56290403532938
  0
LINE
  8
_0-0_
  6
CONTINUOUS
 62
    7
 10
170.10854355426827
 20
201.56290403532938
 11
125.38466290020065
 21
201.56290403532938
  0
LINE
  8
_0-0_
  6
CONTINUOUS
 62
    7
 10
170.10854355426827
 20
191.56290403532938
 11
125.37082315812316
 21
191.56290403532938
  0
LINE
  8
_0-0_
  6
CONTINUOUS
 62
    7
 10
180.10854355426827
 20
191.56290403532938
 11
224.83964442099958
 21
191.56290403532938
  0
ARC
  8
_0-0_
  6
CONTINUOUS
 62
    7
 10
175.10854355426827
 20
196.56290403532938
 40
50
 50
95.740364775663593
 51
174.25790696371939
  0
ARC
  8
_0-0_
  6
CONTINUOUS
 62
    7
 10
175.10854355426827
 20
196.56290403532938
 40
50
 50
185.74050594578279
 51
264.26040545515525
  0
ARC
  8
_0-0_
  6
CONTINUOUS
 62
    7
 10
175.10854355426827
 20
196.56290403532938
 40
50
 50
275.74301303977819
 51
354.25873506014392
  0
ARC
  8
_0-0_
  6
CONTINUOUS
 62
    7
 10
175.10854355426827
 20
196.56290403532938
 40
50
 50
5.7420585849281425
 51
84.259932691883463
  0
LINE
  8
_0-0_
  6
CONTINUOUS
 62
    4
 10
139.75320449494089
 20
161.207564976002
 11
210.46388261359564
 21
231.91824309465676
  0
TEXT
  8
_0-0_
 62
    4
 10
213.11553304304522
 20
235.27700030529289
 40
2.5
 41
1
 50
45.00000000000005
  1
φ100
  0
LINE
  8
_0-0_
  6
CONTINUOUS
 62
    4
 10
210.46388261359564
 20
231.91824309465676
 11
217.88850381605442
 21
239.34286429711554
  0
LINE
  8
_0-0_
  6
CONTINUOUS
 62
    4
 10
136.21767058900815
 20
157.67203107006927
 11
139.75320449494089
 21
161.207564976002
  0
LINE
  8
_0-0_
  6
CONTINUOUS
 62
    4
 10
139.75320449494089
 20
161.207564976002
 11
138.25320449494089
 21
158.60948876464869
  0
LINE
  8
_0-0_
  6
CONTINUOUS
 62
    4
 10
139.75320449494089
 20
161.207564976002
 11
137.15512828358757
 21
159.707564976002
  0
LINE
  8
_0-0_
  6
CONTINUOUS
 62
    4
 10
210.46388261359564
 20
231.91824309465676
 11
211.96388261359564
 21
234.51631930601008
  0
LINE
  8
_0-0_
  6
CONTINUOUS
 62
    4
 10
210.46388261359564
 20
231.91824309465676
 11
213.06195882494896
 21
233.41824309465676
  0
LINE
  8
_0-0_
  6
DASHED2
 62
    7
 10
175.10854355426827
 20
196.56290403532938
 11
240.16242038216561
 21
196.56290403532938
  0
LINE
  8
_0-0_
  6
DASHED2
 62
    7
 10
175.10854355426827
 20
196.56290403532938
 11
109.63375796178345
 21
196.56290403532938
  0
LINE
  8
_0-0_
  6
DASHED2
 62
    7
 10
175.10854355426827
 20
196.56290403532938
 11
175.10854355426827
 21
257.06369426751593
  0
LINE
  8
_0-0_
  6
DASHED2
 62
    7
 10
175.10854355426827
 20
196.56290403532938
 11
175.10854355426827
 21
137.04458598726114
  0
ARC
  8
_0-0_
  6
CONTINUOUS
 62
    4
 10
180.10854355426827
 20
191.56290403532938
 40
17.104957933828423
 50
253.25170405717029
 51
16.748295942829714
  0
LINE
  8
_0-0_
  6
CONTINUOUS
 62
    4
 10
180.10854355426827
 20
174.45794610150097
 11
177.21076607540107
 21
173.6814889661934
  0
LINE
  8
_0-0_
  6
CONTINUOUS
 62
    4
 10
180.10854355426827
 20
174.45794610150097
 11
177.21076607540107
 21
175.23440323680853
  0
LINE
  8
_0-0_
  6
CONTINUOUS
 62
    4
 10
197.21350148809668
 20
191.56290403532938
 11
196.43704435278912
 21
194.46068151419658
  0
LINE
  8
_0-0_
  6
CONTINUOUS
 62
    4
 10
197.21350148809668
 20
191.56290403532938
 11
197.98995862340425
 21
194.46068151419658
  0
TEXT
  8
_0-0_
 62
    7
 10
192.65923566878982
 20
174.17834394904457
 40
4
 41
1
 50
0
  1
90°
  0
LINE
  8
_0-0_
  6
DASHED2
 62
    7
 10
125.35942680504409
 20
201.56544165858253
 11
109.98796886058034
 21
201.56544165858253
  0
LINE
  8
_0-0_
  6
DASHED2
 62
    7
 10
125.35928825406444
 20
191.56174446227629
 11
109.80113234253363
 21
191.56174446227629
  0
LINE
  8
_0-0_
  6
DASHED2
 62
    7
 10
170.10854355426827
 20
146.81723259523318
 11
170.10854355426827
 21
136.45682944090589
  0
LINE
  8
_0-0_
  6
DASHED2
 62
    7
 10
180.10854355426827
 20
146.84704250264787
 11
180.10854355426827
 21
137.08740268931354
  0
LINE
  8
_0-0_
  6
DASHED2
 62
    7
 10
224.83964442099958
 20
191.56290403532938
 11
239.93276716206654
 21
191.56290403532938
  0
LINE
  8
_0-0_
  6
DASHED2
 62
    7
 10
224.83272454996077
 20
201.56290403532938
 11
240.14295824486908
 21
201.56290403532938
  0
LINE
  8
_0-0_
  6
DASHED2
 62
    7
 10
170.10854355426827
 20
246.30185583213682
 11
170.10854355426827
 21
257.31670205237083
  0
LINE
  8
_0-0_
  6
DASHED2
 62
    7
 10
180.10932226321887
 20
246.31219762131013
 11
180.10932226321887
 21
257.5268931351734
  0
LINE
  8
_0-0_
  6
CONTINUOUS
 62
    4
 10
170.10854355426827
 20
253.53326256192497
 11
165.10854355426827
 21
253.53326256192497
  0
LINE
  8
_0-0_
  6
CONTINUOUS
 62
    4
 10
180.10932226321887
 20
253.53326256192497
 11
185.10932226321887
 21
253.53326256192497
  0
LINE
  8
_0-0_
  6
CONTINUOUS
 62
    4
 10
170.10854355426827
 20
253.53326256192497
 11
167.21076607540107
 21
252.7568054266174
  0
LINE
  8
_0-0_
  6
CONTINUOUS
 62
    4
 10
170.10854355426827
 20
253.53326256192497
 11
167.21076607540107
 21
254.30971969723254
  0
LINE
  8
_0-0_
  6
CONTINUOUS
 62
    4
 10
180.10932226321887
 20
253.53326256192497
 11
183.0070997420861
 21
254.30971969723254
  0
LINE
  8
_0-0_
  6
CONTINUOUS
 62
    4
 10
180.10932226321887
 20
253.53326256192497
 11
183.0070997420861
 21
252.7568054266174
  0
LINE
  8
_0-0_
  6
CONTINUOUS
 62
    4
 10
170.10854355426827
 20
253.53326256192497
 11
180.10932226321887
 21
253.53326256192497
  0
TEXT
  8
_0-0_
 62
    4
 10
173.85893290874358
 20
254.03326256192497
 40
2.5
 41
1
 50
0
  1
10
  0
LINE
  8
_0-0_
  6
CONTINUOUS
 62
    4
 10
170.10854355426827
 20
138.7689313517339
 11
165.10854355426827
 21
138.7689313517339
  0
LINE
  8
_0-0_
  6
CONTINUOUS
 62
    4
 10
180.10854355426827
 20
138.7689313517339
 11
185.10854355426827
 21
138.7689313517339
  0
LINE
  8
_0-0_
  6
CONTINUOUS
 62
    4
 10
170.10854355426827
 20
138.7689313517339
 11
167.21076607540107
 21
137.99247421642633
  0
LINE
  8
_0-0_
  6
CONTINUOUS
 62
    4
 10
170.10854355426827
 20
138.7689313517339
 11
167.21076607540107
 21
139.54538848704144
  0
LINE
  8
_0-0_
  6
CONTINUOUS
 62
    4
 10
180.10854355426827
 20
138.7689313517339
 11
183.00632103313546
 21
139.54538848704144
  0
LINE
  8
_0-0_
  6
CONTINUOUS
 62
    4
 10
180.10854355426827
 20
138.7689313517339
 11
183.00632103313546
 21
137.99247421642633
  0
LINE
  8
_0-0_
  6
CONTINUOUS
 62
    4
 10
170.10854355426827
 20
138.7689313517339
 11
180.10854355426827
 21
138.7689313517339
  0
TEXT
  8
_0-0_
 62
    4
 10
173.85854355426827
 20
139.2689313517339
 40
2.5
 41
1
 50
0
  1
10
  0
LINE
  8
_0-0_
  6
CONTINUOUS
 62
    4
 10
115.70983722576081
 20
201.56544165858253
 11
114.93338009045324
 21
204.46321913744973
  0
LINE
  8
_0-0_
  6
CONTINUOUS
 62
    4
 10
115.70983722576081
 20
201.56544165858253
 11
116.48629436106837
 21
204.46321913744973
  0
LINE
  8
_0-0_
  6
CONTINUOUS
 62
    4
 10
115.70983722576081
 20
191.56174446227629
 11
116.48629436106837
 21
188.6639669834091
  0
LINE
  8
_0-0_
  6
CONTINUOUS
 62
    4
 10
115.70983722576081
 20
191.56174446227629
 11
114.93338009045324
 21
188.6639669834091
  0
LINE
  8
_0-0_
  6
CONTINUOUS
 62
    4
 10
115.70983722576081
 20
201.56544165858253
 11
115.70983722576081
 21
191.56174446227629
  0
TEXT
  8
_0-0_
 62
    4
 10
115.20983722576081
 20
195.31359306042941
 40
2.5
 41
1
 50
90
  1
10
  0
LINE
  8
_0-0_
  6
CONTINUOUS
 62
    4
 10
232.99646142958247
 20
201.56290403532938
 11
232.2200042942749
 21
204.46068151419658
  0
LINE
  8
_0-0_
  6
CONTINUOUS
 62
    4
 10
232.99646142958247
 20
201.56290403532938
 11
233.77291856489003
 21
204.46068151419658
  0
LINE
  8
_0-0_
  6
CONTINUOUS
 62
    4
 10
232.99646142958247
 20
191.56290403532938
 11
233.77291856489003
 21
188.66512655646218
  0
LINE
  8
_0-0_
  6
CONTINUOUS
 62
    4
 10
232.99646142958247
 20
191.56290403532938
 11
232.2200042942749
 21
188.66512655646218
  0
LINE
  8
_0-0_
  6
CONTINUOUS
 62
    4
 10
232.99646142958247
 20
201.56290403532938
 11
232.99646142958247
 21
191.56290403532938
  0
TEXT
  8
_0-0_
 62
    4
 10
232.49646142958247
 20
195.31290403532938
 40
2.5
 41
1
 50
90
  1
10
  0
ENDSEC
  0
EOF
