  0
SECTION
  2
HEADER
  9
$ACADVER
  1
AC1009
  9
$INSBASE
 10
0
 20
0
 30
0
  9
$EXTMIN
 10
0
 20
0
  9
$EXTMAX
 10
420
 20
297
  9
$LIMMIN
 10
0
 20
0
  9
$LIMMAX
 10
420
 20
297
  9
$LTSCALE
 40
1
  0
ENDSEC
  0
SECTION
  2
TABLES
  0
TABLE
  2
LTYPE
 70
     9
  0
LTYPE
  2
CONTINUOUS
 70
    64
  3
実線
 72
    65
 73
     0
 40
0.0
  0
LTYPE
  2
DASHED1
 70
    64
  3
--  --  --  --  --  --  --  --  
 72
    65
 73
     2
 40
2.5
 49
1.25
 49
-1.25
  0
LTYPE
  2
DASHED2
 70
    64
  3
----    ----    ----    ----    
 72
    65
 73
     2
 40
5.0
 49
2.5
 49
-2.5
  0
LTYPE
  2
DASHED3
 70
    64
  3
------  ------  ------  ------  
 72
    65
 73
     2
 40
5.0
 49
3.75
 49
-1.25
  0
LTYPE
  2
CENTER1
 70
    64
  3
----- - ----- - ----- - ----- - 
 72
    65
 73
     4
 40
10.0
 49
6.25
 49
-1.25
 49
1.25
 49
-1.25
  0
LTYPE
  2
CENTER2
 70
    64
  3
----------  --  ----------  --  
 72
    65
 73
     4
 40
20.0
 49
12.5
 49
-2.5
 49
2.5
 49
-2.5
  0
LTYPE
  2
PHANTOM1
 70
    64
  3
--- - - --- - - --- - - --- - - 
 72
    65
 73
     6
 40
10.0
 49
3.25
 49
-1.25
 49
1.25
 49
-1.25
 49
1.25
 49
-1.25
  0
LTYPE
  2
PHANTOM2
 70
    64
  3
--------  -  -  --------  -  -  
 72
    65
 73
     6
 40
20.0
 49
10.0
 49
-2.5
 49
1.25
 49
-2.5
 49
1.25
 49
-2.5
  0
LTYPE
  2
DOT
 70
    64
  3
-   -   -   -   -   -   -   -   
 72
    65
 73
     2
 40
2.5
 49
0.625
 49
-1.875
  0
LTYPE
  2
DUMMY
 70
    64
  3
ダミー
 72
    65
 73
     0
 40
0.0
  0
LTYPE
  2
RAND1
 70
    64
  3
ランダム線1
 72
    65
 73
     4
 40
10.0
 49
1.0
 49
-2.0
 49
3.0
 49
-4.0
  0
LTYPE
  2
RAND2
 70
    64
  3
ランダム線2
 72
    65
 73
     4
 40
14.0
 49
2.0
 49
-3.0
 49
4.0
 49
-5.0
  0
LTYPE
  2
RAND3
 70
    64
  3
ランダム線3
 72
    65
 73
     4
 40
18.0
 49
3.0
 49
-4.0
 49
5.0
 49
-6.0
  0
LTYPE
  2
RAND4
 70
    64
  3
ランダム線4
 72
    65
 73
     4
 40
22.0
 49
4.0
 49
-5.0
 49
6.0
 49
-7.0
  0
LTYPE
  2
RAND5
 70
    64
  3
ランダム線5
 72
    65
 73
     4
 40
26.0
 49
5.0
 49
-6.0
 49
7.0
 49
-8.0
  0
LTYPE
  2
LONG1
 70
    64
  3
----------  --  ----------  --  
 72
    65
 73
     4
 40
40.0
 49
32.5
 49
-2.5
 49
2.5
 49
-2.5
  0
LTYPE
  2
LONG2
 70
    64
  3
--------  -  -  --------  -  -  
 72
    65
 73
     6
 40
40.0
 49
30.0
 49
-2.5
 49
1.25
 49
-2.5
 49
1.25
 49
-2.5
  0
LTYPE
  2
LONG3
 70
    64
  3
+++++++++++++++..+++++++++++++++
 72
    65
 73
     2
 40
40.0
 49
37.5
 49
-2.5
  0
LTYPE
  2
LONG4
 70
    64
  3
+++++++++++++++..+++++++++++++++
 72
    65
 73
     2
 40
80.0
 49
75.0
 49
-5.0
  0
LTYPE
  2
LONG5
 70
    64
  3
----------  --  ----------  --  
 72
    65
 73
     4
 40
60.0
 49
37.5
 49
-7.5
 49
7.5
 49
-7.5
  0
LTYPE
  2
dashed
 70
   64
  3
-------   -------------   ------
 72
   65
 73
    2
 40
7.5
 49
6
 49
-1.5
  0
LTYPE
  2
dashed_spaced
 70
   64
  3
----        --------        ----
 72
   65
 73
    2
 40
12
 49
6
 49
-6
  0
LTYPE
  2
long_dashed_dotted
 70
   64
  3
------------- --- --------------
 72
   65
 73
    4
 40
15.25
 49
12
 49
-1.5
 49
0.25
 49
-1.5
  0
LTYPE
  2
long_dashed_double-dotted
 70
   64
  3
----------- --- --- ------------
 72
   65
 73
    6
 40
17
 49
12
 49
-1.5
 49
0.25
 49
-1.5
 49
0.25
 49
-1.5
  0
LTYPE
  2
long_dashed_triplicate-dotted
 70
   64
  3
--------- --- --- --- ----------
 72
   65
 73
    8
 40
18.75
 49
12
 49
-1.5
 49
0.25
 49
-1.5
 49
0.25
 49
-1.5
 49
0.25
 49
-1.5
  0
LTYPE
  2
dotted
 70
   64
  3
   -       -       -       -    
 72
   65
 73
    2
 40
1.75
 49
0.25
 49
-1.5
  0
LTYPE
  2
chain
 70
   64
  3
-------------- -- --------------
 72
   65
 73
    4
 40
18.5
 49
12
 49
-1.5
 49
3.5
 49
-1.5
  0
LTYPE
  2
chain_double_dash
 70
   64
  3
------------ -- -- -------------
 72
   65
 73
    6
 40
23.5
 49
12
 49
-1.5
 49
3.5
 49
-1.5
 49
3.5
 49
-1.5
  0
LTYPE
  2
dashed_dotted
 70
   64
  3
-----------     -     ----------
 72
   65
 73
    4
 40
9.25
 49
6
 49
-1.5
 49
0.25
 49
-1.5
  0
LTYPE
  2
double-dashed_dotted
 70
   64
  3
------   -----------   -   -----
 72
   65
 73
    6
 40
16.75
 49
6
 49
-1.5
 49
6
 49
-1.5
 49
0.25
 49
-1.5
  0
LTYPE
  2
dashed_double-dotted
 70
   64
  3
---------    -    -    ---------
 72
   65
 73
    6
 40
11
 49
6
 49
-1.5
 49
0.25
 49
-1.5
 49
0.25
 49
-1.5
  0
LTYPE
  2
double-dashed_double-dotted
 70
   64
  3
-----   ---------   -   -   ----
 72
   65
 73
    8
 40
18.5
 49
6
 49
-1.5
 49
6
 49
-1.5
 49
0.25
 49
-1.5
 49
0.25
 49
-1.5
  0
LTYPE
  2
dashed_triplicate-dotted
 70
   64
  3
-------    -    -    -    ------
 72
   65
 73
    8
 40
12.75
 49
6
 49
-1.5
 49
0.25
 49
-1.5
 49
0.25
 49
-1.5
 49
0.25
 49
-1.5
  0
LTYPE
  2
double-dashed_triplicate-dotted
 70
   64
  3
-----  ---------  -  -  -  -----
 72
   65
 73
   10
 40
20.25
 49
6
 49
-1.5
 49
6
 49
-1.5
 49
0.25
 49
-1.5
 49
0.25
 49
-1.5
 49
0.25
 49
-1.5
  0
LTYPE
  2
undefined
 70
   64
  3
--------------------------------
 72
   65
 73
    0
 40
0
  0
LTYPE
  2
_
 70
   64
  3
                                
 72
   65
 73
    0
 40
0
  0
LTYPE
  2
__18
 70
   64
  3
                                
 72
   65
 73
    0
 40
0
  0
LTYPE
  2
__19
 70
   64
  3
                                
 72
   65
 73
    0
 40
0
  0
LTYPE
  2
__20
 70
   64
  3
                                
 72
   65
 73
    0
 40
0
  0
LTYPE
  2
__21
 70
   64
  3
                                
 72
   65
 73
    0
 40
0
  0
LTYPE
  2
__22
 70
   64
  3
                                
 72
   65
 73
    0
 40
0
  0
LTYPE
  2
__23
 70
   64
  3
                                
 72
   65
 73
    0
 40
0
  0
LTYPE
  2
__24
 70
   64
  3
                                
 72
   65
 73
    0
 40
0
  0
LTYPE
  2
__25
 70
   64
  3
                                
 72
   65
 73
    0
 40
0
  0
LTYPE
  2
__26
 70
   64
  3
                                
 72
   65
 73
    0
 40
0
  0
LTYPE
  2
__27
 70
   64
  3
                                
 72
   65
 73
    0
 40
0
  0
LTYPE
  2
__28
 70
   64
  3
                                
 72
   65
 73
    0
 40
0
  0
LTYPE
  2
__29
 70
   64
  3
                                
 72
   65
 73
    0
 40
0
  0
LTYPE
  2
__30
 70
   64
  3
                                
 72
   65
 73
    0
 40
0
  0
LTYPE
  2
__31
 70
   64
  3
                                
 72
   65
 73
    0
 40
0
  0
LTYPE
  2
__32
 70
   64
  3
                                
 72
   65
 73
    0
 40
0
  0
ENDTAB
  0
TABLE
  2
STYLE
  5
3
100
AcDbSymbolTable
 70
     1
  0
STYLE
  5
10
100
AcDbSymbolTableRecord
100
AcDbTextStyleTableRecord
  2
STANDARD
 70
     0
 40
0.0
 41
1.0
 50
0.0
 71
     0
 42
0.2
  3
txt
  4
bigfont.shx
  0
STYLE
  5
26
100
AcDbSymbolTableRecord
100
AcDbTextStyleTableRecord
  2
TATEGAKI
 70
    68
 40
0.0
 41
1.0
 50
0.0
 71
     0
 42
1.0
  3
txt
  4
bigfont.shx
  0
ENDTAB
  0
TABLE
  2
LAYER
 70
    2
  0
LAYER
  2
_0-0_
 70
   64
 62
    7
  6
CONTINUOUS
  0
LAYER
  2
ADD_LINE
 70
   64
 62
    7
  6
CONTINUOUS
  0
ENDTAB
  0
ENDSEC
  0
SECTION
  2
BLOCKS
  0
ENDSEC
  0
SECTION
  2
ENTITIES
  0
LINE
  8
_0-0_
  6
CONTINUOUS
 62
    7
 10
75.902171171101998
 20
268.28312726364436
 11
49.902171171101998
 21
268.28312726364436
  0
LINE
  8
_0-0_
  6
CONTINUOUS
 62
    7
 10
224.90216292310794
 20
128.2831272636443
 11
309.90216292310794
 21
128.2831272636443
  0
LINE
  8
_0-0_
  6
CONTINUOUS
 62
    7
 10
309.90216292310794
 20
96.283127263644303
 11
309.90216292310794
 21
276.28312726364436
  0
LINE
  8
_0-0_
  6
CONTINUOUS
 62
    7
 10
49.902171171101998
 20
276.28312726364436
 11
49.902171171101998
 21
96.283127263644303
  0
LINE
  8
_0-0_
  6
CONTINUOUS
 62
    7
 10
49.902171171101998
 20
96.283127263644303
 11
309.90216292310794
 21
96.283127263644303
  0
LINE
  8
_0-0_
  6
CONTINUOUS
 62
    7
 10
309.90216292310794
 20
276.28312726364436
 11
49.902171171101998
 21
276.28312726364436
  0
LINE
  8
_0-0_
  6
CONTINUOUS
 62
    7
 10
283.90216292310794
 20
96.283127263644303
 11
283.90216292310794
 21
104.2831272636443
  0
LINE
  8
_0-0_
  6
CONTINUOUS
 62
    7
 10
279.90216292310794
 20
109.2831272636443
 11
309.90216292310794
 21
109.2831272636443
  0
LINE
  8
_0-0_
  6
CONTINUOUS
 62
    7
 10
279.90216292310794
 20
112.2831272636443
 11
309.90216292310794
 21
112.2831272636443
  0
LINE
  8
_0-0_
  6
CONTINUOUS
 62
    7
 10
279.90216292310794
 20
120.2831272636443
 11
309.90216292310794
 21
120.2831272636443
  0
LINE
  8
_0-0_
  6
CONTINUOUS
 62
    7
 10
279.90216292310794
 20
117.2831272636443
 11
309.90216292310794
 21
117.2831272636443
  0
LINE
  8
_0-0_
  6
CONTINUOUS
 62
    7
 10
279.90216292310794
 20
125.2831272636443
 11
309.90216292310794
 21
125.2831272636443
  0
LINE
  8
_0-0_
  6
CONTINUOUS
 62
    7
 10
289.90216292310794
 20
104.2831272636443
 11
289.90216292310794
 21
112.2831272636443
  0
LINE
  8
_0-0_
  6
CONTINUOUS
 62
    7
 10
299.90216292310794
 20
104.2831272636443
 11
299.90216292310794
 21
112.2831272636443
  0
LINE
  8
_0-0_
  6
CONTINUOUS
 62
    7
 10
224.90216292310794
 20
104.2831272636443
 11
309.90216292310794
 21
104.2831272636443
  0
LINE
  8
_0-0_
  6
CONTINUOUS
 62
    7
 10
229.90216292310794
 20
104.2831272636443
 11
229.90216292310794
 21
128.2831272636443
  0
LINE
  8
_0-0_
  6
CONTINUOUS
 62
    7
 10
75.902171171101998
 20
276.28312726364436
 11
75.902171171101998
 21
268.28312726364436
  0
LINE
  8
_0-0_
  6
CONTINUOUS
 62
    7
 10
224.90216292310794
 20
116.2831272636443
 11
279.90216292310794
 21
116.2831272636443
  0
LINE
  8
_0-0_
  6
CONTINUOUS
 62
    7
 10
224.90216292310794
 20
133.2831272636443
 11
309.90216292310794
 21
133.2831272636443
  0
LINE
  8
_0-0_
  6
CONTINUOUS
 62
    7
 10
299.90216292310794
 20
128.2831272636443
 11
299.90216292310794
 21
138.2831272636443
  0
LINE
  8
_0-0_
  6
CONTINUOUS
 62
    7
 10
279.90216292310794
 20
96.283127263644303
 11
279.90216292310794
 21
138.2831272636443
  0
LINE
  8
_0-0_
  6
CONTINUOUS
 62
    7
 10
234.90216292310794
 20
128.2831272636443
 11
234.90216292310794
 21
138.2831272636443
  0
LINE
  8
_0-0_
  6
CONTINUOUS
 62
    7
 10
224.90216292310794
 20
138.2831272636443
 11
309.90216292310794
 21
138.2831272636443
  0
LINE
  8
_0-0_
  6
CONTINUOUS
 62
    7
 10
224.90216292310794
 20
96.283127263644303
 11
224.90216292310794
 21
138.2831272636443
  0
TEXT
  8
_0-0_
 62
    7
 10
227.40216292310794
 20
113.5331272636443
 40
3
 41
1
 50
0
  1
品名
  7
TATEGAKI
  0
TEXT
  8
_0-0_
 62
    7
 10
227.40216292310794
 20
127.2831272636443
 40
3
 41
1
 50
0
  1
機械名
  7
TATEGAKI
  0
TEXT
  8
_0-0_
 62
    7
 10
281.90216292310794
 20
102.7831272636443
 40
2.5
 41
1
 50
0
  1
図番
  7
TATEGAKI
  0
TEXT
  8
_0-0_
 62
    7
 10
282.40216292310794
 20
109.5331272636443
 40
2.5
 41
1
 50
0
  1
設計
  0
TEXT
  8
_0-0_
 62
    7
 10
292.40216292310794
 20
109.5331272636443
 40
2.5
 41
1
 50
0
  1
製図
  0
TEXT
  8
_0-0_
 62
    7
 10
302.40216292310794
 20
109.5331272636443
 40
2.5
 41
1
 50
0
  1
検図
  0
TEXT
  8
_0-0_
 62
    7
 10
288.65216292310794
 20
125.5331272636443
 40
2.5
 41
1
 50
0
  1
図面作成日
  0
TEXT
  8
_0-0_
 62
    7
 10
284.90216292310794
 20
129.2831272636443
 40
3
 41
1
 50
0
  1
材　料
  0
TEXT
  8
_0-0_
 62
    7
 10
240.15216292310794
 20
129.2831272636443
 40
3
 41
1
 50
0
  1
名　　　　　　　　称
  0
TEXT
  8
_0-0_
 62
    7
 10
226.65216292310794
 20
129.2831272636443
 40
3
 41
1
 50
0
  1
番号
  0
TEXT
  8
_0-0_
 62
    7
 10
290.52716292310794
 20
112.7831272636443
 40
4
 41
1
 50
0
  1
1：1
  0
TEXT
  8
_0-0_
 62
    7
 10
244.05095541401275
 20
98.369426751592357
 40
4
 41
1
 50
0
  1
科研費研究
  0
TEXT
  8
_0-0_
 62
    7
 10
291.77600849256902
 20
105.35244161358811
 40
3
 41
1
 50
0
  1
牧山
  0
TEXT
  8
_0-0_
 62
    7
 10
281.78025477707007
 20
105.44585987261146
 40
3
 41
1
 50
0
  1
牧山
  0
TEXT
  8
_0-0_
 62
    7
 10
292.07231953290869
 20
117.5814755838641
 40
2.5
 41
1
 50
0
  1
尺度
  0
TEXT
  8
_0-0_
 62
    7
 10
301.7411093418259
 20
129.4923036093418
 40
3
 41
1
 50
0
  1
個数
  0
TEXT
  8
_0-0_
 62
    7
 10
303.84302016985134
 20
134.25663481953291
 40
3
 41
1
 50
0
  1
1
  0
LINE
  8
_0-0_
  6
CONTINUOUS
 62
    7
 10
180.19882157390728
 20
203.72669037504835
 11
223.87422370062106
 21
228.94269554987173
  0
LINE
  8
_0-0_
  6
CONTINUOUS
 62
    7
 10
177.69882160668149
 20
203.72669037504841
 11
134.02341317019906
 21
228.94269919281837
  0
LINE
  8
_0-0_
  6
CONTINUOUS
 62
    7
 10
180.19882157390728
 20
203.72669037504835
 11
178.94882159029444
 21
203.00500254802245
  0
LINE
  8
_0-0_
  6
CONTINUOUS
 62
    7
 10
168.94882159029444
 20
197.23149985612616
 11
129.01522907243717
 21
174.17582946623247
  0
LINE
  8
_0-0_
  6
CONTINUOUS
 62
    7
 10
177.69882160668149
 20
203.72669037504841
 11
178.94882159029444
 21
203.00500254802245
  0
LINE
  8
_0-0_
  6
CONTINUOUS
 62
    7
 10
188.94882159029444
 20
197.23149985612616
 11
228.87274752863343
 21
174.18141046851946
  0
LINE
  8
_0-0_
  6
CONTINUOUS
 62
    7
 10
188.94882159029444
 20
197.23149985612616
 11
228.78390562755803
 21
220.23029634823172
  0
LINE
  8
_0-0_
  6
CONTINUOUS
 62
    7
 10
178.94882159029444
 20
191.45799716422994
 11
134.01595624400758
 21
165.51599526109004
  0
LINE
  8
_0-0_
  6
CONTINUOUS
 62
    7
 10
178.94882159029444
 20
191.45799716422994
 11
223.88096641843006
 21
165.51641125243856
  0
LINE
  8
_0-0_
  6
CONTINUOUS
 62
    7
 10
168.94882159029444
 20
197.23149985612616
 11
128.99661687808558
 21
220.29791600143901
  0
ARC
  8
_0-0_
  6
CONTINUOUS
 62
    7
 10
178.94882159029444
 20
197.23149985612616
 40
55
 50
35.216866996732868
 51
144.78313369352148
  0
ARC
  8
_0-0_
  6
CONTINUOUS
 62
    7
 10
178.94882159029444
 20
197.23149985612616
 40
55
 50
155.21590857045413
 51
204.78402883596237
  0
ARC
  8
_0-0_
  6
CONTINUOUS
 62
    7
 10
178.94882159029444
 20
197.23149985612616
 40
55
 50
215.2160506866274
 51
324.7838705160076
  0
ARC
  8
_0-0_
  6
CONTINUOUS
 62
    7
 10
178.94882159029444
 20
197.23149985612616
 40
55
 50
335.21702848692087
 51
24.773234000367196
  0
LINE
  8
_0-0_
  6
DASHED3
 62
    7
 10
178.94882159029444
 20
197.23149985612616
 11
236.57861650796809
 21
163.95892224706438
  0
LINE
  8
_0-0_
  6
DASHED3
 62
    7
 10
178.94882159029444
 20
197.23149985612616
 11
121.87339835670471
 21
230.18401082415102
  0
LINE
  8
_0-0_
  6
DASHED3
 62
    7
 10
178.94882159029444
 20
197.23149985612616
 11
236.84736521698386
 21
230.6592396046826
  0
LINE
  8
_0-0_
  6
DASHED3
 62
    7
 10
178.94882159029444
 20
197.23149985612616
 11
121.83674055403357
 21
164.25782449586123
  0
LINE
  8
_0-0_
  6
DASHED3
 62
    7
 10
129.01463149994481
 20
174.17555355108746
 11
119.79715499533512
 21
168.85384100990203
  0
LINE
  8
_0-0_
  6
DASHED3
 62
    7
 10
134.0147353567516
 20
165.5151335075588
 11
124.53595215666419
 21
160.04255547539825
  0
LINE
  8
_0-0_
  6
DASHED3
 62
    7
 10
223.87422370062106
 20
228.94269554987173
 11
234.57817104484792
 21
235.12262243045268
  0
LINE
  8
_0-0_
  6
DASHED3
 62
    7
 10
228.88735465969557
 20
220.27803787979315
 11
238.79222581263406
 21
225.99661790623074
  0
LINE
  8
_0-0_
  6
DASHED3
 62
    7
 10
223.88096641843006
 20
165.51641125243856
 11
235.0914743020295
 21
159.04402150809
  0
LINE
  8
_0-0_
  6
DASHED3
 62
    7
 10
228.87274752863343
 20
174.18141046851946
 11
238.48337902736603
 21
168.6327097856439
  0
LINE
  8
_0-0_
  6
DASHED3
 62
    7
 10
128.99661687808558
 20
220.29791600143901
 11
120.23790930314816
 21
225.35475817758234
  0
LINE
  8
_0-0_
  6
DASHED3
 62
    7
 10
134.015186851767
 20
228.94850584951399
 11
125.18290106877943
 21
234.04782842388158
  0
LINE
  8
_0-0_
  6
CONTINUOUS
 62
    4
 10
230.2941580930063
 20
232.6492463994951
 11
227.7941580930063
 21
236.97937341841728
  0
LINE
  8
_0-0_
  6
CONTINUOUS
 62
    4
 10
235.29934766146678
 20
223.98000376540776
 11
237.79934766146678
 21
219.64987674648557
  0
LINE
  8
_0-0_
  6
CONTINUOUS
 62
    4
 10
230.2941580930063
 20
232.6492463994951
 11
228.17283774944664
 21
234.77056674305473
  0
LINE
  8
_0-0_
  6
CONTINUOUS
 62
    4
 10
230.2941580930063
 20
232.6492463994951
 11
229.51770095769874
 21
235.54702387836227
  0
LINE
  8
_0-0_
  6
CONTINUOUS
 62
    4
 10
235.29934766146678
 20
223.98000376540776
 11
237.42066800502644
 21
221.85868342184813
  0
LINE
  8
_0-0_
  6
CONTINUOUS
 62
    4
 10
235.29934766146678
 20
223.98000376540776
 11
236.07580479677435
 21
221.08222628654056
  0
LINE
  8
_0-0_
  6
CONTINUOUS
 62
    4
 10
230.2941580930063
 20
232.6492463994951
 11
235.29934766146678
 21
223.98000376540776
  0
LINE
  8
_0-0_
  6
CONTINUOUS
 62
    4
 10
122.55135420521928
 20
170.44397866513049
 11
120.05135420521928
 21
174.7741056840527
  0
LINE
  8
_0-0_
  6
CONTINUOUS
 62
    4
 10
127.55145266347007
 20
161.78355409259331
 11
130.05145266347006
 21
157.45342707367112
  0
LINE
  8
_0-0_
  6
CONTINUOUS
 62
    4
 10
122.55135420521928
 20
170.44397866513049
 11
120.43003386165964
 21
172.56529900869015
  0
LINE
  8
_0-0_
  6
CONTINUOUS
 62
    4
 10
122.55135420521928
 20
170.44397866513049
 11
121.77489706991172
 21
173.34175614399769
  0
LINE
  8
_0-0_
  6
CONTINUOUS
 62
    4
 10
127.55145266347007
 20
161.78355409259331
 11
129.67277300702972
 21
159.66223374903367
  0
LINE
  8
_0-0_
  6
CONTINUOUS
 62
    4
 10
127.55145266347007
 20
161.78355409259331
 11
128.32790979877763
 21
158.88577661372611
  0
LINE
  8
_0-0_
  6
CONTINUOUS
 62
    4
 10
122.55135420521928
 20
170.44397866513049
 11
127.55145266347007
 21
161.78355409259331
  0
LINE
  8
_0-0_
  6
CONTINUOUS
 62
    4
 10
235.16801889731016
 20
170.54683384919218
 11
235.94447603261773
 21
173.44461132805941
  0
LINE
  8
_0-0_
  6
CONTINUOUS
 62
    4
 10
235.16801889731016
 20
170.54683384919218
 11
237.28933924086982
 21
172.66815419275184
  0
LINE
  8
_0-0_
  6
CONTINUOUS
 62
    4
 10
230.16801889731016
 20
161.88657981134781
 11
229.3915617620026
 21
158.98880233248062
  0
LINE
  8
_0-0_
  6
CONTINUOUS
 62
    4
 10
230.16801889731016
 20
161.88657981134781
 11
228.04669855375053
 21
159.76525946778818
  0
LINE
  8
_0-0_
  6
CONTINUOUS
 62
    4
 10
235.16801889731016
 20
170.54683384919218
 11
230.16801889731016
 21
161.88657981134781
  0
LINE
  8
_0-0_
  6
CONTINUOUS
 62
    4
 10
127.57521684806443
 20
232.66662426472482
 11
128.351673983372
 21
235.56440174359199
  0
LINE
  8
_0-0_
  6
CONTINUOUS
 62
    4
 10
127.57521684806443
 20
232.66662426472482
 11
129.69653719162409
 21
234.78794460828445
  0
LINE
  8
_0-0_
  6
CONTINUOUS
 62
    4
 10
122.57475930583287
 20
224.00557774048877
 11
121.7983021705253
 21
221.10780026162155
  0
LINE
  8
_0-0_
  6
CONTINUOUS
 62
    4
 10
122.57475930583287
 20
224.00557774048877
 11
120.45343896227322
 21
221.88425739692912
  0
LINE
  8
_0-0_
  6
CONTINUOUS
 62
    4
 10
127.57521684806443
 20
232.66662426472482
 11
122.57475930583287
 21
224.00557774048877
  0
TEXT
  8
_0-0_
 62
    7
 10
185.09527600849259
 20
198.77070063694265
 40
2.5
 41
1
 50
-90
  1
60ﾟ
  0
TEXT
  8
_0-0_
 62
    7
 10
60.238853503184714
 20
256.95859872611464
 40
4
 41
1
 50
0
  1
t=3
  0
TEXT
  8
_0-0_
 62
    7
 10
287.87579617834393
 20
134.31210191082803
 40
3
 41
1
 50
0
  1
MDF
  0
LINE
  8
_0-0_
  6
CONTINUOUS
 62
    4
 10
123.94882159029444
 20
197.23149985612616
 11
233.94882159029444
 21
197.23149985612616
  0
TEXT
  8
_0-0_
 62
    7
 10
238.19882159029444
 20
197.73149985612616
 40
2.5
 41
1
 50
0
  1
φ110
  0
LINE
  8
_0-0_
  6
CONTINUOUS
 62
    4
 10
233.94882159029444
 20
197.23149985612616
 11
244.44882159029444
 21
197.23149985612616
  0
LINE
  8
_0-0_
  6
CONTINUOUS
 62
    4
 10
118.94882159029444
 20
197.23149985612616
 11
123.94882159029444
 21
197.23149985612616
  0
LINE
  8
_0-0_
  6
CONTINUOUS
 62
    4
 10
123.94882159029444
 20
197.23149985612616
 11
121.05104411142725
 21
196.4550427208186
  0
LINE
  8
_0-0_
  6
CONTINUOUS
 62
    4
 10
123.94882159029444
 20
197.23149985612616
 11
121.05104411142725
 21
198.00795699143373
  0
LINE
  8
_0-0_
  6
CONTINUOUS
 62
    4
 10
233.94882159029444
 20
197.23149985612616
 11
236.84659906916164
 21
198.00795699143373
  0
LINE
  8
_0-0_
  6
CONTINUOUS
 62
    4
 10
233.94882159029444
 20
197.23149985612616
 11
236.84659906916164
 21
196.4550427208186
  0
ARC
  8
_0-0_
  6
CONTINUOUS
 62
    4
 10
178.94882159029444
 20
197.23149985612616
 40
9.3830513328238414
 50
330.00000000000011
 51
29.999999999999865
  0
TEXT
  8
_0-0_
 62
    7
 10
302.69426751592357
 20
105.62101910828025
 40
3
 41
1
 50
0
  1
森
  0
TEXT
  8
_0-0_
 62
    7
 10
245.94267515923568
 20
108.77388535031847
 40
4
 41
1
 50
0
  1
基盤部
  0
TEXT
  8
_0-0_
 62
    7
 10
63.391719745222929
 20
274.29936305732485
 40
4
 41
1
 50
180
  1
03
  0
TEXT
  8
_0-0_
 62
    7
 10
228.91719745222929
 20
134.31210191082803
 40
3
 41
1
 50
0
  1
3
  0
TEXT
  8
_0-0_
 62
    7
 10
285.01875442321295
 20
120.78591648973814
 40
4
 41
1
 50
0
  1
2019/10/24
  0
TEXT
  8
_0-0_
 62
    7
 10
247.63588110403396
 20
133.71656050955414
 40
4
 41
1
 50
0
  1
MDF中板
  0
TEXT
  8
_0-0_
 62
    7
 10
297.1446390658175
 20
98.059978768577537
 40
4
 41
1
 50
0
  1
03
  0
TEXT
  8
_0-0_
 62
    7
 10
234.59235668789808
 20
120.12420382165605
 40
4
 41
1
 50
0
  1
楕円コンパス（斜交型）
  0
TEXT
  8
_0-0_
 62
    7
 10
232.82432963749312
 20
229.85432885114409
 40
2.5
 41
1
 50
-59.999999999999943
  1
10
  0
TEXT
  8
_0-0_
 62
    7
 10
116.2270975859086
 20
160.70189510104581
 40
3
 41
1
 50
0
  1
10
  0
TEXT
  8
_0-0_
 62
    7
 10
239.18888102539904
 20
161.01718172524963
 40
3
 41
1
 50
0
  1
10
  0
TEXT
  8
_0-0_
 62
    7
 10
117.48824408272388
 20
230.06495242588656
 40
3
 41
1
 50
0
  1
10
  0
ENDSEC
  0
EOF
