  0
SECTION
  2
HEADER
  9
$ACADVER
  1
AC1009
  9
$INSBASE
 10
0
 20
0
 30
0
  9
$EXTMIN
 10
0
 20
0
  9
$EXTMAX
 10
420
 20
297
  9
$LIMMIN
 10
0
 20
0
  9
$LIMMAX
 10
420
 20
297
  9
$LTSCALE
 40
1
  0
ENDSEC
  0
SECTION
  2
TABLES
  0
TABLE
  2
LTYPE
 70
     9
  0
LTYPE
  2
CONTINUOUS
 70
    64
  3
実線
 72
    65
 73
     0
 40
0.0
  0
LTYPE
  2
DASHED1
 70
    64
  3
--  --  --  --  --  --  --  --  
 72
    65
 73
     2
 40
2.5
 49
1.25
 49
-1.25
  0
LTYPE
  2
DASHED2
 70
    64
  3
----    ----    ----    ----    
 72
    65
 73
     2
 40
5.0
 49
2.5
 49
-2.5
  0
LTYPE
  2
DASHED3
 70
    64
  3
------  ------  ------  ------  
 72
    65
 73
     2
 40
5.0
 49
3.75
 49
-1.25
  0
LTYPE
  2
CENTER1
 70
    64
  3
----- - ----- - ----- - ----- - 
 72
    65
 73
     4
 40
10.0
 49
6.25
 49
-1.25
 49
1.25
 49
-1.25
  0
LTYPE
  2
CENTER2
 70
    64
  3
----------  --  ----------  --  
 72
    65
 73
     4
 40
20.0
 49
12.5
 49
-2.5
 49
2.5
 49
-2.5
  0
LTYPE
  2
PHANTOM1
 70
    64
  3
--- - - --- - - --- - - --- - - 
 72
    65
 73
     6
 40
10.0
 49
3.25
 49
-1.25
 49
1.25
 49
-1.25
 49
1.25
 49
-1.25
  0
LTYPE
  2
PHANTOM2
 70
    64
  3
--------  -  -  --------  -  -  
 72
    65
 73
     6
 40
20.0
 49
10.0
 49
-2.5
 49
1.25
 49
-2.5
 49
1.25
 49
-2.5
  0
LTYPE
  2
DOT
 70
    64
  3
-   -   -   -   -   -   -   -   
 72
    65
 73
     2
 40
2.5
 49
0.625
 49
-1.875
  0
LTYPE
  2
DUMMY
 70
    64
  3
ダミー
 72
    65
 73
     0
 40
0.0
  0
LTYPE
  2
RAND1
 70
    64
  3
ランダム線1
 72
    65
 73
     4
 40
10.0
 49
1.0
 49
-2.0
 49
3.0
 49
-4.0
  0
LTYPE
  2
RAND2
 70
    64
  3
ランダム線2
 72
    65
 73
     4
 40
14.0
 49
2.0
 49
-3.0
 49
4.0
 49
-5.0
  0
LTYPE
  2
RAND3
 70
    64
  3
ランダム線3
 72
    65
 73
     4
 40
18.0
 49
3.0
 49
-4.0
 49
5.0
 49
-6.0
  0
LTYPE
  2
RAND4
 70
    64
  3
ランダム線4
 72
    65
 73
     4
 40
22.0
 49
4.0
 49
-5.0
 49
6.0
 49
-7.0
  0
LTYPE
  2
RAND5
 70
    64
  3
ランダム線5
 72
    65
 73
     4
 40
26.0
 49
5.0
 49
-6.0
 49
7.0
 49
-8.0
  0
LTYPE
  2
LONG1
 70
    64
  3
----------  --  ----------  --  
 72
    65
 73
     4
 40
40.0
 49
32.5
 49
-2.5
 49
2.5
 49
-2.5
  0
LTYPE
  2
LONG2
 70
    64
  3
--------  -  -  --------  -  -  
 72
    65
 73
     6
 40
40.0
 49
30.0
 49
-2.5
 49
1.25
 49
-2.5
 49
1.25
 49
-2.5
  0
LTYPE
  2
LONG3
 70
    64
  3
+++++++++++++++..+++++++++++++++
 72
    65
 73
     2
 40
40.0
 49
37.5
 49
-2.5
  0
LTYPE
  2
LONG4
 70
    64
  3
+++++++++++++++..+++++++++++++++
 72
    65
 73
     2
 40
80.0
 49
75.0
 49
-5.0
  0
LTYPE
  2
LONG5
 70
    64
  3
----------  --  ----------  --  
 72
    65
 73
     4
 40
60.0
 49
37.5
 49
-7.5
 49
7.5
 49
-7.5
  0
LTYPE
  2
dashed
 70
   64
  3
-------   -------------   ------
 72
   65
 73
    2
 40
7.5
 49
6
 49
-1.5
  0
LTYPE
  2
dashed_spaced
 70
   64
  3
----        --------        ----
 72
   65
 73
    2
 40
12
 49
6
 49
-6
  0
LTYPE
  2
long_dashed_dotted
 70
   64
  3
------------- --- --------------
 72
   65
 73
    4
 40
15.25
 49
12
 49
-1.5
 49
0.25
 49
-1.5
  0
LTYPE
  2
long_dashed_double-dotted
 70
   64
  3
----------- --- --- ------------
 72
   65
 73
    6
 40
17
 49
12
 49
-1.5
 49
0.25
 49
-1.5
 49
0.25
 49
-1.5
  0
LTYPE
  2
long_dashed_triplicate-dotted
 70
   64
  3
--------- --- --- --- ----------
 72
   65
 73
    8
 40
18.75
 49
12
 49
-1.5
 49
0.25
 49
-1.5
 49
0.25
 49
-1.5
 49
0.25
 49
-1.5
  0
LTYPE
  2
dotted
 70
   64
  3
   -       -       -       -    
 72
   65
 73
    2
 40
1.75
 49
0.25
 49
-1.5
  0
LTYPE
  2
chain
 70
   64
  3
-------------- -- --------------
 72
   65
 73
    4
 40
18.5
 49
12
 49
-1.5
 49
3.5
 49
-1.5
  0
LTYPE
  2
chain_double_dash
 70
   64
  3
------------ -- -- -------------
 72
   65
 73
    6
 40
23.5
 49
12
 49
-1.5
 49
3.5
 49
-1.5
 49
3.5
 49
-1.5
  0
LTYPE
  2
dashed_dotted
 70
   64
  3
-----------     -     ----------
 72
   65
 73
    4
 40
9.25
 49
6
 49
-1.5
 49
0.25
 49
-1.5
  0
LTYPE
  2
double-dashed_dotted
 70
   64
  3
------   -----------   -   -----
 72
   65
 73
    6
 40
16.75
 49
6
 49
-1.5
 49
6
 49
-1.5
 49
0.25
 49
-1.5
  0
LTYPE
  2
dashed_double-dotted
 70
   64
  3
---------    -    -    ---------
 72
   65
 73
    6
 40
11
 49
6
 49
-1.5
 49
0.25
 49
-1.5
 49
0.25
 49
-1.5
  0
LTYPE
  2
double-dashed_double-dotted
 70
   64
  3
-----   ---------   -   -   ----
 72
   65
 73
    8
 40
18.5
 49
6
 49
-1.5
 49
6
 49
-1.5
 49
0.25
 49
-1.5
 49
0.25
 49
-1.5
  0
LTYPE
  2
dashed_triplicate-dotted
 70
   64
  3
-------    -    -    -    ------
 72
   65
 73
    8
 40
12.75
 49
6
 49
-1.5
 49
0.25
 49
-1.5
 49
0.25
 49
-1.5
 49
0.25
 49
-1.5
  0
LTYPE
  2
double-dashed_triplicate-dotted
 70
   64
  3
-----  ---------  -  -  -  -----
 72
   65
 73
   10
 40
20.25
 49
6
 49
-1.5
 49
6
 49
-1.5
 49
0.25
 49
-1.5
 49
0.25
 49
-1.5
 49
0.25
 49
-1.5
  0
LTYPE
  2
undefined
 70
   64
  3
--------------------------------
 72
   65
 73
    0
 40
0
  0
LTYPE
  2
_
 70
   64
  3
                                
 72
   65
 73
    0
 40
0
  0
LTYPE
  2
__18
 70
   64
  3
                                
 72
   65
 73
    0
 40
0
  0
LTYPE
  2
__19
 70
   64
  3
                                
 72
   65
 73
    0
 40
0
  0
LTYPE
  2
__20
 70
   64
  3
                                
 72
   65
 73
    0
 40
0
  0
LTYPE
  2
__21
 70
   64
  3
                                
 72
   65
 73
    0
 40
0
  0
LTYPE
  2
__22
 70
   64
  3
                                
 72
   65
 73
    0
 40
0
  0
LTYPE
  2
__23
 70
   64
  3
                                
 72
   65
 73
    0
 40
0
  0
LTYPE
  2
__24
 70
   64
  3
                                
 72
   65
 73
    0
 40
0
  0
LTYPE
  2
__25
 70
   64
  3
                                
 72
   65
 73
    0
 40
0
  0
LTYPE
  2
__26
 70
   64
  3
                                
 72
   65
 73
    0
 40
0
  0
LTYPE
  2
__27
 70
   64
  3
                                
 72
   65
 73
    0
 40
0
  0
LTYPE
  2
__28
 70
   64
  3
                                
 72
   65
 73
    0
 40
0
  0
LTYPE
  2
__29
 70
   64
  3
                                
 72
   65
 73
    0
 40
0
  0
LTYPE
  2
__30
 70
   64
  3
                                
 72
   65
 73
    0
 40
0
  0
LTYPE
  2
__31
 70
   64
  3
                                
 72
   65
 73
    0
 40
0
  0
LTYPE
  2
__32
 70
   64
  3
                                
 72
   65
 73
    0
 40
0
  0
ENDTAB
  0
TABLE
  2
STYLE
  5
3
100
AcDbSymbolTable
 70
     1
  0
STYLE
  5
10
100
AcDbSymbolTableRecord
100
AcDbTextStyleTableRecord
  2
STANDARD
 70
     0
 40
0.0
 41
1.0
 50
0.0
 71
     0
 42
0.2
  3
txt
  4
bigfont.shx
  0
STYLE
  5
26
100
AcDbSymbolTableRecord
100
AcDbTextStyleTableRecord
  2
TATEGAKI
 70
    68
 40
0.0
 41
1.0
 50
0.0
 71
     0
 42
1.0
  3
txt
  4
bigfont.shx
  0
ENDTAB
  0
TABLE
  2
LAYER
 70
    2
  0
LAYER
  2
_0-0_
 70
   64
 62
    7
  6
CONTINUOUS
  0
LAYER
  2
ADD_LINE
 70
   64
 62
    7
  6
CONTINUOUS
  0
ENDTAB
  0
ENDSEC
  0
SECTION
  2
BLOCKS
  0
ENDSEC
  0
SECTION
  2
ENTITIES
  0
LINE
  8
_0-0_
  6
CONTINUOUS
 62
    7
 10
-57.489577327253926
 20
248.6635088518789
 11
-83.489577327253926
 21
248.6635088518789
  0
LINE
  8
_0-0_
  6
CONTINUOUS
 62
    7
 10
91.510414424751986
 20
108.66350885187885
 11
176.51041442475199
 21
108.66350885187885
  0
LINE
  8
_0-0_
  6
CONTINUOUS
 62
    7
 10
176.51041442475199
 20
76.663508851878845
 11
176.51041442475199
 21
256.66350885187887
  0
LINE
  8
_0-0_
  6
CONTINUOUS
 62
    7
 10
-83.489577327253926
 20
256.66350885187887
 11
-83.489577327253926
 21
76.663508851878845
  0
LINE
  8
_0-0_
  6
CONTINUOUS
 62
    7
 10
-83.489577327253926
 20
76.663508851878845
 11
176.51041442475199
 21
76.663508851878845
  0
LINE
  8
_0-0_
  6
CONTINUOUS
 62
    7
 10
176.51041442475199
 20
256.66350885187887
 11
-83.489577327253926
 21
256.66350885187887
  0
LINE
  8
_0-0_
  6
CONTINUOUS
 62
    7
 10
150.51041442475199
 20
76.663508851878845
 11
150.51041442475199
 21
84.663508851878845
  0
LINE
  8
_0-0_
  6
CONTINUOUS
 62
    7
 10
146.51041442475199
 20
89.663508851878845
 11
176.51041442475199
 21
89.663508851878845
  0
LINE
  8
_0-0_
  6
CONTINUOUS
 62
    7
 10
146.51041442475199
 20
92.663508851878845
 11
176.51041442475199
 21
92.663508851878845
  0
LINE
  8
_0-0_
  6
CONTINUOUS
 62
    7
 10
146.51041442475199
 20
100.66350885187885
 11
176.51041442475199
 21
100.66350885187885
  0
LINE
  8
_0-0_
  6
CONTINUOUS
 62
    7
 10
146.51041442475199
 20
97.663508851878845
 11
176.51041442475199
 21
97.663508851878845
  0
LINE
  8
_0-0_
  6
CONTINUOUS
 62
    7
 10
146.51041442475199
 20
105.66350885187885
 11
176.51041442475199
 21
105.66350885187885
  0
LINE
  8
_0-0_
  6
CONTINUOUS
 62
    7
 10
156.51041442475199
 20
84.663508851878845
 11
156.51041442475199
 21
92.663508851878845
  0
LINE
  8
_0-0_
  6
CONTINUOUS
 62
    7
 10
166.51041442475199
 20
84.663508851878845
 11
166.51041442475199
 21
92.663508851878845
  0
LINE
  8
_0-0_
  6
CONTINUOUS
 62
    7
 10
91.510414424751986
 20
84.663508851878845
 11
176.51041442475199
 21
84.663508851878845
  0
LINE
  8
_0-0_
  6
CONTINUOUS
 62
    7
 10
96.510414424751986
 20
84.663508851878845
 11
96.510414424751986
 21
108.66350885187885
  0
LINE
  8
_0-0_
  6
CONTINUOUS
 62
    7
 10
-57.489577327253926
 20
256.66350885187887
 11
-57.489577327253926
 21
248.6635088518789
  0
LINE
  8
_0-0_
  6
CONTINUOUS
 62
    7
 10
91.510414424751986
 20
96.663508851878845
 11
146.51041442475199
 21
96.663508851878845
  0
LINE
  8
_0-0_
  6
CONTINUOUS
 62
    7
 10
91.510414424751986
 20
113.66350885187885
 11
176.51041442475199
 21
113.66350885187885
  0
LINE
  8
_0-0_
  6
CONTINUOUS
 62
    7
 10
166.51041442475199
 20
108.66350885187885
 11
166.51041442475199
 21
118.66350885187885
  0
LINE
  8
_0-0_
  6
CONTINUOUS
 62
    7
 10
146.51041442475199
 20
76.663508851878845
 11
146.51041442475199
 21
118.66350885187885
  0
LINE
  8
_0-0_
  6
CONTINUOUS
 62
    7
 10
101.51041442475199
 20
108.66350885187885
 11
101.51041442475199
 21
118.66350885187885
  0
LINE
  8
_0-0_
  6
CONTINUOUS
 62
    7
 10
91.510414424751986
 20
118.66350885187885
 11
176.51041442475199
 21
118.66350885187885
  0
LINE
  8
_0-0_
  6
CONTINUOUS
 62
    7
 10
91.510414424751986
 20
76.663508851878845
 11
91.510414424751986
 21
118.66350885187885
  0
TEXT
  8
_0-0_
 62
    7
 10
94.010414424751986
 20
93.913508851878845
 40
3
 41
1
 50
0
  1
品名
  7
TATEGAKI
  0
TEXT
  8
_0-0_
 62
    7
 10
94.010414424751986
 20
107.66350885187885
 40
3
 41
1
 50
0
  1
機械名
  7
TATEGAKI
  0
TEXT
  8
_0-0_
 62
    7
 10
148.51041442475199
 20
83.163508851878845
 40
2.5
 41
1
 50
0
  1
図番
  7
TATEGAKI
  0
TEXT
  8
_0-0_
 62
    7
 10
149.01041442475199
 20
89.913508851878845
 40
2.5
 41
1
 50
0
  1
設計
  0
TEXT
  8
_0-0_
 62
    7
 10
159.01041442475199
 20
89.913508851878845
 40
2.5
 41
1
 50
0
  1
製図
  0
TEXT
  8
_0-0_
 62
    7
 10
169.01041442475199
 20
89.913508851878845
 40
2.5
 41
1
 50
0
  1
検図
  0
TEXT
  8
_0-0_
 62
    7
 10
155.26041442475199
 20
105.91350885187885
 40
2.5
 41
1
 50
0
  1
図面作成日
  0
TEXT
  8
_0-0_
 62
    7
 10
151.51041442475199
 20
109.66350885187885
 40
3
 41
1
 50
0
  1
材　料
  0
TEXT
  8
_0-0_
 62
    7
 10
106.76041442475199
 20
109.66350885187885
 40
3
 41
1
 50
0
  1
名　　　　　　　　称
  0
TEXT
  8
_0-0_
 62
    7
 10
93.260414424751986
 20
109.66350885187885
 40
3
 41
1
 50
0
  1
番号
  0
TEXT
  8
_0-0_
 62
    7
 10
157.13541442475199
 20
93.163508851878845
 40
4
 41
1
 50
0
  1
1：1
  0
TEXT
  8
_0-0_
 62
    7
 10
110.6592069156568
 20
78.749808339826899
 40
4
 41
1
 50
0
  1
科研費研究
  0
TEXT
  8
_0-0_
 62
    7
 10
158.38425999421307
 20
85.732823201822654
 40
3
 41
1
 50
0
  1
牧山
  0
TEXT
  8
_0-0_
 62
    7
 10
148.38850627871412
 20
85.826241460846006
 40
3
 41
1
 50
0
  1
牧山
  0
TEXT
  8
_0-0_
 62
    7
 10
158.68057103455274
 20
97.961857172098647
 40
2.5
 41
1
 50
0
  1
尺度
  0
TEXT
  8
_0-0_
 62
    7
 10
168.34936084346995
 20
109.87268519757635
 40
3
 41
1
 50
0
  1
個数
  0
TEXT
  8
_0-0_
 62
    7
 10
170.45127167149539
 20
114.63701640776745
 40
3
 41
1
 50
0
  1
1
  0
TEXT
  8
_0-0_
 62
    7
 10
154.50955414012739
 20
114.76433121019107
 40
3
 41
1
 50
0
  1
MDF
  0
TEXT
  8
_0-0_
 62
    7
 10
169.328025477707
 20
85.757961783439498
 40
3
 41
1
 50
0
  1
森
  0
TEXT
  8
_0-0_
 62
    7
 10
113.38654458598717
 20
89.107882165605105
 40
4
 41
1
 50
0
  1
基盤部
  0
TEXT
  8
_0-0_
 62
    7
 10
-68.923566878980921
 20
254.88296178343953
 40
4
 41
1
 50
180
  1
04
  0
TEXT
  8
_0-0_
 62
    7
 10
95.235668789808855
 20
114.89570063694271
 40
3
 41
1
 50
0
  1
4
  0
TEXT
  8
_0-0_
 62
    7
 10
-74.282178055621046
 20
237.25320273387325
 40
4
 41
1
 50
0
  1
t=3
  0
TEXT
  8
_0-0_
 62
    7
 10
150.7509288747346
 20
101.09753184713375
 40
4
 41
1
 50
0
  1
2019/10/24
  0
TEXT
  8
_0-0_
 62
    7
 10
114.86128803963199
 20
114.72929936305732
 40
3
 41
1
 50
0
  1
MDF底面
  0
TEXT
  8
_0-0_
 62
    7
 10
159.69864649681529
 20
78.519506369426708
 40
4
 41
1
 50
0
  1
04
  0
TEXT
  8
_0-0_
 62
    7
 10
100.56780785562628
 20
101.1865711252654
 40
4
 41
1
 50
0
  1
楕円コンパス(直交型)
  0
CIRCLE
  8
_0-0_
  6
CONTINUOUS
 62
    7
 10
44.21139967356234
 20
172.70017213697446
 40
50
  0
LINE
  8
_0-0_
  6
CONTINUOUS
 62
    7
 10
49.21139967356234
 20
177.70017213697446
 11
52.788959908440773
 21
177.70017213697446
  0
LINE
  8
_0-0_
  6
CONTINUOUS
 62
    7
 10
49.21139967356234
 20
167.70017213697446
 11
51.667940800160551
 21
167.70017213697446
  0
LINE
  8
_0-0_
  6
CONTINUOUS
 62
    7
 10
90.623354812899407
 20
167.70017213697446
 11
93.942500540293651
 21
167.70017213697446
  0
LINE
  8
_0-0_
  6
CONTINUOUS
 62
    7
 10
49.21139967356234
 20
177.70017213697446
 11
49.21139967356234
 21
180.88926731050273
  0
LINE
  8
_0-0_
  6
CONTINUOUS
 62
    7
 10
49.21139967356234
 20
221.24595520859191
 11
49.21139967356234
 21
222.44171888542144
  0
LINE
  8
_0-0_
  6
CONTINUOUS
 62
    7
 10
39.21139967356234
 20
177.70017213697446
 11
39.21139967356234
 21
180.88926731050273
  0
LINE
  8
_0-0_
  6
CONTINUOUS
 62
    7
 10
39.21139967356234
 20
221.52620998566198
 11
39.21139967356234
 21
222.4391239337819
  0
LINE
  8
_0-0_
  6
CONTINUOUS
 62
    7
 10
91.74437392117963
 20
177.70017213697446
 11
93.935580669254847
 21
177.70017213697446
  0
LINE
  8
_0-0_
  6
CONTINUOUS
 62
    7
 10
49.21139967356234
 20
167.70017213697446
 11
49.21139967356234
 21
164.21410807483394
  0
LINE
  8
_0-0_
  6
CONTINUOUS
 62
    7
 10
49.21139967356234
 20
125.11856667356008
 11
49.21139967356234
 21
122.98431060429294
  0
LINE
  8
_0-0_
  6
CONTINUOUS
 62
    7
 10
39.21139967356234
 20
167.70017213697446
 11
39.21139967356234
 21
164.91474501750912
  0
LINE
  8
_0-0_
  6
CONTINUOUS
 62
    7
 10
39.21139967356234
 20
125.39882145063014
 11
39.21139967356234
 21
122.95450069687826
  0
LINE
  8
_0-0_
  6
CONTINUOUS
 62
    7
 10
39.21139967356234
 20
177.70017213697446
 11
35.89485162818599
 21
177.70017213697446
  0
LINE
  8
_0-0_
  6
CONTINUOUS
 62
    7
 10
-2.7803076074828255
 20
177.70017213697446
 11
-5.5124809805052735
 21
177.70017213697446
  0
LINE
  8
_0-0_
  6
CONTINUOUS
 62
    7
 10
39.21139967356234
 20
167.70017213697446
 11
36.525424876593576
 21
167.70017213697446
  0
LINE
  8
_0-0_
  6
CONTINUOUS
 62
    7
 10
-3.2006897730879302
 20
167.70017213697446
 11
-5.5263207225827955
 21
167.70017213697446
  0
LINE
  8
_0-0_
  6
CONTINUOUS
 62
    4
 10
8.8560606142349627
 20
137.34483307764708
 11
79.566738732889718
 21
208.05551119630184
  0
TEXT
  8
_0-0_
 62
    4
 10
82.218389162339278
 20
211.41426840693794
 40
2.5
 41
1
 50
45.00000000000005
  1
φ100
  0
LINE
  8
_0-0_
  6
CONTINUOUS
 62
    4
 10
79.566738732889718
 20
208.05551119630184
 11
86.991359935348484
 21
215.48013239876059
  0
LINE
  8
_0-0_
  6
CONTINUOUS
 62
    4
 10
5.320526708302225
 20
133.80929917171434
 11
8.8560606142349627
 21
137.34483307764708
  0
LINE
  8
_0-0_
  6
CONTINUOUS
 62
    4
 10
8.8560606142349627
 20
137.34483307764708
 11
7.3560606142349627
 21
134.74675686629377
  0
LINE
  8
_0-0_
  6
CONTINUOUS
 62
    4
 10
8.8560606142349627
 20
137.34483307764708
 11
6.2579844028816467
 21
135.84483307764708
  0
LINE
  8
_0-0_
  6
CONTINUOUS
 62
    4
 10
79.566738732889718
 20
208.05551119630184
 11
81.066738732889718
 21
210.65358740765515
  0
LINE
  8
_0-0_
  6
CONTINUOUS
 62
    4
 10
79.566738732889718
 20
208.05551119630184
 11
82.164814944243034
 21
209.55551119630184
  0
LINE
  8
_0-0_
  6
DASHED2
 62
    7
 10
44.21139967356234
 20
172.70017213697446
 11
109.97130440551979
 21
172.70017213697446
  0
LINE
  8
_0-0_
  6
DASHED2
 62
    7
 10
44.21139967356234
 20
172.70017213697446
 11
-23.710224256900574
 21
172.70017213697446
  0
LINE
  8
_0-0_
  6
DASHED2
 62
    7
 10
44.21139967356234
 20
172.70017213697446
 11
44.21139967356234
 21
239.11571125265394
  0
LINE
  8
_0-0_
  6
DASHED2
 62
    7
 10
44.21139967356234
 20
172.70017213697446
 11
44.21139967356234
 21
111.73991507431001
  0
LINE
  8
_0-0_
  6
DASHED2
 62
    7
 10
93.942500540293651
 20
167.70017213697446
 11
110.10267383227136
 21
167.70017213697446
  0
LINE
  8
_0-0_
  6
DASHED2
 62
    7
 10
93.935580669254847
 20
177.70017213697446
 11
110.52305599787645
 21
177.70017213697446
  0
LINE
  8
_0-0_
  6
DASHED2
 62
    7
 10
39.21139967356234
 20
122.95450069687826
 11
39.21139967356234
 21
112.05520169851381
  0
LINE
  8
_0-0_
  6
DASHED2
 62
    7
 10
49.21139967356234
 20
122.98431060429294
 11
49.21139967356234
 21
111.84501061571126
  0
LINE
  8
_0-0_
  6
DASHED2
 62
    7
 10
-5.5263207225827955
 20
167.70017213697446
 11
-23.578854830148998
 21
167.70017213697446
  0
LINE
  8
_0-0_
  6
DASHED2
 62
    7
 10
-5.5124809805052735
 20
177.70017213697446
 11
-23.36866374734646
 21
177.70017213697446
  0
LINE
  8
_0-0_
  6
DASHED2
 62
    7
 10
39.21139967356234
 20
222.4391239337819
 11
39.21139967356234
 21
239.43099787685776
  0
LINE
  8
_0-0_
  6
DASHED2
 62
    7
 10
49.21139967356234
 20
222.44171888542144
 11
49.21139967356234
 21
239.01061571125265
  0
LINE
  8
_0-0_
  6
CONTINUOUS
 62
    4
 10
39.21139967356234
 20
234.38641188959662
 11
34.21139967356234
 21
234.38641188959662
  0
LINE
  8
_0-0_
  6
CONTINUOUS
 62
    4
 10
49.21139967356234
 20
234.38641188959662
 11
54.21139967356234
 21
234.38641188959662
  0
LINE
  8
_0-0_
  6
CONTINUOUS
 62
    4
 10
39.21139967356234
 20
234.38641188959662
 11
36.313622194695142
 21
233.60995475428905
  0
LINE
  8
_0-0_
  6
CONTINUOUS
 62
    4
 10
39.21139967356234
 20
234.38641188959662
 11
36.313622194695142
 21
235.16286902490418
  0
LINE
  8
_0-0_
  6
CONTINUOUS
 62
    4
 10
49.21139967356234
 20
234.38641188959662
 11
52.109177152429538
 21
235.16286902490418
  0
LINE
  8
_0-0_
  6
CONTINUOUS
 62
    4
 10
49.21139967356234
 20
234.38641188959662
 11
52.109177152429538
 21
233.60995475428905
  0
LINE
  8
_0-0_
  6
CONTINUOUS
 62
    4
 10
39.21139967356234
 20
234.38641188959662
 11
49.21139967356234
 21
234.38641188959662
  0
TEXT
  8
_0-0_
 62
    4
 10
42.96139967356234
 20
234.88641188959662
 40
2.5
 41
1
 50
0
  1
10
  0
LINE
  8
_0-0_
  6
CONTINUOUS
 62
    4
 10
-16.432358014862388
 20
177.70017213697446
 11
-17.208815150169954
 21
180.59794961584166
  0
LINE
  8
_0-0_
  6
CONTINUOUS
 62
    4
 10
-16.432358014862388
 20
177.70017213697446
 11
-15.655900879554821
 21
180.59794961584166
  0
LINE
  8
_0-0_
  6
CONTINUOUS
 62
    4
 10
-16.432358014862388
 20
167.70017213697446
 11
-15.655900879554821
 21
164.80239465810726
  0
LINE
  8
_0-0_
  6
CONTINUOUS
 62
    4
 10
-16.432358014862388
 20
167.70017213697446
 11
-17.208815150169954
 21
164.80239465810726
  0
LINE
  8
_0-0_
  6
CONTINUOUS
 62
    4
 10
-16.432358014862388
 20
177.70017213697446
 11
-16.432358014862388
 21
167.70017213697446
  0
TEXT
  8
_0-0_
 62
    4
 10
-16.932358014862388
 20
171.45017213697446
 40
2.5
 41
1
 50
90
  1
10
  0
LINE
  8
_0-0_
  6
CONTINUOUS
 62
    4
 10
102.53579485137965
 20
177.70017213697446
 11
101.75933771607208
 21
180.59794961584166
  0
LINE
  8
_0-0_
  6
CONTINUOUS
 62
    4
 10
102.53579485137965
 20
177.70017213697446
 11
103.31225198668722
 21
180.59794961584166
  0
LINE
  8
_0-0_
  6
CONTINUOUS
 62
    4
 10
102.53579485137965
 20
167.70017213697446
 11
103.31225198668722
 21
164.80239465810726
  0
LINE
  8
_0-0_
  6
CONTINUOUS
 62
    4
 10
102.53579485137965
 20
167.70017213697446
 11
101.75933771607208
 21
164.80239465810726
  0
LINE
  8
_0-0_
  6
CONTINUOUS
 62
    4
 10
102.53579485137965
 20
177.70017213697446
 11
102.53579485137965
 21
167.70017213697446
  0
TEXT
  8
_0-0_
 62
    4
 10
102.03579485137965
 20
171.45017213697446
 40
2.5
 41
1
 50
90
  1
10
  0
LINE
  8
_0-0_
  6
CONTINUOUS
 62
    4
 10
39.21139967356234
 20
115.41825902335458
 11
34.21139967356234
 21
115.41825902335458
  0
LINE
  8
_0-0_
  6
CONTINUOUS
 62
    4
 10
49.21139967356234
 20
115.41825902335458
 11
54.21139967356234
 21
115.41825902335458
  0
LINE
  8
_0-0_
  6
CONTINUOUS
 62
    4
 10
39.21139967356234
 20
115.41825902335458
 11
36.313622194695142
 21
114.64180188804701
  0
LINE
  8
_0-0_
  6
CONTINUOUS
 62
    4
 10
39.21139967356234
 20
115.41825902335458
 11
36.313622194695142
 21
116.19471615866215
  0
LINE
  8
_0-0_
  6
CONTINUOUS
 62
    4
 10
49.21139967356234
 20
115.41825902335458
 11
52.109177152429538
 21
116.19471615866215
  0
LINE
  8
_0-0_
  6
CONTINUOUS
 62
    4
 10
49.21139967356234
 20
115.41825902335458
 11
52.109177152429538
 21
114.64180188804701
  0
LINE
  8
_0-0_
  6
CONTINUOUS
 62
    4
 10
39.21139967356234
 20
115.41825902335458
 11
49.21139967356234
 21
115.41825902335458
  0
TEXT
  8
_0-0_
 62
    4
 10
42.96139967356234
 20
115.91825902335458
 40
2.5
 41
1
 50
0
  1
10
  0
TEXT
  8
_0-0_
 62
    7
 10
95.038979564755451
 20
132.86411889596604
 40
4
 41
1
 50
0
  1
4箇所目印
  0
LINE
  8
_0-0_
  6
CONTINUOUS
 62
    7
 10
117.03897956475544
 20
132.44373673036094
 11
93.077196125265004
 21
132.44373673036094
  0
LINE
  8
_0-0_
  6
CONTINUOUS
 62
    7
 10
93.077196125265004
 20
132.44373673036094
 11
51.179106953290471
 21
163.41188959660298
  0
LINE
  8
_0-0_
  6
CONTINUOUS
 62
    7
 10
51.179106953290471
 20
163.41188959660298
 11
53.970949645615462
 21
162.31388486923998
  0
LINE
  8
_0-0_
  6
CONTINUOUS
 62
    7
 10
51.179106953290471
 20
163.41188959660298
 11
53.047911284532375
 21
161.06506826306872
  0
LINE
  8
_0-0_
  6
DASHED2
 62
    7
 10
39.21139967356234
 20
125.39882145063014
 11
39.21139967356234
 21
164.91474501750912
  0
LINE
  8
_0-0_
  6
DASHED2
 62
    7
 10
49.21139967356234
 20
164.21410807483394
 11
49.21139967356234
 21
122.98431060429294
  0
LINE
  8
_0-0_
  6
DASHED2
 62
    7
 10
51.667940800160551
 20
167.70017213697446
 11
93.935580669254847
 21
167.70017213697446
  0
LINE
  8
_0-0_
  6
DASHED2
 62
    7
 10
91.74437392117963
 20
177.70017213697446
 11
52.788959908440773
 21
177.70017213697446
  0
LINE
  8
_0-0_
  6
DASHED2
 62
    7
 10
49.21139967356234
 20
180.88926731050273
 11
49.21139967356234
 21
221.24595520859191
  0
LINE
  8
_0-0_
  6
DASHED2
 62
    7
 10
39.21139967356234
 20
221.52620998566198
 11
39.21139967356234
 21
180.88926731050273
  0
LINE
  8
_0-0_
  6
DASHED2
 62
    7
 10
35.89485162818599
 20
177.70017213697446
 11
-3.2006897730879302
 21
177.70017213697446
  0
LINE
  8
_0-0_
  6
DASHED2
 62
    7
 10
-3.2006897730879302
 20
167.70017213697446
 11
36.525424876593576
 21
167.70017213697446
  0
ENDSEC
  0
EOF
