  0
SECTION
  2
HEADER
  9
$ACADVER
  1
AC1009
  9
$INSBASE
 10
0
 20
0
 30
0
  9
$EXTMIN
 10
0
 20
0
  9
$EXTMAX
 10
420
 20
297
  9
$LIMMIN
 10
0
 20
0
  9
$LIMMAX
 10
420
 20
297
  9
$LTSCALE
 40
1
  0
ENDSEC
  0
SECTION
  2
TABLES
  0
TABLE
  2
LTYPE
 70
     9
  0
LTYPE
  2
CONTINUOUS
 70
    64
  3
実線
 72
    65
 73
     0
 40
0.0
  0
LTYPE
  2
DASHED1
 70
    64
  3
--  --  --  --  --  --  --  --  
 72
    65
 73
     2
 40
2.5
 49
1.25
 49
-1.25
  0
LTYPE
  2
DASHED2
 70
    64
  3
----    ----    ----    ----    
 72
    65
 73
     2
 40
5.0
 49
2.5
 49
-2.5
  0
LTYPE
  2
DASHED3
 70
    64
  3
------  ------  ------  ------  
 72
    65
 73
     2
 40
5.0
 49
3.75
 49
-1.25
  0
LTYPE
  2
CENTER1
 70
    64
  3
----- - ----- - ----- - ----- - 
 72
    65
 73
     4
 40
10.0
 49
6.25
 49
-1.25
 49
1.25
 49
-1.25
  0
LTYPE
  2
CENTER2
 70
    64
  3
----------  --  ----------  --  
 72
    65
 73
     4
 40
20.0
 49
12.5
 49
-2.5
 49
2.5
 49
-2.5
  0
LTYPE
  2
PHANTOM1
 70
    64
  3
--- - - --- - - --- - - --- - - 
 72
    65
 73
     6
 40
10.0
 49
3.25
 49
-1.25
 49
1.25
 49
-1.25
 49
1.25
 49
-1.25
  0
LTYPE
  2
PHANTOM2
 70
    64
  3
--------  -  -  --------  -  -  
 72
    65
 73
     6
 40
20.0
 49
10.0
 49
-2.5
 49
1.25
 49
-2.5
 49
1.25
 49
-2.5
  0
LTYPE
  2
DOT
 70
    64
  3
-   -   -   -   -   -   -   -   
 72
    65
 73
     2
 40
2.5
 49
0.625
 49
-1.875
  0
LTYPE
  2
DUMMY
 70
    64
  3
ダミー
 72
    65
 73
     0
 40
0.0
  0
LTYPE
  2
RAND1
 70
    64
  3
ランダム線1
 72
    65
 73
     4
 40
10.0
 49
1.0
 49
-2.0
 49
3.0
 49
-4.0
  0
LTYPE
  2
RAND2
 70
    64
  3
ランダム線2
 72
    65
 73
     4
 40
14.0
 49
2.0
 49
-3.0
 49
4.0
 49
-5.0
  0
LTYPE
  2
RAND3
 70
    64
  3
ランダム線3
 72
    65
 73
     4
 40
18.0
 49
3.0
 49
-4.0
 49
5.0
 49
-6.0
  0
LTYPE
  2
RAND4
 70
    64
  3
ランダム線4
 72
    65
 73
     4
 40
22.0
 49
4.0
 49
-5.0
 49
6.0
 49
-7.0
  0
LTYPE
  2
RAND5
 70
    64
  3
ランダム線5
 72
    65
 73
     4
 40
26.0
 49
5.0
 49
-6.0
 49
7.0
 49
-8.0
  0
LTYPE
  2
LONG1
 70
    64
  3
----------  --  ----------  --  
 72
    65
 73
     4
 40
40.0
 49
32.5
 49
-2.5
 49
2.5
 49
-2.5
  0
LTYPE
  2
LONG2
 70
    64
  3
--------  -  -  --------  -  -  
 72
    65
 73
     6
 40
40.0
 49
30.0
 49
-2.5
 49
1.25
 49
-2.5
 49
1.25
 49
-2.5
  0
LTYPE
  2
LONG3
 70
    64
  3
+++++++++++++++..+++++++++++++++
 72
    65
 73
     2
 40
40.0
 49
37.5
 49
-2.5
  0
LTYPE
  2
LONG4
 70
    64
  3
+++++++++++++++..+++++++++++++++
 72
    65
 73
     2
 40
80.0
 49
75.0
 49
-5.0
  0
LTYPE
  2
LONG5
 70
    64
  3
----------  --  ----------  --  
 72
    65
 73
     4
 40
60.0
 49
37.5
 49
-7.5
 49
7.5
 49
-7.5
  0
LTYPE
  2
dashed
 70
   64
  3
-------   -------------   ------
 72
   65
 73
    2
 40
7.5
 49
6
 49
-1.5
  0
LTYPE
  2
dashed_spaced
 70
   64
  3
----        --------        ----
 72
   65
 73
    2
 40
12
 49
6
 49
-6
  0
LTYPE
  2
long_dashed_dotted
 70
   64
  3
------------- --- --------------
 72
   65
 73
    4
 40
15.25
 49
12
 49
-1.5
 49
0.25
 49
-1.5
  0
LTYPE
  2
long_dashed_double-dotted
 70
   64
  3
----------- --- --- ------------
 72
   65
 73
    6
 40
17
 49
12
 49
-1.5
 49
0.25
 49
-1.5
 49
0.25
 49
-1.5
  0
LTYPE
  2
long_dashed_triplicate-dotted
 70
   64
  3
--------- --- --- --- ----------
 72
   65
 73
    8
 40
18.75
 49
12
 49
-1.5
 49
0.25
 49
-1.5
 49
0.25
 49
-1.5
 49
0.25
 49
-1.5
  0
LTYPE
  2
dotted
 70
   64
  3
   -       -       -       -    
 72
   65
 73
    2
 40
1.75
 49
0.25
 49
-1.5
  0
LTYPE
  2
chain
 70
   64
  3
-------------- -- --------------
 72
   65
 73
    4
 40
18.5
 49
12
 49
-1.5
 49
3.5
 49
-1.5
  0
LTYPE
  2
chain_double_dash
 70
   64
  3
------------ -- -- -------------
 72
   65
 73
    6
 40
23.5
 49
12
 49
-1.5
 49
3.5
 49
-1.5
 49
3.5
 49
-1.5
  0
LTYPE
  2
dashed_dotted
 70
   64
  3
-----------     -     ----------
 72
   65
 73
    4
 40
9.25
 49
6
 49
-1.5
 49
0.25
 49
-1.5
  0
LTYPE
  2
double-dashed_dotted
 70
   64
  3
------   -----------   -   -----
 72
   65
 73
    6
 40
16.75
 49
6
 49
-1.5
 49
6
 49
-1.5
 49
0.25
 49
-1.5
  0
LTYPE
  2
dashed_double-dotted
 70
   64
  3
---------    -    -    ---------
 72
   65
 73
    6
 40
11
 49
6
 49
-1.5
 49
0.25
 49
-1.5
 49
0.25
 49
-1.5
  0
LTYPE
  2
double-dashed_double-dotted
 70
   64
  3
-----   ---------   -   -   ----
 72
   65
 73
    8
 40
18.5
 49
6
 49
-1.5
 49
6
 49
-1.5
 49
0.25
 49
-1.5
 49
0.25
 49
-1.5
  0
LTYPE
  2
dashed_triplicate-dotted
 70
   64
  3
-------    -    -    -    ------
 72
   65
 73
    8
 40
12.75
 49
6
 49
-1.5
 49
0.25
 49
-1.5
 49
0.25
 49
-1.5
 49
0.25
 49
-1.5
  0
LTYPE
  2
double-dashed_triplicate-dotted
 70
   64
  3
-----  ---------  -  -  -  -----
 72
   65
 73
   10
 40
20.25
 49
6
 49
-1.5
 49
6
 49
-1.5
 49
0.25
 49
-1.5
 49
0.25
 49
-1.5
 49
0.25
 49
-1.5
  0
LTYPE
  2
undefined
 70
   64
  3
--------------------------------
 72
   65
 73
    0
 40
0
  0
LTYPE
  2
_
 70
   64
  3
                                
 72
   65
 73
    0
 40
0
  0
LTYPE
  2
__18
 70
   64
  3
                                
 72
   65
 73
    0
 40
0
  0
LTYPE
  2
__19
 70
   64
  3
                                
 72
   65
 73
    0
 40
0
  0
LTYPE
  2
__20
 70
   64
  3
                                
 72
   65
 73
    0
 40
0
  0
LTYPE
  2
__21
 70
   64
  3
                                
 72
   65
 73
    0
 40
0
  0
LTYPE
  2
__22
 70
   64
  3
                                
 72
   65
 73
    0
 40
0
  0
LTYPE
  2
__23
 70
   64
  3
                                
 72
   65
 73
    0
 40
0
  0
LTYPE
  2
__24
 70
   64
  3
                                
 72
   65
 73
    0
 40
0
  0
LTYPE
  2
__25
 70
   64
  3
                                
 72
   65
 73
    0
 40
0
  0
LTYPE
  2
__26
 70
   64
  3
                                
 72
   65
 73
    0
 40
0
  0
LTYPE
  2
__27
 70
   64
  3
                                
 72
   65
 73
    0
 40
0
  0
LTYPE
  2
__28
 70
   64
  3
                                
 72
   65
 73
    0
 40
0
  0
LTYPE
  2
__29
 70
   64
  3
                                
 72
   65
 73
    0
 40
0
  0
LTYPE
  2
__30
 70
   64
  3
                                
 72
   65
 73
    0
 40
0
  0
LTYPE
  2
__31
 70
   64
  3
                                
 72
   65
 73
    0
 40
0
  0
LTYPE
  2
__32
 70
   64
  3
                                
 72
   65
 73
    0
 40
0
  0
ENDTAB
  0
TABLE
  2
STYLE
  5
3
100
AcDbSymbolTable
 70
     1
  0
STYLE
  5
10
100
AcDbSymbolTableRecord
100
AcDbTextStyleTableRecord
  2
STANDARD
 70
     0
 40
0.0
 41
1.0
 50
0.0
 71
     0
 42
0.2
  3
txt
  4
bigfont.shx
  0
STYLE
  5
26
100
AcDbSymbolTableRecord
100
AcDbTextStyleTableRecord
  2
TATEGAKI
 70
    68
 40
0.0
 41
1.0
 50
0.0
 71
     0
 42
1.0
  3
txt
  4
bigfont.shx
  0
ENDTAB
  0
TABLE
  2
LAYER
 70
    2
  0
LAYER
  2
_0-0_
 70
   64
 62
    7
  6
CONTINUOUS
  0
LAYER
  2
ADD_LINE
 70
   64
 62
    7
  6
CONTINUOUS
  0
ENDTAB
  0
ENDSEC
  0
SECTION
  2
BLOCKS
  0
ENDSEC
  0
SECTION
  2
ENTITIES
  0
LINE
  8
_0-0_
  6
CONTINUOUS
 62
    7
 10
-57.489577327253926
 20
248.6635088518789
 11
-83.489577327253926
 21
248.6635088518789
  0
LINE
  8
_0-0_
  6
CONTINUOUS
 62
    7
 10
91.510414424751986
 20
108.66350885187885
 11
176.51041442475199
 21
108.66350885187885
  0
LINE
  8
_0-0_
  6
CONTINUOUS
 62
    7
 10
176.51041442475199
 20
76.663508851878845
 11
176.51041442475199
 21
256.66350885187887
  0
LINE
  8
_0-0_
  6
CONTINUOUS
 62
    7
 10
-83.489577327253926
 20
256.66350885187887
 11
-83.489577327253926
 21
76.663508851878845
  0
LINE
  8
_0-0_
  6
CONTINUOUS
 62
    7
 10
-83.489577327253926
 20
76.663508851878845
 11
176.51041442475199
 21
76.663508851878845
  0
LINE
  8
_0-0_
  6
CONTINUOUS
 62
    7
 10
176.51041442475199
 20
256.66350885187887
 11
-83.489577327253926
 21
256.66350885187887
  0
LINE
  8
_0-0_
  6
CONTINUOUS
 62
    7
 10
150.51041442475199
 20
76.663508851878845
 11
150.51041442475199
 21
84.663508851878845
  0
LINE
  8
_0-0_
  6
CONTINUOUS
 62
    7
 10
146.51041442475199
 20
89.663508851878845
 11
176.51041442475199
 21
89.663508851878845
  0
LINE
  8
_0-0_
  6
CONTINUOUS
 62
    7
 10
146.51041442475199
 20
92.663508851878845
 11
176.51041442475199
 21
92.663508851878845
  0
LINE
  8
_0-0_
  6
CONTINUOUS
 62
    7
 10
146.51041442475199
 20
100.66350885187885
 11
176.51041442475199
 21
100.66350885187885
  0
LINE
  8
_0-0_
  6
CONTINUOUS
 62
    7
 10
146.51041442475199
 20
97.663508851878845
 11
176.51041442475199
 21
97.663508851878845
  0
LINE
  8
_0-0_
  6
CONTINUOUS
 62
    7
 10
146.51041442475199
 20
105.66350885187885
 11
176.51041442475199
 21
105.66350885187885
  0
LINE
  8
_0-0_
  6
CONTINUOUS
 62
    7
 10
156.51041442475199
 20
84.663508851878845
 11
156.51041442475199
 21
92.663508851878845
  0
LINE
  8
_0-0_
  6
CONTINUOUS
 62
    7
 10
166.51041442475199
 20
84.663508851878845
 11
166.51041442475199
 21
92.663508851878845
  0
LINE
  8
_0-0_
  6
CONTINUOUS
 62
    7
 10
91.510414424751986
 20
84.663508851878845
 11
176.51041442475199
 21
84.663508851878845
  0
LINE
  8
_0-0_
  6
CONTINUOUS
 62
    7
 10
96.510414424751986
 20
84.663508851878845
 11
96.510414424751986
 21
108.66350885187885
  0
LINE
  8
_0-0_
  6
CONTINUOUS
 62
    7
 10
-57.489577327253926
 20
256.66350885187887
 11
-57.489577327253926
 21
248.6635088518789
  0
LINE
  8
_0-0_
  6
CONTINUOUS
 62
    7
 10
91.510414424751986
 20
96.663508851878845
 11
146.51041442475199
 21
96.663508851878845
  0
LINE
  8
_0-0_
  6
CONTINUOUS
 62
    7
 10
91.510414424751986
 20
113.66350885187885
 11
176.51041442475199
 21
113.66350885187885
  0
LINE
  8
_0-0_
  6
CONTINUOUS
 62
    7
 10
166.51041442475199
 20
108.66350885187885
 11
166.51041442475199
 21
118.66350885187885
  0
LINE
  8
_0-0_
  6
CONTINUOUS
 62
    7
 10
146.51041442475199
 20
76.663508851878845
 11
146.51041442475199
 21
118.66350885187885
  0
LINE
  8
_0-0_
  6
CONTINUOUS
 62
    7
 10
101.51041442475199
 20
108.66350885187885
 11
101.51041442475199
 21
118.66350885187885
  0
LINE
  8
_0-0_
  6
CONTINUOUS
 62
    7
 10
91.510414424751986
 20
118.66350885187885
 11
176.51041442475199
 21
118.66350885187885
  0
LINE
  8
_0-0_
  6
CONTINUOUS
 62
    7
 10
91.510414424751986
 20
76.663508851878845
 11
91.510414424751986
 21
118.66350885187885
  0
TEXT
  8
_0-0_
 62
    7
 10
94.010414424751986
 20
93.913508851878845
 40
3
 41
1
 50
0
  1
品名
  7
TATEGAKI
  0
TEXT
  8
_0-0_
 62
    7
 10
94.010414424751986
 20
107.66350885187885
 40
3
 41
1
 50
0
  1
機械名
  7
TATEGAKI
  0
TEXT
  8
_0-0_
 62
    7
 10
148.51041442475199
 20
83.163508851878845
 40
2.5
 41
1
 50
0
  1
図番
  7
TATEGAKI
  0
TEXT
  8
_0-0_
 62
    7
 10
149.01041442475199
 20
89.913508851878845
 40
2.5
 41
1
 50
0
  1
設計
  0
TEXT
  8
_0-0_
 62
    7
 10
159.01041442475199
 20
89.913508851878845
 40
2.5
 41
1
 50
0
  1
製図
  0
TEXT
  8
_0-0_
 62
    7
 10
169.01041442475199
 20
89.913508851878845
 40
2.5
 41
1
 50
0
  1
検図
  0
TEXT
  8
_0-0_
 62
    7
 10
155.26041442475199
 20
105.91350885187885
 40
2.5
 41
1
 50
0
  1
図面作成日
  0
TEXT
  8
_0-0_
 62
    7
 10
151.51041442475199
 20
109.66350885187885
 40
3
 41
1
 50
0
  1
材　料
  0
TEXT
  8
_0-0_
 62
    7
 10
106.76041442475199
 20
109.66350885187885
 40
3
 41
1
 50
0
  1
名　　　　　　　　称
  0
TEXT
  8
_0-0_
 62
    7
 10
93.260414424751986
 20
109.66350885187885
 40
3
 41
1
 50
0
  1
番号
  0
TEXT
  8
_0-0_
 62
    7
 10
157.13541442475199
 20
93.163508851878845
 40
4
 41
1
 50
0
  1
1：1
  0
TEXT
  8
_0-0_
 62
    7
 10
110.6592069156568
 20
78.749808339826899
 40
4
 41
1
 50
0
  1
科研費研究
  0
TEXT
  8
_0-0_
 62
    7
 10
158.38425999421307
 20
85.732823201822654
 40
3
 41
1
 50
0
  1
牧山
  0
TEXT
  8
_0-0_
 62
    7
 10
148.38850627871412
 20
85.826241460846006
 40
3
 41
1
 50
0
  1
牧山
  0
TEXT
  8
_0-0_
 62
    7
 10
158.68057103455274
 20
97.961857172098647
 40
2.5
 41
1
 50
0
  1
尺度
  0
TEXT
  8
_0-0_
 62
    7
 10
168.34936084346995
 20
109.87268519757635
 40
3
 41
1
 50
0
  1
個数
  0
TEXT
  8
_0-0_
 62
    7
 10
170.45127167149539
 20
114.63701640776745
 40
3
 41
1
 50
0
  1
1
  0
CIRCLE
  8
_0-0_
  6
CONTINUOUS
 62
    7
 10
47.49918049677791
 20
177.0540136093129
 40
55
  0
LINE
  8
_0-0_
  6
CONTINUOUS
 62
    7
 10
48.749180480390805
 20
183.54920412823509
 11
47.49918049677791
 21
182.82751630120913
  0
LINE
  8
_0-0_
  6
CONTINUOUS
 62
    7
 10
46.249180513165015
 20
183.54920412823509
 11
47.49918049677791
 21
182.82751630120913
  0
LINE
  8
_0-0_
  6
CONTINUOUS
 62
    7
 10
4.1860124559191831
 20
207.83438552905443
 11
2.5737720766825873
 21
208.76521294600508
  0
LINE
  8
_0-0_
  6
CONTINUOUS
 62
    7
 10
91.442762870860633
 20
208.19835541404228
 11
92.424582607104583
 21
208.76520930305838
  0
LINE
  8
_0-0_
  6
CONTINUOUS
 62
    7
 10
95.712305009304941
 20
199.11637133319704
 11
97.334264534041552
 21
200.0528101014184
  0
LINE
  8
_0-0_
  6
CONTINUOUS
 62
    7
 10
96.064570602006427
 20
154.78827525065628
 11
97.423106435116949
 21
154.0039242217062
  0
LINE
  8
_0-0_
  6
CONTINUOUS
 62
    7
 10
47.49918049677791
 20
171.28051091741665
 11
48.565881745805711
 21
170.66465066414554
  0
LINE
  8
_0-0_
  6
CONTINUOUS
 62
    7
 10
90.862522655636383
 20
146.24467364903788
 11
92.43132532491353
 21
145.33892500562527
  0
LINE
  8
_0-0_
  6
CONTINUOUS
 62
    7
 10
37.49918049677791
 20
177.0540136093129
 11
36.218256829867784
 21
177.79355523321485
  0
LINE
  8
_0-0_
  6
CONTINUOUS
 62
    7
 10
-1.7040444364778864
 20
199.68800607762955
 11
-2.4530242154309292
 21
200.12042975462566
  0
LINE
  8
_0-0_
  6
CONTINUOUS
 62
    7
 10
37.49918049677791
 20
177.0540136093129
 11
36.908285964067716
 21
176.71286049179
  0
LINE
  8
_0-0_
  6
CONTINUOUS
 62
    7
 10
-1.4748487606287881
 20
154.5523473261448
 11
-2.4344120210793676
 21
153.99834321941918
  0
LINE
  8
_0-0_
  6
CONTINUOUS
 62
    7
 10
47.49918049677791
 20
171.28051091741665
 11
46.340578855850936
 21
170.61159194814391
  0
LINE
  8
_0-0_
  6
CONTINUOUS
 62
    7
 10
3.8012301895456346
 20
146.05148754450121
 11
2.5663151504910786
 21
145.33850901427675
  0
LINE
  8
_0-0_
  6
DASHED3
 62
    7
 10
47.49918049677791
 20
177.0540136093129
 11
109.20172418550072
 21
212.67799381768162
  0
LINE
  8
_0-0_
  6
DASHED3
 62
    7
 10
92.424582607104583
 20
208.76520930305838
 11
107.37628877617713
 21
217.39758088461662
  0
LINE
  8
_0-0_
  6
DASHED3
 62
    7
 10
97.334264534041552
 20
200.0528101014184
 11
111.68865496082427
 21
208.3403212783744
  0
LINE
  8
_0-0_
  6
DASHED3
 62
    7
 10
47.49918049677791
 20
177.0540136093129
 11
-14.182588947818743
 21
141.44202741638259
  0
LINE
  8
_0-0_
  6
DASHED3
 62
    7
 10
-2.4344120210793676
 20
153.99834321941918
 11
-16.480954293448065
 21
145.88856825728365
  0
LINE
  8
_0-0_
  6
DASHED3
 62
    7
 10
2.5663151504910786
 20
145.33850901427675
 11
-11.786673581173176
 21
137.05180710637472
  0
LINE
  8
_0-0_
  6
DASHED3
 62
    7
 10
47.49918049677791
 20
177.0540136093129
 11
108.75020041173353
 21
141.69072077327414
  0
LINE
  8
_0-0_
  6
DASHED3
 62
    7
 10
97.423106435116949
 20
154.0039242217062
 11
109.7564971429553
 21
146.88323777651487
  0
LINE
  8
_0-0_
  6
DASHED3
 62
    7
 10
92.43132532491353
 20
145.33892500562527
 11
105.6083088827483
 21
137.73119000140207
  0
LINE
  8
_0-0_
  6
DASHED3
 62
    7
 10
47.49918049677791
 20
177.0540136093129
 11
-14.944615677550388
 21
213.10595613978347
  0
LINE
  8
_0-0_
  6
DASHED3
 62
    7
 10
-2.4530242154309292
 20
200.12042975462566
 11
-16.514857753755877
 21
208.2390331332773
  0
LINE
  8
_0-0_
  6
DASHED3
 62
    7
 10
2.5737720766825873
 20
208.76521294600508
 11
-11.942514567751232
 21
217.14619494780271
  0
LINE
  8
_0-0_
  6
CONTINUOUS
 62
    4
 10
53.966906155732232
 20
173.31987045907096
 11
53.976392170908952
 21
173.31439370565516
  0
LINE
  8
_0-0_
  6
CONTINUOUS
 62
    4
 10
53.966906155732232
 20
180.78815675955482
 11
53.976392170908952
 21
180.79363351297064
  0
LINE
  8
_0-0_
  6
CONTINUOUS
 62
    4
 10
102.40470395181013
 20
214.52723504796927
 11
99.904703951810134
 21
218.85736206689148
  0
LINE
  8
_0-0_
  6
CONTINUOUS
 62
    4
 10
107.40470395181012
 20
205.8669810101249
 11
109.90470395181012
 21
201.53685399120272
  0
LINE
  8
_0-0_
  6
CONTINUOUS
 62
    4
 10
102.40470395181013
 20
214.52723504796927
 11
100.28338360825049
 21
216.64855539152893
  0
LINE
  8
_0-0_
  6
CONTINUOUS
 62
    4
 10
102.40470395181013
 20
214.52723504796927
 11
101.62824681650257
 21
217.42501252683647
  0
LINE
  8
_0-0_
  6
CONTINUOUS
 62
    4
 10
107.40470395181012
 20
205.8669810101249
 11
109.52602429536977
 21
203.74566066656527
  0
LINE
  8
_0-0_
  6
CONTINUOUS
 62
    4
 10
107.40470395181012
 20
205.8669810101249
 11
108.18116108711769
 21
202.9692035312577
  0
LINE
  8
_0-0_
  6
CONTINUOUS
 62
    4
 10
102.40470395181013
 20
214.52723504796927
 11
102.37356453213569
 21
214.50925669563782
  0
LINE
  8
_0-0_
  6
CONTINUOUS
 62
    4
 10
107.40470395181012
 20
205.8669810101249
 11
107.37356453213567
 21
205.84900265779345
  0
LINE
  8
_0-0_
  6
CONTINUOUS
 62
    4
 10
102.40470395181013
 20
214.52723504796927
 11
107.40470395181012
 21
205.8669810101249
  0
TEXT
  8
_0-0_
 62
    7
 10
104.71271665370234
 20
211.52963978377764
 40
2.5
 41
1
 50
-60.000000000000036
  1
10
  0
LINE
  8
_0-0_
  6
CONTINUOUS
 62
    4
 10
-12.372026925792738
 20
148.26085857908009
 11
-14.872026925792738
 21
152.59098559800228
  0
LINE
  8
_0-0_
  6
CONTINUOUS
 62
    4
 10
-7.3720269257927384
 20
139.6006045412357
 11
-4.8720269257927384
 21
135.27047752231351
  0
LINE
  8
_0-0_
  6
CONTINUOUS
 62
    4
 10
-12.372026925792738
 20
148.26085857908009
 11
-14.49334726935237
 21
150.38217892263972
  0
LINE
  8
_0-0_
  6
CONTINUOUS
 62
    4
 10
-12.372026925792738
 20
148.26085857908009
 11
-13.148484061100305
 21
151.15863605794729
  0
LINE
  8
_0-0_
  6
CONTINUOUS
 62
    4
 10
-7.3720269257927384
 20
139.6006045412357
 11
-5.2507065822331072
 21
137.47928419767607
  0
LINE
  8
_0-0_
  6
CONTINUOUS
 62
    4
 10
-7.3720269257927384
 20
139.6006045412357
 11
-6.5955697904851718
 21
136.7028270623685
  0
LINE
  8
_0-0_
  6
CONTINUOUS
 62
    4
 10
-12.372026925792738
 20
148.26085857908009
 11
-7.3720269257927384
 21
139.6006045412357
  0
TEXT
  8
_0-0_
 62
    7
 10
-10.064014223900529
 20
145.26326331488843
 40
2.5
 41
1
 50
-60.000000000000007
  1
10
  0
LINE
  8
_0-0_
  6
CONTINUOUS
 62
    4
 10
107.39220666487441
 20
148.24826152047734
 11
108.16866380018197
 21
151.14603899934457
  0
LINE
  8
_0-0_
  6
CONTINUOUS
 62
    4
 10
107.39220666487441
 20
148.24826152047734
 11
109.51352700843405
 21
150.369581864037
  0
LINE
  8
_0-0_
  6
CONTINUOUS
 62
    4
 10
102.39220666487438
 20
139.58800748263295
 11
101.61574952956681
 21
136.69023000376575
  0
LINE
  8
_0-0_
  6
CONTINUOUS
 62
    4
 10
102.39220666487438
 20
139.58800748263295
 11
100.27088632131473
 21
137.46668713907329
  0
LINE
  8
_0-0_
  6
CONTINUOUS
 62
    4
 10
107.39220666487441
 20
148.24826152047734
 11
102.39220666487438
 21
139.58800748263295
  0
TEXT
  8
_0-0_
 62
    7
 10
103.83419396298217
 20
143.08560274682461
 40
2.5
 41
1
 50
60
  1
10
  0
LINE
  8
_0-0_
  6
CONTINUOUS
 62
    4
 10
-13.278482985724708
 20
206.370511289756
 11
-15.778482985724708
 21
202.04038427083378
  0
LINE
  8
_0-0_
  6
CONTINUOUS
 62
    4
 10
-8.27848488809218
 20
215.03076203260326
 11
-5.77848488809218
 21
219.36088905152545
  0
LINE
  8
_0-0_
  6
CONTINUOUS
 62
    4
 10
-13.278482985724708
 20
206.370511289756
 11
-14.054940121032274
 21
203.47273381088877
  0
LINE
  8
_0-0_
  6
CONTINUOUS
 62
    4
 10
-13.278482985724708
 20
206.370511289756
 11
-15.399803329284339
 21
204.24919094619634
  0
LINE
  8
_0-0_
  6
CONTINUOUS
 62
    4
 10
-8.27848488809218
 20
215.03076203260326
 11
-7.5020277527846133
 21
217.92853951147043
  0
LINE
  8
_0-0_
  6
CONTINUOUS
 62
    4
 10
-8.27848488809218
 20
215.03076203260326
 11
-6.1571645445325487
 21
217.15208237616289
  0
LINE
  8
_0-0_
  6
CONTINUOUS
 62
    4
 10
-13.278482985724708
 20
206.370511289756
 11
-8.27848488809218
 21
215.03076203260326
  0
TEXT
  8
_0-0_
 62
    7
 10
-11.836496638800668
 20
209.86810490644908
 40
2.5
 41
1
 50
60.000000000000036
  1
10
  0
LINE
  8
_0-0_
  6
CONTINUOUS
 62
    4
 10
-5.6267399491208607
 20
162.81896612867428
 11
100.62510094267668
 21
191.28906108995153
  0
TEXT
  8
_0-0_
 62
    7
 10
104.60087618185398
 20
192.87200494478179
 40
2.5
 41
1
 50
15.000000000000014
  1
φ110
  0
LINE
  8
_0-0_
  6
CONTINUOUS
 62
    4
 10
100.62510094267668
 20
191.28906108995153
 11
110.76732211871192
 21
194.00666106352801
  0
LINE
  8
_0-0_
  6
CONTINUOUS
 62
    4
 10
-10.456369080566191
 20
161.52487090316166
 11
-5.6267399491208607
 21
162.81896612867428
  0
LINE
  8
_0-0_
  6
CONTINUOUS
 62
    4
 10
-5.6267399491208607
 20
162.81896612867428
 11
-8.2248161604741767
 21
161.31896612867428
  0
LINE
  8
_0-0_
  6
CONTINUOUS
 62
    4
 10
-5.6267399491208607
 20
162.81896612867428
 11
-8.6267399491208607
 21
162.81896612867428
  0
LINE
  8
_0-0_
  6
CONTINUOUS
 62
    4
 10
100.62510094267668
 20
191.28906108995153
 11
103.22317715403
 21
192.78906108995153
  0
LINE
  8
_0-0_
  6
CONTINUOUS
 62
    4
 10
100.62510094267668
 20
191.28906108995153
 11
103.62510094267668
 21
191.28906108995153
  0
TEXT
  8
_0-0_
 62
    7
 10
154.50955414012739
 20
114.76433121019107
 40
3
 41
1
 50
0
  1
MDF
  0
TEXT
  8
_0-0_
 62
    7
 10
169.328025477707
 20
85.757961783439498
 40
3
 41
1
 50
0
  1
森
  0
TEXT
  8
_0-0_
 62
    7
 10
113.38654458598717
 20
89.107882165605105
 40
4
 41
1
 50
0
  1
基盤部
  0
TEXT
  8
_0-0_
 62
    7
 10
-68.923566878980921
 20
254.88296178343953
 40
4
 41
1
 50
180
  1
04
  0
TEXT
  8
_0-0_
 62
    7
 10
95.235668789808855
 20
114.89570063694271
 40
3
 41
1
 50
0
  1
4
  0
LINE
  8
_0-0_
  6
CONTINUOUS
 62
    7
 10
-75.238057324840838
 20
188.28742038216561
 11
-44.129777070063767
 21
188.28742038216561
  0
LINE
  8
_0-0_
  6
CONTINUOUS
 62
    7
 10
-44.129777070063767
 20
188.28742038216561
 11
-4.8240445859873091
 21
199.00716560509554
  0
LINE
  8
_0-0_
  6
CONTINUOUS
 62
    7
 10
-4.8240445859873091
 20
199.00716560509554
 11
-7.4154160724449696
 21
197.49561215940656
  0
LINE
  8
_0-0_
  6
CONTINUOUS
 62
    7
 10
-4.8240445859873091
 20
199.00716560509554
 11
-7.8240148467467634
 21
198.99380766517982
  0
LINE
  8
_0-0_
  6
CONTINUOUS
 62
    7
 10
57.49918049677791
 20
177.0540136093129
 11
58.790349881951983
 21
177.79947060141257
  0
LINE
  8
_0-0_
  6
CONTINUOUS
 62
    7
 10
57.49918049677791
 20
177.0540136093129
 11
58.982846114408829
 21
176.19741886558631
  0
ARC
  8
_0-0_
  6
CONTINUOUS
 62
    4
 10
47.49918049677791
 20
177.0540136093129
 40
30.971587119916137
 50
330
 51
29.999999999999979
  0
TEXT
  8
_0-0_
 62
    7
 10
80.838841052659205
 20
175.87740655552932
 40
4
 41
1
 50
0
  1
60°
  0
TEXT
  8
_0-0_
 62
    7
 10
-67.976445571544616
 20
189.32963585489239
 40
4
 41
1
 50
0
  1
8箇所目印
  0
LINE
  8
_0-0_
  6
CONTINUOUS
 62
    7
 10
12.316548059028634
 20
141.61626005871403
 11
44.265592645015886
 21
141.61626005871403
  0
LINE
  8
_0-0_
  6
CONTINUOUS
 62
    7
 10
44.265592645015886
 20
141.61626005871403
 11
48.25922321826431
 21
168.94110082304525
  0
LINE
  8
_0-0_
  6
CONTINUOUS
 62
    7
 10
48.25922321826431
 20
168.94110082304525
 11
48.608448843329057
 21
165.9614965770424
  0
LINE
  8
_0-0_
  6
CONTINUOUS
 62
    7
 10
48.25922321826431
 20
168.94110082304525
 11
47.071859358221445
 21
166.18607504025044
  0
TEXT
  8
_0-0_
 62
    7
 10
19.042662708710168
 20
142.66721547272678
 40
4
 41
1
 50
0
  1
4箇所目印
  0
TEXT
  8
_0-0_
 62
    7
 10
-74.282178055621046
 20
237.25320273387325
 40
4
 41
1
 50
0
  1
t=3
  0
TEXT
  8
_0-0_
 62
    7
 10
150.7509288747346
 20
101.09753184713375
 40
4
 41
1
 50
0
  1
2019/10/24
  0
TEXT
  8
_0-0_
 62
    7
 10
114.86128803963199
 20
114.72929936305732
 40
3
 41
1
 50
0
  1
MDF底面
  0
TEXT
  8
_0-0_
 62
    7
 10
159.69864649681529
 20
78.519506369426708
 40
4
 41
1
 50
0
  1
04
  0
TEXT
  8
_0-0_
 62
    7
 10
101.23779193205945
 20
100.98513800424629
 40
4
 41
1
 50
0
  1
楕円コンパス（斜交型）
  0
LINE
  8
_0-0_
  6
DASHED2
 62
    7
 10
-1.4748487606287881
 20
154.5523473261448
 11
36.908285964067716
 21
176.71286049179
  0
LINE
  8
_0-0_
  6
DASHED2
 62
    7
 10
3.8012301895456346
 20
146.05148754450121
 11
46.340578855850936
 21
170.61159194814391
  0
LINE
  8
_0-0_
  6
DASHED2
 62
    7
 10
58.790349881951983
 20
177.79947060141257
 11
95.712305009304941
 21
199.11637133319704
  0
LINE
  8
_0-0_
  6
DASHED2
 62
    7
 10
48.749180480390805
 20
183.54920412823509
 11
91.442762870860633
 21
208.19835541404228
  0
LINE
  8
_0-0_
  6
DASHED2
 62
    7
 10
58.982846114408829
 20
176.19741886558631
 11
96.064570602006427
 21
154.78827525065628
  0
LINE
  8
_0-0_
  6
DASHED2
 62
    7
 10
90.862522655636383
 20
146.24467364903788
 11
48.565881745805711
 21
170.66465066414554
  0
LINE
  8
_0-0_
  6
DASHED2
 62
    7
 10
36.218256829867784
 20
177.79355523321485
 11
-1.7040444364778864
 21
199.68800607762955
  0
LINE
  8
_0-0_
  6
DASHED2
 62
    7
 10
4.1860124559191831
 20
207.83438552905443
 11
46.249180513165015
 21
183.54920412823509
  0
ENDSEC
  0
EOF
