  0
SECTION
  2
HEADER
  9
$ACADVER
  1
AC1009
  9
$INSBASE
 10
0
 20
0
 30
0
  9
$EXTMIN
 10
0
 20
0
  9
$EXTMAX
 10
297
 20
210
  9
$LIMMIN
 10
0
 20
0
  9
$LIMMAX
 10
297
 20
210
  9
$LTSCALE
 40
1
  0
ENDSEC
  0
SECTION
  2
TABLES
  0
TABLE
  2
LTYPE
 70
     9
  0
LTYPE
  2
CONTINUOUS
 70
    64
  3
実線
 72
    65
 73
     0
 40
0.0
  0
LTYPE
  2
DASHED1
 70
    64
  3
--  --  --  --  --  --  --  --  
 72
    65
 73
     2
 40
2.5
 49
1.25
 49
-1.25
  0
LTYPE
  2
DASHED2
 70
    64
  3
----    ----    ----    ----    
 72
    65
 73
     2
 40
5.0
 49
2.5
 49
-2.5
  0
LTYPE
  2
DASHED3
 70
    64
  3
------  ------  ------  ------  
 72
    65
 73
     2
 40
5.0
 49
3.75
 49
-1.25
  0
LTYPE
  2
CENTER1
 70
    64
  3
----- - ----- - ----- - ----- - 
 72
    65
 73
     4
 40
10.0
 49
6.25
 49
-1.25
 49
1.25
 49
-1.25
  0
LTYPE
  2
CENTER2
 70
    64
  3
----------  --  ----------  --  
 72
    65
 73
     4
 40
20.0
 49
12.5
 49
-2.5
 49
2.5
 49
-2.5
  0
LTYPE
  2
PHANTOM1
 70
    64
  3
--- - - --- - - --- - - --- - - 
 72
    65
 73
     6
 40
10.0
 49
3.25
 49
-1.25
 49
1.25
 49
-1.25
 49
1.25
 49
-1.25
  0
LTYPE
  2
PHANTOM2
 70
    64
  3
--------  -  -  --------  -  -  
 72
    65
 73
     6
 40
20.0
 49
10.0
 49
-2.5
 49
1.25
 49
-2.5
 49
1.25
 49
-2.5
  0
LTYPE
  2
DOT
 70
    64
  3
-   -   -   -   -   -   -   -   
 72
    65
 73
     2
 40
2.5
 49
0.625
 49
-1.875
  0
LTYPE
  2
DUMMY
 70
    64
  3
ダミー
 72
    65
 73
     0
 40
0.0
  0
LTYPE
  2
RAND1
 70
    64
  3
ランダム線1
 72
    65
 73
     4
 40
10.0
 49
1.0
 49
-2.0
 49
3.0
 49
-4.0
  0
LTYPE
  2
RAND2
 70
    64
  3
ランダム線2
 72
    65
 73
     4
 40
14.0
 49
2.0
 49
-3.0
 49
4.0
 49
-5.0
  0
LTYPE
  2
RAND3
 70
    64
  3
ランダム線3
 72
    65
 73
     4
 40
18.0
 49
3.0
 49
-4.0
 49
5.0
 49
-6.0
  0
LTYPE
  2
RAND4
 70
    64
  3
ランダム線4
 72
    65
 73
     4
 40
22.0
 49
4.0
 49
-5.0
 49
6.0
 49
-7.0
  0
LTYPE
  2
RAND5
 70
    64
  3
ランダム線5
 72
    65
 73
     4
 40
26.0
 49
5.0
 49
-6.0
 49
7.0
 49
-8.0
  0
LTYPE
  2
LONG1
 70
    64
  3
----------  --  ----------  --  
 72
    65
 73
     4
 40
40.0
 49
32.5
 49
-2.5
 49
2.5
 49
-2.5
  0
LTYPE
  2
LONG2
 70
    64
  3
--------  -  -  --------  -  -  
 72
    65
 73
     6
 40
40.0
 49
30.0
 49
-2.5
 49
1.25
 49
-2.5
 49
1.25
 49
-2.5
  0
LTYPE
  2
LONG3
 70
    64
  3
+++++++++++++++..+++++++++++++++
 72
    65
 73
     2
 40
40.0
 49
37.5
 49
-2.5
  0
LTYPE
  2
LONG4
 70
    64
  3
+++++++++++++++..+++++++++++++++
 72
    65
 73
     2
 40
80.0
 49
75.0
 49
-5.0
  0
LTYPE
  2
LONG5
 70
    64
  3
----------  --  ----------  --  
 72
    65
 73
     4
 40
60.0
 49
37.5
 49
-7.5
 49
7.5
 49
-7.5
  0
LTYPE
  2
dashed
 70
   64
  3
-------   -------------   ------
 72
   65
 73
    2
 40
7.5
 49
6
 49
-1.5
  0
LTYPE
  2
dashed_spaced
 70
   64
  3
----        --------        ----
 72
   65
 73
    2
 40
12
 49
6
 49
-6
  0
LTYPE
  2
long_dashed_dotted
 70
   64
  3
------------- --- --------------
 72
   65
 73
    4
 40
15.25
 49
12
 49
-1.5
 49
0.25
 49
-1.5
  0
LTYPE
  2
long_dashed_double-dotted
 70
   64
  3
----------- --- --- ------------
 72
   65
 73
    6
 40
17
 49
12
 49
-1.5
 49
0.25
 49
-1.5
 49
0.25
 49
-1.5
  0
LTYPE
  2
long_dashed_triplicate-dotted
 70
   64
  3
--------- --- --- --- ----------
 72
   65
 73
    8
 40
18.75
 49
12
 49
-1.5
 49
0.25
 49
-1.5
 49
0.25
 49
-1.5
 49
0.25
 49
-1.5
  0
LTYPE
  2
dotted
 70
   64
  3
   -       -       -       -    
 72
   65
 73
    2
 40
1.75
 49
0.25
 49
-1.5
  0
LTYPE
  2
chain
 70
   64
  3
-------------- -- --------------
 72
   65
 73
    4
 40
18.5
 49
12
 49
-1.5
 49
3.5
 49
-1.5
  0
LTYPE
  2
chain_double_dash
 70
   64
  3
------------ -- -- -------------
 72
   65
 73
    6
 40
23.5
 49
12
 49
-1.5
 49
3.5
 49
-1.5
 49
3.5
 49
-1.5
  0
LTYPE
  2
dashed_dotted
 70
   64
  3
-----------     -     ----------
 72
   65
 73
    4
 40
9.25
 49
6
 49
-1.5
 49
0.25
 49
-1.5
  0
LTYPE
  2
double-dashed_dotted
 70
   64
  3
------   -----------   -   -----
 72
   65
 73
    6
 40
16.75
 49
6
 49
-1.5
 49
6
 49
-1.5
 49
0.25
 49
-1.5
  0
LTYPE
  2
dashed_double-dotted
 70
   64
  3
---------    -    -    ---------
 72
   65
 73
    6
 40
11
 49
6
 49
-1.5
 49
0.25
 49
-1.5
 49
0.25
 49
-1.5
  0
LTYPE
  2
double-dashed_double-dotted
 70
   64
  3
-----   ---------   -   -   ----
 72
   65
 73
    8
 40
18.5
 49
6
 49
-1.5
 49
6
 49
-1.5
 49
0.25
 49
-1.5
 49
0.25
 49
-1.5
  0
LTYPE
  2
dashed_triplicate-dotted
 70
   64
  3
-------    -    -    -    ------
 72
   65
 73
    8
 40
12.75
 49
6
 49
-1.5
 49
0.25
 49
-1.5
 49
0.25
 49
-1.5
 49
0.25
 49
-1.5
  0
LTYPE
  2
double-dashed_triplicate-dotted
 70
   64
  3
-----  ---------  -  -  -  -----
 72
   65
 73
   10
 40
20.25
 49
6
 49
-1.5
 49
6
 49
-1.5
 49
0.25
 49
-1.5
 49
0.25
 49
-1.5
 49
0.25
 49
-1.5
  0
LTYPE
  2
undefined
 70
   64
  3
--------------------------------
 72
   65
 73
    0
 40
0
  0
LTYPE
  2
_
 70
   64
  3
                                
 72
   65
 73
    0
 40
0
  0
LTYPE
  2
__18
 70
   64
  3
                                
 72
   65
 73
    0
 40
0
  0
LTYPE
  2
__19
 70
   64
  3
                                
 72
   65
 73
    0
 40
0
  0
LTYPE
  2
__20
 70
   64
  3
                                
 72
   65
 73
    0
 40
0
  0
LTYPE
  2
__21
 70
   64
  3
                                
 72
   65
 73
    0
 40
0
  0
LTYPE
  2
__22
 70
   64
  3
                                
 72
   65
 73
    0
 40
0
  0
LTYPE
  2
__23
 70
   64
  3
                                
 72
   65
 73
    0
 40
0
  0
LTYPE
  2
__24
 70
   64
  3
                                
 72
   65
 73
    0
 40
0
  0
LTYPE
  2
__25
 70
   64
  3
                                
 72
   65
 73
    0
 40
0
  0
LTYPE
  2
__26
 70
   64
  3
                                
 72
   65
 73
    0
 40
0
  0
LTYPE
  2
__27
 70
   64
  3
                                
 72
   65
 73
    0
 40
0
  0
LTYPE
  2
__28
 70
   64
  3
                                
 72
   65
 73
    0
 40
0
  0
LTYPE
  2
__29
 70
   64
  3
                                
 72
   65
 73
    0
 40
0
  0
LTYPE
  2
__30
 70
   64
  3
                                
 72
   65
 73
    0
 40
0
  0
LTYPE
  2
__31
 70
   64
  3
                                
 72
   65
 73
    0
 40
0
  0
LTYPE
  2
__32
 70
   64
  3
                                
 72
   65
 73
    0
 40
0
  0
ENDTAB
  0
TABLE
  2
STYLE
  5
3
100
AcDbSymbolTable
 70
     1
  0
STYLE
  5
10
100
AcDbSymbolTableRecord
100
AcDbTextStyleTableRecord
  2
STANDARD
 70
     0
 40
0.0
 41
1.0
 50
0.0
 71
     0
 42
0.2
  3
txt
  4
bigfont.shx
  0
STYLE
  5
26
100
AcDbSymbolTableRecord
100
AcDbTextStyleTableRecord
  2
TATEGAKI
 70
    68
 40
0.0
 41
1.0
 50
0.0
 71
     0
 42
1.0
  3
txt
  4
bigfont.shx
  0
ENDTAB
  0
TABLE
  2
LAYER
 70
    2
  0
LAYER
  2
_0-0_
 70
   64
 62
    7
  6
CONTINUOUS
  0
LAYER
  2
ADD_LINE
 70
   64
 62
    7
  6
CONTINUOUS
  0
ENDTAB
  0
ENDSEC
  0
SECTION
  2
BLOCKS
  0
ENDSEC
  0
SECTION
  2
ENTITIES
  0
LINE
  8
_0-0_
  6
CONTINUOUS
 62
    7
 10
14.402171171101998
 20
224.78312726364436
 11
-11.597828828898002
 21
224.78312726364436
  0
LINE
  8
_0-0_
  6
CONTINUOUS
 62
    7
 10
163.40216292310794
 20
84.783127263644303
 11
248.40216292310794
 21
84.783127263644303
  0
LINE
  8
_0-0_
  6
CONTINUOUS
 62
    7
 10
248.40216292310794
 20
52.783127263644303
 11
248.40216292310794
 21
232.78312726364436
  0
LINE
  8
_0-0_
  6
CONTINUOUS
 62
    7
 10
-11.597828828898002
 20
232.78312726364436
 11
-11.597828828898002
 21
52.783127263644303
  0
LINE
  8
_0-0_
  6
CONTINUOUS
 62
    7
 10
-11.597828828898002
 20
52.783127263644303
 11
248.40216292310794
 21
52.783127263644303
  0
LINE
  8
_0-0_
  6
CONTINUOUS
 62
    7
 10
248.40216292310794
 20
232.78312726364436
 11
-11.597828828898002
 21
232.78312726364436
  0
LINE
  8
_0-0_
  6
CONTINUOUS
 62
    7
 10
222.40216292310794
 20
52.783127263644303
 11
222.40216292310794
 21
60.783127263644303
  0
LINE
  8
_0-0_
  6
CONTINUOUS
 62
    7
 10
218.40216292310794
 20
65.783127263644303
 11
248.40216292310794
 21
65.783127263644303
  0
LINE
  8
_0-0_
  6
CONTINUOUS
 62
    7
 10
218.40216292310794
 20
68.783127263644303
 11
248.40216292310794
 21
68.783127263644303
  0
LINE
  8
_0-0_
  6
CONTINUOUS
 62
    7
 10
218.40216292310794
 20
76.783127263644303
 11
248.40216292310794
 21
76.783127263644303
  0
LINE
  8
_0-0_
  6
CONTINUOUS
 62
    7
 10
218.40216292310794
 20
73.783127263644303
 11
248.40216292310794
 21
73.783127263644303
  0
LINE
  8
_0-0_
  6
CONTINUOUS
 62
    7
 10
218.40216292310794
 20
81.783127263644303
 11
248.40216292310794
 21
81.783127263644303
  0
LINE
  8
_0-0_
  6
CONTINUOUS
 62
    7
 10
228.40216292310794
 20
60.783127263644303
 11
228.40216292310794
 21
68.783127263644303
  0
LINE
  8
_0-0_
  6
CONTINUOUS
 62
    7
 10
238.40216292310794
 20
60.783127263644303
 11
238.40216292310794
 21
68.783127263644303
  0
LINE
  8
_0-0_
  6
CONTINUOUS
 62
    7
 10
163.40216292310794
 20
60.783127263644303
 11
248.40216292310794
 21
60.783127263644303
  0
LINE
  8
_0-0_
  6
CONTINUOUS
 62
    7
 10
168.40216292310794
 20
60.783127263644303
 11
168.40216292310794
 21
84.783127263644303
  0
LINE
  8
_0-0_
  6
CONTINUOUS
 62
    7
 10
14.402171171101998
 20
232.78312726364436
 11
14.402171171101998
 21
224.78312726364436
  0
LINE
  8
_0-0_
  6
CONTINUOUS
 62
    7
 10
163.40216292310794
 20
72.783127263644303
 11
218.40216292310794
 21
72.783127263644303
  0
LINE
  8
_0-0_
  6
CONTINUOUS
 62
    7
 10
163.40216292310794
 20
89.783127263644303
 11
248.40216292310794
 21
89.783127263644303
  0
LINE
  8
_0-0_
  6
CONTINUOUS
 62
    7
 10
238.40216292310794
 20
84.783127263644303
 11
238.40216292310794
 21
94.783127263644303
  0
LINE
  8
_0-0_
  6
CONTINUOUS
 62
    7
 10
218.40216292310794
 20
52.783127263644303
 11
218.40216292310794
 21
94.783127263644303
  0
LINE
  8
_0-0_
  6
CONTINUOUS
 62
    7
 10
173.40216292310794
 20
84.783127263644303
 11
173.40216292310794
 21
94.783127263644303
  0
LINE
  8
_0-0_
  6
CONTINUOUS
 62
    7
 10
163.40216292310794
 20
94.783127263644303
 11
248.40216292310794
 21
94.783127263644303
  0
LINE
  8
_0-0_
  6
CONTINUOUS
 62
    7
 10
163.40216292310794
 20
52.783127263644303
 11
163.40216292310794
 21
94.783127263644303
  0
TEXT
  8
_0-0_
 62
    7
 10
165.90216292310794
 20
70.033127263644303
 40
3
 41
1
 50
0
  1
品名
  7
TATEGAKI
  0
TEXT
  8
_0-0_
 62
    7
 10
165.90216292310794
 20
83.783127263644303
 40
3
 41
1
 50
0
  1
機械名
  7
TATEGAKI
  0
TEXT
  8
_0-0_
 62
    7
 10
220.40216292310794
 20
59.283127263644303
 40
2.5
 41
1
 50
0
  1
図番
  7
TATEGAKI
  0
TEXT
  8
_0-0_
 62
    7
 10
220.90216292310794
 20
66.033127263644303
 40
2.5
 41
1
 50
0
  1
設計
  0
TEXT
  8
_0-0_
 62
    7
 10
230.90216292310794
 20
66.033127263644303
 40
2.5
 41
1
 50
0
  1
製図
  0
TEXT
  8
_0-0_
 62
    7
 10
240.90216292310794
 20
66.033127263644303
 40
2.5
 41
1
 50
0
  1
検図
  0
TEXT
  8
_0-0_
 62
    7
 10
227.15216292310794
 20
82.033127263644303
 40
2.5
 41
1
 50
0
  1
図面作成日
  0
TEXT
  8
_0-0_
 62
    7
 10
240.15216292310794
 20
85.783127263644303
 40
3
 41
1
 50
0
  1
個数
  0
TEXT
  8
_0-0_
 62
    7
 10
223.40216292310794
 20
85.783127263644303
 40
3
 41
1
 50
0
  1
材　料
  0
TEXT
  8
_0-0_
 62
    7
 10
178.65216292310794
 20
85.783127263644303
 40
3
 41
1
 50
0
  1
名　　　　　　　　称
  0
TEXT
  8
_0-0_
 62
    7
 10
165.15216292310794
 20
85.783127263644303
 40
3
 41
1
 50
0
  1
番号
  0
TEXT
  8
_0-0_
 62
    7
 10
167.65216292310794
 20
90.783127263644303
 40
3
 41
1
 50
0
  1
1
  0
TEXT
  8
_0-0_
 62
    7
 10
229.02716292310794
 20
69.283127263644303
 40
4
 41
1
 50
0
  1
1：1
  0
CIRCLE
  8
_0-0_
  6
CONTINUOUS
 62
    7
 10
108.00960073858562
 20
157.73639009510936
 40
2.5
  0
LINE
  8
_0-0_
  6
CONTINUOUS
 62
    7
 10
103.0596007385856
 20
157.73639009510936
 11
103.0596007385856
 21
165.23639009510936
  0
LINE
  8
_0-0_
  6
CONTINUOUS
 62
    7
 10
112.95960073858561
 20
157.73639009510936
 11
112.95960073858561
 21
165.23639009510936
  0
LINE
  8
_0-0_
  6
CONTINUOUS
 62
    7
 10
103.0596007385856
 20
157.73639009510936
 11
103.0596007385856
 21
150.23639009510936
  0
LINE
  8
_0-0_
  6
CONTINUOUS
 62
    7
 10
112.95960073858561
 20
157.73639009510936
 11
112.95960073858561
 21
150.23639009510936
  0
ARC
  8
_0-0_
  6
CONTINUOUS
 62
    7
 10
108.00960073858562
 20
165.23639009510936
 40
4.9500000000000002
 50
0
 51
180
  0
ARC
  8
_0-0_
  6
CONTINUOUS
 62
    7
 10
108.00960073858562
 20
150.23639009510936
 40
4.9500000000000002
 50
180
 51
0
  0
TEXT
  8
_0-0_
 62
    7
 10
182.55095541401275
 20
54.869426751592357
 40
4
 41
1
 50
0
  1
科研費研究
  0
TEXT
  8
_0-0_
 62
    7
 10
230.18259023354562
 20
73.903397027600846
 40
2.5
 41
1
 50
0
  1
尺度
  0
TEXT
  8
_0-0_
 62
    7
 10
230.27600849256902
 20
61.852441613588113
 40
3
 41
1
 50
0
  1
牧山
  0
TEXT
  8
_0-0_
 62
    7
 10
220.28025477707007
 20
61.945859872611464
 40
3
 41
1
 50
0
  1
牧山
  0
TEXT
  8
_0-0_
 62
    7
 10
231.95753715498938
 20
54.752653927813171
 40
4
 41
1
 50
0
  1
01
  0
TEXT
  8
_0-0_
 62
    7
 10
1.6698513800424735
 20
231.00955414012736
 40
4
 41
1
 50
180
  1
01
  0
TEXT
  8
_0-0_
 62
    7
 10
242.70063694267515
 20
90.777070063694254
 40
3
 41
1
 50
0
  1
2
  0
LINE
  8
_0-0_
  6
DASHED3
 62
    7
 10
112.95960073858561
 20
165.23639009510936
 11
130.71549893842888
 21
165.23639009510936
  0
LINE
  8
_0-0_
  6
DASHED3
 62
    7
 10
112.95960073858561
 20
150.23639009510936
 11
131.08917197452229
 21
150.23639009510936
  0
LINE
  8
_0-0_
  6
DASHED3
 62
    7
 10
108.00960073858562
 20
157.73639009510936
 11
120.56404812455767
 21
157.73639009510936
  0
LINE
  8
_0-0_
  6
CONTINUOUS
 62
    4
 10
128.84713375796179
 20
165.23639009510936
 11
128.07067662265422
 21
168.13416757397655
  0
LINE
  8
_0-0_
  6
CONTINUOUS
 62
    4
 10
128.84713375796179
 20
165.23639009510936
 11
129.62359089326935
 21
168.13416757397655
  0
LINE
  8
_0-0_
  6
CONTINUOUS
 62
    4
 10
128.84713375796179
 20
150.23639009510936
 11
129.62359089326935
 21
147.33861261624216
  0
LINE
  8
_0-0_
  6
CONTINUOUS
 62
    4
 10
128.84713375796179
 20
150.23639009510936
 11
128.07067662265422
 21
147.33861261624216
  0
LINE
  8
_0-0_
  6
CONTINUOUS
 62
    4
 10
128.84713375796179
 20
165.23639009510936
 11
128.84713375796179
 21
150.23639009510936
  0
TEXT
  8
_0-0_
 62
    7
 10
128.34713375796179
 20
156.48639009510936
 40
2.5
 41
1
 50
90
  1
15
  0
LINE
  8
_0-0_
  6
CONTINUOUS
 62
    4
 10
119.06935598018401
 20
157.73639009510936
 11
118.29289884487645
 21
160.63416757397655
  0
LINE
  8
_0-0_
  6
CONTINUOUS
 62
    4
 10
119.06935598018401
 20
157.73639009510936
 11
119.84581311549158
 21
160.63416757397655
  0
LINE
  8
_0-0_
  6
CONTINUOUS
 62
    4
 10
119.06935598018401
 20
150.23639009510936
 11
119.84581311549158
 21
147.33861261624216
  0
LINE
  8
_0-0_
  6
CONTINUOUS
 62
    4
 10
119.06935598018401
 20
150.23639009510936
 11
118.29289884487645
 21
147.33861261624216
  0
LINE
  8
_0-0_
  6
CONTINUOUS
 62
    4
 10
119.06935598018401
 20
157.73639009510936
 11
119.06935598018401
 21
150.23639009510936
  0
TEXT
  8
_0-0_
 62
    7
 10
118.56935598018401
 20
152.11139009510936
 40
2.5
 41
1
 50
90
  1
7.5
  0
TEXT
  8
_0-0_
 62
    7
 10
241.19426751592357
 20
61.490445859872608
 40
3
 41
1
 50
0
  1
森
  0
TEXT
  8
_0-0_
 62
    7
 10
181.5
 20
91.197452229299358
 40
3
 41
1
 50
0
  1
カプセル状駆動部
  0
TEXT
  8
_0-0_
 62
    7
 10
189.06687898089172
 20
65.133757961783445
 40
4
 41
1
 50
0
  1
軸部
  0
TEXT
  8
_0-0_
 62
    7
 10
0.3765923566878655
 20
217.60987261146499
 40
4
 41
1
 50
0
  1
t=3
  0
LINE
  8
_0-0_
  6
CONTINUOUS
 62
    4
 10
112.95960073858561
 20
165.23639009510936
 11
103.05960073858563
 21
165.23639009510936
  0
TEXT
  8
_0-0_
 62
    7
 10
92.55960073858563
 20
165.73639009510936
 40
2.5
 41
1
 50
0
  1
φ9.9
  0
LINE
  8
_0-0_
  6
CONTINUOUS
 62
    4
 10
103.05960073858563
 20
165.23639009510936
 11
92.55960073858563
 21
165.23639009510936
  0
LINE
  8
_0-0_
  6
CONTINUOUS
 62
    4
 10
117.95960073858561
 20
165.23639009510936
 11
112.95960073858561
 21
165.23639009510936
  0
LINE
  8
_0-0_
  6
CONTINUOUS
 62
    4
 10
112.95960073858561
 20
165.23639009510936
 11
115.85737821745283
 21
166.01284723041692
  0
LINE
  8
_0-0_
  6
CONTINUOUS
 62
    4
 10
112.95960073858561
 20
165.23639009510936
 11
115.85737821745283
 21
164.45993295980179
  0
LINE
  8
_0-0_
  6
CONTINUOUS
 62
    4
 10
103.05960073858563
 20
165.23639009510936
 11
100.1618232597184
 21
164.45993295980179
  0
LINE
  8
_0-0_
  6
CONTINUOUS
 62
    4
 10
103.05960073858563
 20
165.23639009510936
 11
100.1618232597184
 21
166.01284723041692
  0
LINE
  8
_0-0_
  6
CONTINUOUS
 62
    4
 10
110.50960073858562
 20
157.73639009510936
 11
105.50960073858562
 21
157.73639009510936
  0
TEXT
  8
_0-0_
 62
    7
 10
97.509600738585618
 20
158.23639009510936
 40
2.5
 41
1
 50
0
  1
φ5
  0
LINE
  8
_0-0_
  6
CONTINUOUS
 62
    4
 10
105.50960073858562
 20
157.73639009510936
 11
97.509600738585618
 21
157.73639009510936
  0
LINE
  8
_0-0_
  6
CONTINUOUS
 62
    4
 10
115.50960073858562
 20
157.73639009510936
 11
110.50960073858562
 21
157.73639009510936
  0
LINE
  8
_0-0_
  6
CONTINUOUS
 62
    4
 10
110.50960073858562
 20
157.73639009510936
 11
113.40737821745282
 21
158.51284723041692
  0
LINE
  8
_0-0_
  6
CONTINUOUS
 62
    4
 10
110.50960073858562
 20
157.73639009510936
 11
113.40737821745282
 21
156.95993295980179
  0
LINE
  8
_0-0_
  6
CONTINUOUS
 62
    4
 10
105.50960073858562
 20
157.73639009510936
 11
102.61182325971842
 21
156.95993295980179
  0
LINE
  8
_0-0_
  6
CONTINUOUS
 62
    4
 10
105.50960073858562
 20
157.73639009510936
 11
102.61182325971842
 21
158.51284723041692
  0
LINE
  8
_0-0_
  6
CONTINUOUS
 62
    4
 10
112.95960073858561
 20
150.23639009510936
 11
103.05960073858563
 21
150.23639009510936
  0
TEXT
  8
_0-0_
 62
    7
 10
92.55960073858563
 20
150.73639009510936
 40
2.5
 41
1
 50
0
  1
φ9.9
  0
LINE
  8
_0-0_
  6
CONTINUOUS
 62
    4
 10
103.05960073858563
 20
150.23639009510936
 11
92.55960073858563
 21
150.23639009510936
  0
LINE
  8
_0-0_
  6
CONTINUOUS
 62
    4
 10
117.95960073858561
 20
150.23639009510936
 11
112.95960073858561
 21
150.23639009510936
  0
LINE
  8
_0-0_
  6
CONTINUOUS
 62
    4
 10
112.95960073858561
 20
150.23639009510936
 11
115.85737821745283
 21
151.01284723041692
  0
LINE
  8
_0-0_
  6
CONTINUOUS
 62
    4
 10
112.95960073858561
 20
150.23639009510936
 11
115.85737821745283
 21
149.45993295980179
  0
LINE
  8
_0-0_
  6
CONTINUOUS
 62
    4
 10
103.05960073858563
 20
150.23639009510936
 11
100.1618232597184
 21
149.45993295980179
  0
LINE
  8
_0-0_
  6
CONTINUOUS
 62
    4
 10
103.05960073858563
 20
150.23639009510936
 11
100.1618232597184
 21
151.01284723041692
  0
TEXT
  8
_0-0_
 62
    7
 10
223.328025477707
 20
77.114649681528675
 40
4
 41
1
 50
0
  1
2019/10/24
  0
TEXT
  8
_0-0_
 62
    7
 10
180.65923566878979
 20
77.114649681528661
 40
4
 41
1
 50
0
  1
楕円コンパス
  0
TEXT
  8
_0-0_
 62
    7
 10
221.4448302469136
 20
90.909529320987573
 40
3
 41
1
 50
0
  1
アクリル板
  0
ENDSEC
  0
EOF
