  0
SECTION
  2
HEADER
  9
$ACADVER
  1
AC1009
  9
$INSBASE
 10
0
 20
0
 30
0
  9
$EXTMIN
 10
0
 20
0
  9
$EXTMAX
 10
420.5
 20
297
  9
$LIMMIN
 10
0
 20
0
  9
$LIMMAX
 10
420.5
 20
297
  9
$LTSCALE
 40
0.5
  0
ENDSEC
  0
SECTION
  2
TABLES
  0
TABLE
  2
LTYPE
 70
     9
  0
LTYPE
  2
CONTINUOUS
 70
    64
  3
実線
 72
    65
 73
     0
 40
0.0
  0
LTYPE
  2
DASHED1
 70
    64
  3
--  --  --  --  --  --  --  --  
 72
    65
 73
     2
 40
2.5
 49
1.25
 49
-1.25
  0
LTYPE
  2
DASHED2
 70
    64
  3
----    ----    ----    ----    
 72
    65
 73
     2
 40
5.0
 49
2.5
 49
-2.5
  0
LTYPE
  2
DASHED3
 70
    64
  3
------  ------  ------  ------  
 72
    65
 73
     2
 40
5.0
 49
3.75
 49
-1.25
  0
LTYPE
  2
CENTER1
 70
    64
  3
----- - ----- - ----- - ----- - 
 72
    65
 73
     4
 40
10.0
 49
6.25
 49
-1.25
 49
1.25
 49
-1.25
  0
LTYPE
  2
CENTER2
 70
    64
  3
----------  --  ----------  --  
 72
    65
 73
     4
 40
20.0
 49
12.5
 49
-2.5
 49
2.5
 49
-2.5
  0
LTYPE
  2
PHANTOM1
 70
    64
  3
--- - - --- - - --- - - --- - - 
 72
    65
 73
     6
 40
10.0
 49
3.25
 49
-1.25
 49
1.25
 49
-1.25
 49
1.25
 49
-1.25
  0
LTYPE
  2
PHANTOM2
 70
    64
  3
--------  -  -  --------  -  -  
 72
    65
 73
     6
 40
20.0
 49
10.0
 49
-2.5
 49
1.25
 49
-2.5
 49
1.25
 49
-2.5
  0
LTYPE
  2
DOT
 70
    64
  3
-   -   -   -   -   -   -   -   
 72
    65
 73
     2
 40
2.5
 49
0.625
 49
-1.875
  0
LTYPE
  2
DUMMY
 70
    64
  3
ダミー
 72
    65
 73
     0
 40
0.0
  0
LTYPE
  2
RAND1
 70
    64
  3
ランダム線1
 72
    65
 73
     4
 40
10.0
 49
1.0
 49
-2.0
 49
3.0
 49
-4.0
  0
LTYPE
  2
RAND2
 70
    64
  3
ランダム線2
 72
    65
 73
     4
 40
14.0
 49
2.0
 49
-3.0
 49
4.0
 49
-5.0
  0
LTYPE
  2
RAND3
 70
    64
  3
ランダム線3
 72
    65
 73
     4
 40
18.0
 49
3.0
 49
-4.0
 49
5.0
 49
-6.0
  0
LTYPE
  2
RAND4
 70
    64
  3
ランダム線4
 72
    65
 73
     4
 40
22.0
 49
4.0
 49
-5.0
 49
6.0
 49
-7.0
  0
LTYPE
  2
RAND5
 70
    64
  3
ランダム線5
 72
    65
 73
     4
 40
26.0
 49
5.0
 49
-6.0
 49
7.0
 49
-8.0
  0
LTYPE
  2
LONG1
 70
    64
  3
----------  --  ----------  --  
 72
    65
 73
     4
 40
40.0
 49
32.5
 49
-2.5
 49
2.5
 49
-2.5
  0
LTYPE
  2
LONG2
 70
    64
  3
--------  -  -  --------  -  -  
 72
    65
 73
     6
 40
40.0
 49
30.0
 49
-2.5
 49
1.25
 49
-2.5
 49
1.25
 49
-2.5
  0
LTYPE
  2
LONG3
 70
    64
  3
+++++++++++++++..+++++++++++++++
 72
    65
 73
     2
 40
40.0
 49
37.5
 49
-2.5
  0
LTYPE
  2
LONG4
 70
    64
  3
+++++++++++++++..+++++++++++++++
 72
    65
 73
     2
 40
80.0
 49
75.0
 49
-5.0
  0
LTYPE
  2
LONG5
 70
    64
  3
----------  --  ----------  --  
 72
    65
 73
     4
 40
60.0
 49
37.5
 49
-7.5
 49
7.5
 49
-7.5
  0
LTYPE
  2
dashed
 70
   64
  3
-------   -------------   ------
 72
   65
 73
    2
 40
7.5
 49
6
 49
-1.5
  0
LTYPE
  2
dashed_spaced
 70
   64
  3
----        --------        ----
 72
   65
 73
    2
 40
12
 49
6
 49
-6
  0
LTYPE
  2
long_dashed_dotted
 70
   64
  3
------------- --- --------------
 72
   65
 73
    4
 40
15.25
 49
12
 49
-1.5
 49
0.25
 49
-1.5
  0
LTYPE
  2
long_dashed_double-dotted
 70
   64
  3
----------- --- --- ------------
 72
   65
 73
    6
 40
17
 49
12
 49
-1.5
 49
0.25
 49
-1.5
 49
0.25
 49
-1.5
  0
LTYPE
  2
long_dashed_triplicate-dotted
 70
   64
  3
--------- --- --- --- ----------
 72
   65
 73
    8
 40
18.75
 49
12
 49
-1.5
 49
0.25
 49
-1.5
 49
0.25
 49
-1.5
 49
0.25
 49
-1.5
  0
LTYPE
  2
dotted
 70
   64
  3
   -       -       -       -    
 72
   65
 73
    2
 40
1.75
 49
0.25
 49
-1.5
  0
LTYPE
  2
chain
 70
   64
  3
-------------- -- --------------
 72
   65
 73
    4
 40
18.5
 49
12
 49
-1.5
 49
3.5
 49
-1.5
  0
LTYPE
  2
chain_double_dash
 70
   64
  3
------------ -- -- -------------
 72
   65
 73
    6
 40
23.5
 49
12
 49
-1.5
 49
3.5
 49
-1.5
 49
3.5
 49
-1.5
  0
LTYPE
  2
dashed_dotted
 70
   64
  3
-----------     -     ----------
 72
   65
 73
    4
 40
9.25
 49
6
 49
-1.5
 49
0.25
 49
-1.5
  0
LTYPE
  2
double-dashed_dotted
 70
   64
  3
------   -----------   -   -----
 72
   65
 73
    6
 40
16.75
 49
6
 49
-1.5
 49
6
 49
-1.5
 49
0.25
 49
-1.5
  0
LTYPE
  2
dashed_double-dotted
 70
   64
  3
---------    -    -    ---------
 72
   65
 73
    6
 40
11
 49
6
 49
-1.5
 49
0.25
 49
-1.5
 49
0.25
 49
-1.5
  0
LTYPE
  2
double-dashed_double-dotted
 70
   64
  3
-----   ---------   -   -   ----
 72
   65
 73
    8
 40
18.5
 49
6
 49
-1.5
 49
6
 49
-1.5
 49
0.25
 49
-1.5
 49
0.25
 49
-1.5
  0
LTYPE
  2
dashed_triplicate-dotted
 70
   64
  3
-------    -    -    -    ------
 72
   65
 73
    8
 40
12.75
 49
6
 49
-1.5
 49
0.25
 49
-1.5
 49
0.25
 49
-1.5
 49
0.25
 49
-1.5
  0
LTYPE
  2
double-dashed_triplicate-dotted
 70
   64
  3
-----  ---------  -  -  -  -----
 72
   65
 73
   10
 40
20.25
 49
6
 49
-1.5
 49
6
 49
-1.5
 49
0.25
 49
-1.5
 49
0.25
 49
-1.5
 49
0.25
 49
-1.5
  0
LTYPE
  2
undefined
 70
   64
  3
--------------------------------
 72
   65
 73
    0
 40
0
  0
LTYPE
  2
_
 70
   64
  3
                                
 72
   65
 73
    0
 40
0
  0
LTYPE
  2
__18
 70
   64
  3
                                
 72
   65
 73
    0
 40
0
  0
LTYPE
  2
__19
 70
   64
  3
                                
 72
   65
 73
    0
 40
0
  0
LTYPE
  2
__20
 70
   64
  3
                                
 72
   65
 73
    0
 40
0
  0
LTYPE
  2
__21
 70
   64
  3
                                
 72
   65
 73
    0
 40
0
  0
LTYPE
  2
__22
 70
   64
  3
                                
 72
   65
 73
    0
 40
0
  0
LTYPE
  2
__23
 70
   64
  3
                                
 72
   65
 73
    0
 40
0
  0
LTYPE
  2
__24
 70
   64
  3
                                
 72
   65
 73
    0
 40
0
  0
LTYPE
  2
__25
 70
   64
  3
                                
 72
   65
 73
    0
 40
0
  0
LTYPE
  2
__26
 70
   64
  3
                                
 72
   65
 73
    0
 40
0
  0
LTYPE
  2
__27
 70
   64
  3
                                
 72
   65
 73
    0
 40
0
  0
LTYPE
  2
__28
 70
   64
  3
                                
 72
   65
 73
    0
 40
0
  0
LTYPE
  2
__29
 70
   64
  3
                                
 72
   65
 73
    0
 40
0
  0
LTYPE
  2
__30
 70
   64
  3
                                
 72
   65
 73
    0
 40
0
  0
LTYPE
  2
__31
 70
   64
  3
                                
 72
   65
 73
    0
 40
0
  0
LTYPE
  2
__32
 70
   64
  3
                                
 72
   65
 73
    0
 40
0
  0
ENDTAB
  0
TABLE
  2
STYLE
  5
3
100
AcDbSymbolTable
 70
     1
  0
STYLE
  5
10
100
AcDbSymbolTableRecord
100
AcDbTextStyleTableRecord
  2
STANDARD
 70
     0
 40
0.0
 41
1.0
 50
0.0
 71
     0
 42
0.2
  3
txt
  4
bigfont.shx
  0
STYLE
  5
26
100
AcDbSymbolTableRecord
100
AcDbTextStyleTableRecord
  2
TATEGAKI
 70
    68
 40
0.0
 41
1.0
 50
0.0
 71
     0
 42
1.0
  3
txt
  4
bigfont.shx
  0
ENDTAB
  0
TABLE
  2
LAYER
 70
    2
  0
LAYER
  2
_0-0_
 70
   64
 62
    7
  6
CONTINUOUS
  0
LAYER
  2
ADD_LINE
 70
   64
 62
    7
  6
CONTINUOUS
  0
ENDTAB
  0
ENDSEC
  0
SECTION
  2
BLOCKS
  0
ENDSEC
  0
SECTION
  2
ENTITIES
  0
LINE
  8
_0-0_
  6
CONTINUOUS
 62
    4
 10
180.59100877192975
 20
178.40090968161144
 11
180.59100877192975
 21
198.40090968161144
  0
CIRCLE
  8
_0-0_
  6
CONTINUOUS
 62
    7
 10
180.59100877192975
 20
188.40090968161144
 40
6
  0
LINE
  8
_0-0_
  6
CONTINUOUS
 62
    7
 10
76.152171171101998
 20
268.28312726364436
 11
50.152171171101998
 21
268.28312726364436
  0
LINE
  8
_0-0_
  6
CONTINUOUS
 62
    7
 10
225.15216292310794
 20
128.2831272636443
 11
310.15216292310794
 21
128.2831272636443
  0
LINE
  8
_0-0_
  6
CONTINUOUS
 62
    7
 10
310.15216292310794
 20
96.283127263644303
 11
310.15216292310794
 21
276.28312726364436
  0
LINE
  8
_0-0_
  6
CONTINUOUS
 62
    7
 10
50.152171171101998
 20
276.28312726364436
 11
50.152171171101998
 21
96.283127263644303
  0
LINE
  8
_0-0_
  6
CONTINUOUS
 62
    7
 10
50.152171171101998
 20
96.283127263644303
 11
310.15216292310794
 21
96.283127263644303
  0
LINE
  8
_0-0_
  6
CONTINUOUS
 62
    7
 10
310.15216292310794
 20
276.28312726364436
 11
50.152171171101998
 21
276.28312726364436
  0
LINE
  8
_0-0_
  6
CONTINUOUS
 62
    7
 10
284.15216292310794
 20
96.283127263644303
 11
284.15216292310794
 21
104.2831272636443
  0
LINE
  8
_0-0_
  6
CONTINUOUS
 62
    7
 10
280.15216292310794
 20
109.2831272636443
 11
310.15216292310794
 21
109.2831272636443
  0
LINE
  8
_0-0_
  6
CONTINUOUS
 62
    7
 10
280.15216292310794
 20
112.2831272636443
 11
310.15216292310794
 21
112.2831272636443
  0
LINE
  8
_0-0_
  6
CONTINUOUS
 62
    7
 10
280.15216292310794
 20
120.2831272636443
 11
310.15216292310794
 21
120.2831272636443
  0
LINE
  8
_0-0_
  6
CONTINUOUS
 62
    7
 10
280.15216292310794
 20
117.2831272636443
 11
310.15216292310794
 21
117.2831272636443
  0
LINE
  8
_0-0_
  6
CONTINUOUS
 62
    7
 10
280.15216292310794
 20
125.2831272636443
 11
310.15216292310794
 21
125.2831272636443
  0
LINE
  8
_0-0_
  6
CONTINUOUS
 62
    7
 10
290.15216292310794
 20
104.2831272636443
 11
290.15216292310794
 21
112.2831272636443
  0
LINE
  8
_0-0_
  6
CONTINUOUS
 62
    7
 10
300.15216292310794
 20
104.2831272636443
 11
300.15216292310794
 21
112.2831272636443
  0
LINE
  8
_0-0_
  6
CONTINUOUS
 62
    7
 10
225.15216292310794
 20
104.2831272636443
 11
310.15216292310794
 21
104.2831272636443
  0
LINE
  8
_0-0_
  6
CONTINUOUS
 62
    7
 10
230.15216292310794
 20
104.2831272636443
 11
230.15216292310794
 21
128.2831272636443
  0
LINE
  8
_0-0_
  6
CONTINUOUS
 62
    7
 10
76.152171171101998
 20
276.28312726364436
 11
76.152171171101998
 21
268.28312726364436
  0
LINE
  8
_0-0_
  6
CONTINUOUS
 62
    7
 10
225.15216292310794
 20
116.2831272636443
 11
280.15216292310794
 21
116.2831272636443
  0
LINE
  8
_0-0_
  6
CONTINUOUS
 62
    7
 10
225.15216292310794
 20
133.2831272636443
 11
310.15216292310794
 21
133.2831272636443
  0
LINE
  8
_0-0_
  6
CONTINUOUS
 62
    7
 10
300.15216292310794
 20
128.2831272636443
 11
300.15216292310794
 21
138.2831272636443
  0
LINE
  8
_0-0_
  6
CONTINUOUS
 62
    7
 10
280.15216292310794
 20
96.283127263644303
 11
280.15216292310794
 21
138.2831272636443
  0
LINE
  8
_0-0_
  6
CONTINUOUS
 62
    7
 10
235.15216292310794
 20
128.2831272636443
 11
235.15216292310794
 21
138.2831272636443
  0
LINE
  8
_0-0_
  6
CONTINUOUS
 62
    7
 10
225.15216292310794
 20
138.2831272636443
 11
310.15216292310794
 21
138.2831272636443
  0
LINE
  8
_0-0_
  6
CONTINUOUS
 62
    7
 10
225.15216292310794
 20
96.283127263644303
 11
225.15216292310794
 21
138.2831272636443
  0
TEXT
  8
_0-0_
 62
    7
 10
227.65216292310794
 20
113.5331272636443
 40
3
 41
1
 50
0
  1
品名
  7
TATEGAKI
  0
TEXT
  8
_0-0_
 62
    7
 10
227.65216292310794
 20
127.2831272636443
 40
3
 41
1
 50
0
  1
機械名
  7
TATEGAKI
  0
TEXT
  8
_0-0_
 62
    7
 10
282.15216292310794
 20
102.7831272636443
 40
2.5
 41
1
 50
0
  1
図番
  7
TATEGAKI
  0
TEXT
  8
_0-0_
 62
    7
 10
282.65216292310794
 20
109.5331272636443
 40
2.5
 41
1
 50
0
  1
設計
  0
TEXT
  8
_0-0_
 62
    7
 10
292.65216292310794
 20
109.5331272636443
 40
2.5
 41
1
 50
0
  1
製図
  0
TEXT
  8
_0-0_
 62
    7
 10
302.65216292310794
 20
109.5331272636443
 40
2.5
 41
1
 50
0
  1
検図
  0
TEXT
  8
_0-0_
 62
    7
 10
288.90216292310794
 20
125.5331272636443
 40
2.5
 41
1
 50
0
  1
図面作成日
  0
TEXT
  8
_0-0_
 62
    7
 10
285.15216292310794
 20
129.2831272636443
 40
3
 41
1
 50
0
  1
材　料
  0
TEXT
  8
_0-0_
 62
    7
 10
240.40216292310794
 20
129.2831272636443
 40
3
 41
1
 50
0
  1
名　　　　　　　　称
  0
TEXT
  8
_0-0_
 62
    7
 10
226.90216292310794
 20
129.2831272636443
 40
3
 41
1
 50
0
  1
番号
  0
TEXT
  8
_0-0_
 62
    7
 10
244.30095541401275
 20
98.369426751592357
 40
4
 41
1
 50
0
  1
科研費研究
  0
TEXT
  8
_0-0_
 62
    7
 10
292.02600849256902
 20
105.35244161358811
 40
3
 41
1
 50
0
  1
牧山
  0
TEXT
  8
_0-0_
 62
    7
 10
282.03025477707007
 20
105.44585987261146
 40
3
 41
1
 50
0
  1
牧山
  0
TEXT
  8
_0-0_
 62
    7
 10
292.32231953290869
 20
117.5814755838641
 40
2.5
 41
1
 50
0
  1
尺度
  0
TEXT
  8
_0-0_
 62
    7
 10
301.9911093418259
 20
129.4923036093418
 40
3
 41
1
 50
0
  1
個数
  0
TEXT
  8
_0-0_
 62
    7
 10
60.488853503184714
 20
256.95859872611464
 40
4
 41
1
 50
0
  1
t=3
  0
TEXT
  8
_0-0_
 62
    7
 10
63.641719745222929
 20
274.29936305732485
 40
4
 41
1
 50
180
  1
03
  0
TEXT
  8
_0-0_
 62
    7
 10
233.80913344342218
 20
120.57140048753638
 40
4
 41
1
 50
0
  1
楕円コンパス（直交型）
  0
TEXT
  8
_0-0_
 62
    7
 10
245.52960526315789
 20
133.84539473684211
 40
4
 41
1
 50
0
  1
スペーサー
  0
TEXT
  8
_0-0_
 62
    7
 10
283.30592105263156
 20
134.42434210526315
 40
3
 41
1
 50
0
  1
アクリル板
  0
TEXT
  8
_0-0_
 62
    7
 10
304.09302016985134
 20
134.25663481953291
 40
3
 41
1
 50
0
  1
2
  0
TEXT
  8
_0-0_
 62
    7
 10
285.26875442321295
 20
120.78591648973814
 40
4
 41
1
 50
0
  1
2019/11/24
  0
TEXT
  8
_0-0_
 62
    7
 10
302.84539473684208
 20
105.62171052631579
 40
3
 41
1
 50
0
  1
牧山
  0
TEXT
  8
_0-0_
 62
    7
 10
246.19267515923568
 20
108.77388535031847
 40
4
 41
1
 50
0
  1
軸部
  0
TEXT
  8
_0-0_
 62
    7
 10
297.3946390658175
 20
98.059978768577537
 40
4
 41
1
 50
0
  1
05
  0
TEXT
  8
_0-0_
 62
    7
 10
229.16719745222929
 20
134.31210191082803
 40
3
 41
1
 50
0
  1
5
  0
CIRCLE
  8
_0-0_
  6
CONTINUOUS
 62
    7
 10
180.59100877192975
 20
188.40090968161144
 40
10
  0
TEXT
  8
_0-0_
 62
    7
 10
290.77716292310794
 20
112.7831272636443
 40
4
 41
1
 50
0
  1
1:4
  0
POINT
  8
_0-0_
 62
    4
 10
180.59100877192975
 20
178.40090968161144
  0
POINT
  8
_0-0_
 62
    4
 10
180.59100877192975
 20
198.40090968161144
  0
LINE
  8
_0-0_
  6
CONTINUOUS
 62
    4
 10
186.59100877192975
 20
188.40090968161144
 11
174.59100877192975
 21
188.40090968161144
  0
LINE
  8
_0-0_
  6
CONTINUOUS
 62
    4
 10
174.59100877192975
 20
188.40090968161144
 11
171.46600877192975
 21
188.40090968161144
  0
POINT
  8
_0-0_
 62
    4
 10
186.59100877192975
 20
188.40090968161144
  0
POINT
  8
_0-0_
 62
    4
 10
174.59100877192975
 20
188.40090968161144
  0
TEXT
  8
_0-0_
 62
    4
 10
171.46600877192975
 20
188.65090968161144
 40
1.25
 41
1
 50
0
  1
φ3
  0
TEXT
  8
_0-0_
 62
    4
 10
179.91959064327477
 20
194.63062459389212
 40
1.25
 41
1
 50
90
  1
φ4.5
  0
ENDSEC
  0
EOF
