  0
SECTION
  2
HEADER
  9
$ACADVER
  1
AC1009
  9
$INSBASE
 10
0
 20
0
 30
0
  9
$EXTMIN
 10
0
 20
0
  9
$EXTMAX
 10
420
 20
297
  9
$LIMMIN
 10
0
 20
0
  9
$LIMMAX
 10
420
 20
297
  9
$LTSCALE
 40
1
  0
ENDSEC
  0
SECTION
  2
TABLES
  0
TABLE
  2
LTYPE
 70
     9
  0
LTYPE
  2
CONTINUOUS
 70
    64
  3
実線
 72
    65
 73
     0
 40
0.0
  0
LTYPE
  2
DASHED1
 70
    64
  3
--  --  --  --  --  --  --  --  
 72
    65
 73
     2
 40
2.5
 49
1.25
 49
-1.25
  0
LTYPE
  2
DASHED2
 70
    64
  3
----    ----    ----    ----    
 72
    65
 73
     2
 40
5.0
 49
2.5
 49
-2.5
  0
LTYPE
  2
DASHED3
 70
    64
  3
------  ------  ------  ------  
 72
    65
 73
     2
 40
5.0
 49
3.75
 49
-1.25
  0
LTYPE
  2
CENTER1
 70
    64
  3
----- - ----- - ----- - ----- - 
 72
    65
 73
     4
 40
10.0
 49
6.25
 49
-1.25
 49
1.25
 49
-1.25
  0
LTYPE
  2
CENTER2
 70
    64
  3
----------  --  ----------  --  
 72
    65
 73
     4
 40
20.0
 49
12.5
 49
-2.5
 49
2.5
 49
-2.5
  0
LTYPE
  2
PHANTOM1
 70
    64
  3
--- - - --- - - --- - - --- - - 
 72
    65
 73
     6
 40
10.0
 49
3.25
 49
-1.25
 49
1.25
 49
-1.25
 49
1.25
 49
-1.25
  0
LTYPE
  2
PHANTOM2
 70
    64
  3
--------  -  -  --------  -  -  
 72
    65
 73
     6
 40
20.0
 49
10.0
 49
-2.5
 49
1.25
 49
-2.5
 49
1.25
 49
-2.5
  0
LTYPE
  2
DOT
 70
    64
  3
-   -   -   -   -   -   -   -   
 72
    65
 73
     2
 40
2.5
 49
0.625
 49
-1.875
  0
LTYPE
  2
DUMMY
 70
    64
  3
ダミー
 72
    65
 73
     0
 40
0.0
  0
LTYPE
  2
RAND1
 70
    64
  3
ランダム線1
 72
    65
 73
     4
 40
10.0
 49
1.0
 49
-2.0
 49
3.0
 49
-4.0
  0
LTYPE
  2
RAND2
 70
    64
  3
ランダム線2
 72
    65
 73
     4
 40
14.0
 49
2.0
 49
-3.0
 49
4.0
 49
-5.0
  0
LTYPE
  2
RAND3
 70
    64
  3
ランダム線3
 72
    65
 73
     4
 40
18.0
 49
3.0
 49
-4.0
 49
5.0
 49
-6.0
  0
LTYPE
  2
RAND4
 70
    64
  3
ランダム線4
 72
    65
 73
     4
 40
22.0
 49
4.0
 49
-5.0
 49
6.0
 49
-7.0
  0
LTYPE
  2
RAND5
 70
    64
  3
ランダム線5
 72
    65
 73
     4
 40
26.0
 49
5.0
 49
-6.0
 49
7.0
 49
-8.0
  0
LTYPE
  2
LONG1
 70
    64
  3
----------  --  ----------  --  
 72
    65
 73
     4
 40
40.0
 49
32.5
 49
-2.5
 49
2.5
 49
-2.5
  0
LTYPE
  2
LONG2
 70
    64
  3
--------  -  -  --------  -  -  
 72
    65
 73
     6
 40
40.0
 49
30.0
 49
-2.5
 49
1.25
 49
-2.5
 49
1.25
 49
-2.5
  0
LTYPE
  2
LONG3
 70
    64
  3
+++++++++++++++..+++++++++++++++
 72
    65
 73
     2
 40
40.0
 49
37.5
 49
-2.5
  0
LTYPE
  2
LONG4
 70
    64
  3
+++++++++++++++..+++++++++++++++
 72
    65
 73
     2
 40
80.0
 49
75.0
 49
-5.0
  0
LTYPE
  2
LONG5
 70
    64
  3
----------  --  ----------  --  
 72
    65
 73
     4
 40
60.0
 49
37.5
 49
-7.5
 49
7.5
 49
-7.5
  0
LTYPE
  2
dashed
 70
   64
  3
-------   -------------   ------
 72
   65
 73
    2
 40
7.5
 49
6
 49
-1.5
  0
LTYPE
  2
dashed_spaced
 70
   64
  3
----        --------        ----
 72
   65
 73
    2
 40
12
 49
6
 49
-6
  0
LTYPE
  2
long_dashed_dotted
 70
   64
  3
------------- --- --------------
 72
   65
 73
    4
 40
15.25
 49
12
 49
-1.5
 49
0.25
 49
-1.5
  0
LTYPE
  2
long_dashed_double-dotted
 70
   64
  3
----------- --- --- ------------
 72
   65
 73
    6
 40
17
 49
12
 49
-1.5
 49
0.25
 49
-1.5
 49
0.25
 49
-1.5
  0
LTYPE
  2
long_dashed_triplicate-dotted
 70
   64
  3
--------- --- --- --- ----------
 72
   65
 73
    8
 40
18.75
 49
12
 49
-1.5
 49
0.25
 49
-1.5
 49
0.25
 49
-1.5
 49
0.25
 49
-1.5
  0
LTYPE
  2
dotted
 70
   64
  3
   -       -       -       -    
 72
   65
 73
    2
 40
1.75
 49
0.25
 49
-1.5
  0
LTYPE
  2
chain
 70
   64
  3
-------------- -- --------------
 72
   65
 73
    4
 40
18.5
 49
12
 49
-1.5
 49
3.5
 49
-1.5
  0
LTYPE
  2
chain_double_dash
 70
   64
  3
------------ -- -- -------------
 72
   65
 73
    6
 40
23.5
 49
12
 49
-1.5
 49
3.5
 49
-1.5
 49
3.5
 49
-1.5
  0
LTYPE
  2
dashed_dotted
 70
   64
  3
-----------     -     ----------
 72
   65
 73
    4
 40
9.25
 49
6
 49
-1.5
 49
0.25
 49
-1.5
  0
LTYPE
  2
double-dashed_dotted
 70
   64
  3
------   -----------   -   -----
 72
   65
 73
    6
 40
16.75
 49
6
 49
-1.5
 49
6
 49
-1.5
 49
0.25
 49
-1.5
  0
LTYPE
  2
dashed_double-dotted
 70
   64
  3
---------    -    -    ---------
 72
   65
 73
    6
 40
11
 49
6
 49
-1.5
 49
0.25
 49
-1.5
 49
0.25
 49
-1.5
  0
LTYPE
  2
double-dashed_double-dotted
 70
   64
  3
-----   ---------   -   -   ----
 72
   65
 73
    8
 40
18.5
 49
6
 49
-1.5
 49
6
 49
-1.5
 49
0.25
 49
-1.5
 49
0.25
 49
-1.5
  0
LTYPE
  2
dashed_triplicate-dotted
 70
   64
  3
-------    -    -    -    ------
 72
   65
 73
    8
 40
12.75
 49
6
 49
-1.5
 49
0.25
 49
-1.5
 49
0.25
 49
-1.5
 49
0.25
 49
-1.5
  0
LTYPE
  2
double-dashed_triplicate-dotted
 70
   64
  3
-----  ---------  -  -  -  -----
 72
   65
 73
   10
 40
20.25
 49
6
 49
-1.5
 49
6
 49
-1.5
 49
0.25
 49
-1.5
 49
0.25
 49
-1.5
 49
0.25
 49
-1.5
  0
LTYPE
  2
undefined
 70
   64
  3
--------------------------------
 72
   65
 73
    0
 40
0
  0
LTYPE
  2
_
 70
   64
  3
                                
 72
   65
 73
    0
 40
0
  0
LTYPE
  2
__18
 70
   64
  3
                                
 72
   65
 73
    0
 40
0
  0
LTYPE
  2
__19
 70
   64
  3
                                
 72
   65
 73
    0
 40
0
  0
LTYPE
  2
__20
 70
   64
  3
                                
 72
   65
 73
    0
 40
0
  0
LTYPE
  2
__21
 70
   64
  3
                                
 72
   65
 73
    0
 40
0
  0
LTYPE
  2
__22
 70
   64
  3
                                
 72
   65
 73
    0
 40
0
  0
LTYPE
  2
__23
 70
   64
  3
                                
 72
   65
 73
    0
 40
0
  0
LTYPE
  2
__24
 70
   64
  3
                                
 72
   65
 73
    0
 40
0
  0
LTYPE
  2
__25
 70
   64
  3
                                
 72
   65
 73
    0
 40
0
  0
LTYPE
  2
__26
 70
   64
  3
                                
 72
   65
 73
    0
 40
0
  0
LTYPE
  2
__27
 70
   64
  3
                                
 72
   65
 73
    0
 40
0
  0
LTYPE
  2
__28
 70
   64
  3
                                
 72
   65
 73
    0
 40
0
  0
LTYPE
  2
__29
 70
   64
  3
                                
 72
   65
 73
    0
 40
0
  0
LTYPE
  2
__30
 70
   64
  3
                                
 72
   65
 73
    0
 40
0
  0
LTYPE
  2
__31
 70
   64
  3
                                
 72
   65
 73
    0
 40
0
  0
LTYPE
  2
__32
 70
   64
  3
                                
 72
   65
 73
    0
 40
0
  0
ENDTAB
  0
TABLE
  2
STYLE
  5
3
100
AcDbSymbolTable
 70
     1
  0
STYLE
  5
10
100
AcDbSymbolTableRecord
100
AcDbTextStyleTableRecord
  2
STANDARD
 70
     0
 40
0.0
 41
1.0
 50
0.0
 71
     0
 42
0.2
  3
txt
  4
bigfont.shx
  0
STYLE
  5
26
100
AcDbSymbolTableRecord
100
AcDbTextStyleTableRecord
  2
TATEGAKI
 70
    68
 40
0.0
 41
1.0
 50
0.0
 71
     0
 42
1.0
  3
txt
  4
bigfont.shx
  0
ENDTAB
  0
TABLE
  2
LAYER
 70
    2
  0
LAYER
  2
_0-0_
 70
   64
 62
    7
  6
CONTINUOUS
  0
LAYER
  2
ADD_LINE
 70
   64
 62
    7
  6
CONTINUOUS
  0
ENDTAB
  0
ENDSEC
  0
SECTION
  2
BLOCKS
  0
ENDSEC
  0
SECTION
  2
ENTITIES
  0
CIRCLE
  8
_0-0_
  6
CONTINUOUS
 62
    7
 10
315.66810314767054
 20
228.77415888915681
 40
1.7000000000000002
  0
CIRCLE
  8
_0-0_
  6
CONTINUOUS
 62
    7
 10
254.21525998074011
 20
228.7787276243462
 40
1.7000000000000002
  0
LINE
  8
_0-0_
  6
CONTINUOUS
 62
    7
 10
246.62560348750449
 20
301.71421826940684
 11
220.62560348750449
 21
301.71421826940684
  0
LINE
  8
_0-0_
  6
CONTINUOUS
 62
    7
 10
395.6255952395104
 20
161.71421826940681
 11
480.62559523951046
 21
161.71421826940681
  0
LINE
  8
_0-0_
  6
CONTINUOUS
 62
    7
 10
480.62559523951046
 20
129.71421826940681
 11
480.62559523951046
 21
309.71421826940684
  0
LINE
  8
_0-0_
  6
CONTINUOUS
 62
    7
 10
220.62560348750449
 20
309.71421826940684
 11
220.62560348750449
 21
129.71421826940681
  0
LINE
  8
_0-0_
  6
CONTINUOUS
 62
    7
 10
220.62560348750449
 20
129.71421826940681
 11
480.62559523951046
 21
129.71421826940681
  0
LINE
  8
_0-0_
  6
CONTINUOUS
 62
    7
 10
480.62559523951046
 20
309.71421826940684
 11
220.62560348750449
 21
309.71421826940684
  0
LINE
  8
_0-0_
  6
CONTINUOUS
 62
    7
 10
454.62559523951046
 20
129.71421826940681
 11
454.62559523951046
 21
137.71421826940681
  0
LINE
  8
_0-0_
  6
CONTINUOUS
 62
    7
 10
450.62559523951046
 20
142.71421826940681
 11
480.62559523951046
 21
142.71421826940681
  0
LINE
  8
_0-0_
  6
CONTINUOUS
 62
    7
 10
450.62559523951046
 20
145.71421826940681
 11
480.62559523951046
 21
145.71421826940681
  0
LINE
  8
_0-0_
  6
CONTINUOUS
 62
    7
 10
450.62559523951046
 20
153.71421826940681
 11
480.62559523951046
 21
153.71421826940681
  0
LINE
  8
_0-0_
  6
CONTINUOUS
 62
    7
 10
450.62559523951046
 20
150.71421826940681
 11
480.62559523951046
 21
150.71421826940681
  0
LINE
  8
_0-0_
  6
CONTINUOUS
 62
    7
 10
450.62559523951046
 20
158.71421826940681
 11
480.62559523951046
 21
158.71421826940681
  0
LINE
  8
_0-0_
  6
CONTINUOUS
 62
    7
 10
460.62559523951046
 20
137.71421826940681
 11
460.62559523951046
 21
145.71421826940681
  0
LINE
  8
_0-0_
  6
CONTINUOUS
 62
    7
 10
470.62559523951046
 20
137.71421826940681
 11
470.62559523951046
 21
145.71421826940681
  0
LINE
  8
_0-0_
  6
CONTINUOUS
 62
    7
 10
395.6255952395104
 20
137.71421826940681
 11
480.62559523951046
 21
137.71421826940681
  0
LINE
  8
_0-0_
  6
CONTINUOUS
 62
    7
 10
400.6255952395104
 20
137.71421826940681
 11
400.6255952395104
 21
161.71421826940681
  0
LINE
  8
_0-0_
  6
CONTINUOUS
 62
    7
 10
246.62560348750449
 20
309.71421826940684
 11
246.62560348750449
 21
301.71421826940684
  0
LINE
  8
_0-0_
  6
CONTINUOUS
 62
    7
 10
395.6255952395104
 20
149.71421826940681
 11
450.62559523951046
 21
149.71421826940681
  0
LINE
  8
_0-0_
  6
CONTINUOUS
 62
    7
 10
395.6255952395104
 20
166.71421826940681
 11
480.62559523951046
 21
166.71421826940681
  0
LINE
  8
_0-0_
  6
CONTINUOUS
 62
    7
 10
470.62559523951046
 20
161.71421826940681
 11
470.62559523951046
 21
171.71421826940681
  0
LINE
  8
_0-0_
  6
CONTINUOUS
 62
    7
 10
450.62559523951046
 20
129.71421826940681
 11
450.62559523951046
 21
171.71421826940681
  0
LINE
  8
_0-0_
  6
CONTINUOUS
 62
    7
 10
405.6255952395104
 20
161.71421826940681
 11
405.6255952395104
 21
171.71421826940681
  0
LINE
  8
_0-0_
  6
CONTINUOUS
 62
    7
 10
395.6255952395104
 20
171.71421826940681
 11
480.62559523951046
 21
171.71421826940681
  0
LINE
  8
_0-0_
  6
CONTINUOUS
 62
    7
 10
395.6255952395104
 20
129.71421826940681
 11
395.6255952395104
 21
171.71421826940681
  0
TEXT
  8
_0-0_
 62
    7
 10
398.1255952395104
 20
146.96421826940681
 40
3
 41
1
 50
0
  1
品名
  7
TATEGAKI
  0
TEXT
  8
_0-0_
 62
    7
 10
398.1255952395104
 20
160.71421826940681
 40
3
 41
1
 50
0
  1
機械名
  7
TATEGAKI
  0
TEXT
  8
_0-0_
 62
    7
 10
452.62559523951046
 20
136.21421826940681
 40
2.5
 41
1
 50
0
  1
図番
  7
TATEGAKI
  0
TEXT
  8
_0-0_
 62
    7
 10
453.12559523951046
 20
142.96421826940681
 40
2.5
 41
1
 50
0
  1
設計
  0
TEXT
  8
_0-0_
 62
    7
 10
463.12559523951046
 20
142.96421826940681
 40
2.5
 41
1
 50
0
  1
製図
  0
TEXT
  8
_0-0_
 62
    7
 10
473.12559523951046
 20
142.96421826940681
 40
2.5
 41
1
 50
0
  1
検図
  0
TEXT
  8
_0-0_
 62
    7
 10
459.37559523951046
 20
158.96421826940681
 40
2.5
 41
1
 50
0
  1
図面作成日
  0
TEXT
  8
_0-0_
 62
    7
 10
472.37559523951046
 20
162.71421826940681
 40
3
 41
1
 50
0
  1
個数
  0
TEXT
  8
_0-0_
 62
    7
 10
455.62559523951046
 20
162.71421826940681
 40
3
 41
1
 50
0
  1
材　料
  0
TEXT
  8
_0-0_
 62
    7
 10
410.8755952395104
 20
162.71421826940681
 40
3
 41
1
 50
0
  1
名　　　　　　　　称
  0
TEXT
  8
_0-0_
 62
    7
 10
397.3755952395104
 20
162.71421826940681
 40
3
 41
1
 50
0
  1
番号
  0
TEXT
  8
_0-0_
 62
    7
 10
414.77438773041524
 20
131.80051775735487
 40
4
 41
1
 50
0
  1
科研費研究
  0
TEXT
  8
_0-0_
 62
    7
 10
462.49944080897154
 20
138.78353261935064
 40
3
 41
1
 50
0
  1
牧山
  0
TEXT
  8
_0-0_
 62
    7
 10
452.50368709347259
 20
138.87695087837398
 40
3
 41
1
 50
0
  1
牧山
  0
TEXT
  8
_0-0_
 62
    7
 10
474.30214968152853
 20
167.53871417197453
 40
3
 41
1
 50
0
  1
1
  0
TEXT
  8
_0-0_
 62
    7
 10
464.21297770700625
 20
131.80623009554139
 40
4
 41
1
 50
0
  1
03
  0
TEXT
  8
_0-0_
 62
    7
 10
421.87261146496809
 20
142.83797770700636
 40
4
 41
1
 50
0
  1
軸部
  0
TEXT
  8
_0-0_
 62
    7
 10
458.0254777070063
 20
167.22014331210192
 40
3
 41
1
 50
0
  1
MDF
  0
TEXT
  8
_0-0_
 62
    7
 10
474.21019108280251
 20
138.84434713375796
 40
3
 41
1
 50
0
  1
森
  0
LINE
  8
_0-0_
  6
DASHED3
 62
    7
 10
438.06810314767046
 20
228.77415888915681
 11
444.0045031476705
 21
232.20154102717407
  0
ARC
  8
_0-0_
  6
CONTINUOUS
 62
    7
 10
254.46810314767055
 20
228.77415888915681
 40
7.6500000000000004
 50
53.13010235415593
 51
306.86989764584399
  0
LINE
  8
_0-0_
  6
CONTINUOUS
 62
    7
 10
259.05810314767052
 20
222.6541588891568
 11
311.07810314767056
 21
222.6541588891568
  0
ARC
  8
_0-0_
  6
CONTINUOUS
 62
    7
 10
315.66810314767054
 20
228.77415888915681
 40
7.6500000000000004
 50
233.13010235415598
 51
306.86989764584399
  0
ARC
  8
_0-0_
  6
CONTINUOUS
 62
    7
 10
315.66810314767054
 20
228.77415888915681
 40
7.6500000000000004
 50
53.13010235415593
 51
126.86989764584396
  0
LINE
  8
_0-0_
  6
CONTINUOUS
 62
    7
 10
259.05810314767052
 20
234.89415888915676
 11
311.07810314767056
 21
234.89415888915676
  0
ARC
  8
_0-0_
  6
CONTINUOUS
 62
    7
 10
438.06810314767057
 20
228.77415888915681
 40
11.900000000000002
 50
210.94972307885928
 51
149.05027692114083
  0
LINE
  8
_0-0_
  6
CONTINUOUS
 62
    7
 10
320.25810314767051
 20
222.6541588891568
 11
427.86243805420406
 21
222.6541588891568
  0
LINE
  8
_0-0_
  6
CONTINUOUS
 62
    7
 10
320.25810314767051
 20
234.89415888915676
 11
427.86243805420406
 21
234.89415888915676
  0
LINE
  8
_0-0_
  6
CONTINUOUS
 62
    7
 10
444.0045031476705
 20
225.34677675113949
 11
444.0045031476705
 21
232.20154102717407
  0
LINE
  8
_0-0_
  6
CONTINUOUS
 62
    7
 10
444.0045031476705
 20
232.20154102717407
 11
438.06810314767046
 21
235.6289231651914
  0
LINE
  8
_0-0_
  6
CONTINUOUS
 62
    7
 10
432.13170314767052
 20
232.20154102717407
 11
432.13170314767052
 21
225.34677675113957
  0
LINE
  8
_0-0_
  6
CONTINUOUS
 62
    7
 10
432.13170314767052
 20
225.34677675113957
 11
438.06810314767046
 21
221.91939461312217
  0
LINE
  8
_0-0_
  6
CONTINUOUS
 62
    7
 10
438.06810314767046
 20
221.91939461312217
 11
444.0045031476705
 21
225.34677675113949
  0
LINE
  8
_0-0_
  6
DASHED3
 62
    7
 10
438.06810314767046
 20
228.77415888915681
 11
438.06810314767046
 21
235.6289231651914
  0
LINE
  8
_0-0_
  6
CONTINUOUS
 62
    4
 10
439.89064451292359
 20
229.82640363699494
 11
439.89334001734983
 21
229.82795988720102
  0
LINE
  8
_0-0_
  6
CONTINUOUS
 62
    4
 10
438.06810314767046
 20
230.87864838483299
 11
438.06810314767046
 21
230.88176088524534
  0
LINE
  8
_0-0_
  6
CONTINUOUS
 62
    4
 10
432.13170262458391
 20
232.20154072516982
 11
438.06810314767046
 21
235.62892316519134
  0
TEXT
  8
_0-0_
 62
    7
 10
459.02388535031844
 20
146.1484872611465
 40
4
 41
1
 50
0
  1
1：1.7
  0
TEXT
  8
_0-0_
 62
    7
 10
231.70222929936304
 20
288.72372611464971
 40
4
 41
1
 50
0
  1
t=3
  0
LINE
  8
_0-0_
  6
CONTINUOUS
 62
    7
 10
432.13170262458391
 20
232.20154072516982
 11
438.06810314767046
 21
235.62892316519134
  0
LINE
  8
_0-0_
  6
DASHED3
 62
    7
 10
444.0045031476705
 20
232.20154102717407
 11
466.77421803363097
 21
245.34764204595439
  0
LINE
  8
_0-0_
  6
DASHED3
 62
    7
 10
438.06810314767046
 20
235.62892316519134
 11
438.06810314767046
 21
259.14079087048833
  0
ARC
  8
_0-0_
  6
CONTINUOUS
 62
    4
 10
438.06810314767046
 20
228.77415888915681
 40
18.866426595254389
 50
29.999999999999858
 51
90
  0
TEXT
  8
_0-0_
 62
    7
 10
445.86456121726826
 20
247.41047416843597
 40
4
 41
1
 50
0
  1
60°
  0
LINE
  8
_0-0_
  6
DASHED3
 62
    7
 10
432.13170314767052
 20
225.34677675113957
 11
443.82518181099363
 21
205.09307758904143
  0
LINE
  8
_0-0_
  6
DASHED3
 62
    7
 10
444.0045031476705
 20
232.20154102717407
 11
456.30971741960849
 21
210.88828471015586
  0
LINE
  8
_0-0_
  6
CONTINUOUS
 62
    4
 10
442.02346589347349
 20
208.21374109899193
 11
437.69333887455127
 21
205.71374109899193
  0
LINE
  8
_0-0_
  6
CONTINUOUS
 62
    4
 10
453.89626589347336
 20
215.06850537502646
 11
458.22639291239557
 21
217.56850537502646
  0
LINE
  8
_0-0_
  6
CONTINUOUS
 62
    4
 10
442.02346589347349
 20
208.21374109899193
 11
439.90214554991383
 21
206.09242075543227
  0
LINE
  8
_0-0_
  6
CONTINUOUS
 62
    4
 10
442.02346589347349
 20
208.21374109899193
 11
439.12568841460626
 21
207.43728396368437
  0
LINE
  8
_0-0_
  6
CONTINUOUS
 62
    4
 10
453.89626589347336
 20
215.06850537502646
 11
456.01758623703302
 21
217.18982571858612
  0
LINE
  8
_0-0_
  6
CONTINUOUS
 62
    4
 10
453.89626589347336
 20
215.06850537502646
 11
456.79404337234058
 21
215.84496251033403
  0
LINE
  8
_0-0_
  6
CONTINUOUS
 62
    4
 10
442.02346589347349
 20
208.21374109899193
 11
453.89626589347336
 21
215.06850537502646
  0
LINE
  8
_0-0_
  6
DASHED3
 62
    7
 10
259.05810314767052
 20
234.89415888915676
 11
259.05810314767052
 21
234.88803888915675
  0
LINE
  8
_0-0_
  6
DASHED3
 62
    7
 10
254.21526111996923
 20
228.77415888915681
 11
254.21526111996923
 21
199.10423301486207
  0
LINE
  8
_0-0_
  6
DASHED3
 62
    7
 10
315.66810314767054
 20
228.77415888915681
 11
315.66810314767054
 21
200.78576167728244
  0
LINE
  8
_0-0_
  6
DASHED3
 62
    7
 10
438.06810314767046
 20
228.77415888915681
 11
438.06810314767046
 21
196.81840498938431
  0
LINE
  8
_0-0_
  6
DASHED3
 62
    7
 10
315.66810314767054
 20
200.78576167728244
 11
315.66810314767054
 21
195.27700371549895
  0
LINE
  8
_0-0_
  6
DASHED3
 62
    7
 10
254.21526111996923
 20
199.10423301486207
 11
254.21526111996923
 21
192.84666932059457
  0
LINE
  8
_0-0_
  6
CONTINUOUS
 62
    4
 10
254.21526111996923
 20
199.10423301486207
 11
249.21526111996923
 21
199.10423301486207
  0
LINE
  8
_0-0_
  6
CONTINUOUS
 62
    4
 10
315.66810314767054
 20
199.10423301486207
 11
320.66810314767054
 21
199.10423301486207
  0
LINE
  8
_0-0_
  6
CONTINUOUS
 62
    4
 10
254.21526111996923
 20
199.10423301486207
 11
251.31748364110203
 21
198.32777587955451
  0
LINE
  8
_0-0_
  6
CONTINUOUS
 62
    4
 10
254.21526111996923
 20
199.10423301486207
 11
251.31748364110203
 21
199.88069015016961
  0
LINE
  8
_0-0_
  6
CONTINUOUS
 62
    4
 10
315.66810314767054
 20
199.10423301486207
 11
318.56588062653771
 21
199.88069015016961
  0
LINE
  8
_0-0_
  6
CONTINUOUS
 62
    4
 10
315.66810314767054
 20
199.10423301486207
 11
318.56588062653771
 21
198.32777587955451
  0
LINE
  8
_0-0_
  6
CONTINUOUS
 62
    4
 10
254.21526111996923
 20
199.10423301486207
 11
315.66810314767054
 21
199.10423301486207
  0
LINE
  8
_0-0_
  6
DASHED3
 62
    7
 10
438.06810314767046
 20
196.81840498938431
 11
438.06810314767046
 21
189.31721072186849
  0
LINE
  8
_0-0_
  6
DASHED3
 62
    7
 10
315.66810314767054
 20
195.27700371549895
 11
315.66810314767054
 21
188.47644639065831
  0
LINE
  8
_0-0_
  6
CONTINUOUS
 62
    4
 10
315.66810314767054
 20
192.68026804670927
 11
310.66810314767054
 21
192.68026804670927
  0
LINE
  8
_0-0_
  6
CONTINUOUS
 62
    4
 10
438.06810314767046
 20
192.68026804670927
 11
443.06810314767046
 21
192.68026804670927
  0
LINE
  8
_0-0_
  6
CONTINUOUS
 62
    4
 10
315.66810314767054
 20
192.68026804670927
 11
312.77032566880337
 21
191.90381091140171
  0
LINE
  8
_0-0_
  6
CONTINUOUS
 62
    4
 10
315.66810314767054
 20
192.68026804670927
 11
312.77032566880337
 21
193.45672518201681
  0
LINE
  8
_0-0_
  6
CONTINUOUS
 62
    4
 10
438.06810314767046
 20
192.68026804670927
 11
440.96588062653768
 21
193.45672518201681
  0
LINE
  8
_0-0_
  6
CONTINUOUS
 62
    4
 10
438.06810314767046
 20
192.68026804670927
 11
440.96588062653768
 21
191.90381091140171
  0
LINE
  8
_0-0_
  6
CONTINUOUS
 62
    4
 10
315.66810314767054
 20
192.68026804670927
 11
438.06810314767046
 21
192.68026804670927
  0
TEXT
  8
_0-0_
 62
    7
 10
233.7844347133757
 20
307.52269108280257
 40
4
 41
1
 50
180
  1
02
  0
TEXT
  8
_0-0_
 62
    7
 10
399.62519904458588
 20
167.85071656050957
 40
3
 41
1
 50
0
  1
2
  0
TEXT
  8
_0-0_
 62
    7
 10
424.18471337579621
 20
167.62738853503186
 40
3
 41
1
 50
0
  1
軸
  0
TEXT
  8
_0-0_
 62
    7
 10
248.497242863883
 20
258.29240386883697
 40
4
 41
1
 50
0
  1
2-Φ2貫通
  0
LINE
  8
_0-0_
  6
CONTINUOUS
 62
    7
 10
254.47601144137769
 20
257.91873083274356
 11
254.47601144137769
 21
231.38794527011083
  0
LINE
  8
_0-0_
  6
CONTINUOUS
 62
    7
 10
254.47601144137769
 20
231.38794527011083
 11
253.69955430607013
 21
234.28572274897806
  0
LINE
  8
_0-0_
  6
CONTINUOUS
 62
    7
 10
254.47601144137769
 20
231.38794527011083
 11
255.25246857668526
 21
234.28572274897806
  0
LINE
  8
_0-0_
  6
CONTINUOUS
 62
    7
 10
254.47601144137769
 20
257.91873083274356
 11
312.76900507195091
 21
231.2945270110875
  0
LINE
  8
_0-0_
  6
CONTINUOUS
 62
    7
 10
312.76900507195091
 20
231.2945270110875
 11
309.81056097734069
 21
231.7921298035493
  0
LINE
  8
_0-0_
  6
CONTINUOUS
 62
    7
 10
312.76900507195091
 20
231.2945270110875
 11
310.45571872657331
 21
233.20468571765861
  0
TEXT
  8
_0-0_
 62
    7
 10
280.28280549657939
 20
200.10969568294408
 40
4
 41
1
 50
0
  1
36
  0
TEXT
  8
_0-0_
 62
    7
 10
379.14851674923329
 20
193.36314578910117
 40
4
 41
1
 50
0
  1
72
  0
TEXT
  8
_0-0_
 62
    7
 10
448.11454647322478
 20
206.90879334748757
 40
4
 41
1
 50
0
  1
8
  0
LINE
  8
_0-0_
  6
CONTINUOUS
 62
    4
 10
315.66810314767054
 20
236.42415888915681
 11
315.66810314767054
 21
241.42415888915681
  0
LINE
  8
_0-0_
  6
CONTINUOUS
 62
    4
 10
315.66810314767054
 20
216.1241588891568
 11
315.66810314767054
 21
221.1241588891568
  0
LINE
  8
_0-0_
  6
CONTINUOUS
 62
    4
 10
315.66810314767054
 20
221.1241588891568
 11
316.4445602829781
 21
218.2263814102896
  0
LINE
  8
_0-0_
  6
CONTINUOUS
 62
    4
 10
315.66810314767054
 20
221.1241588891568
 11
314.89164601236297
 21
218.2263814102896
  0
LINE
  8
_0-0_
  6
CONTINUOUS
 62
    4
 10
315.66810314767054
 20
236.42415888915681
 11
314.89164601236297
 21
239.32193636802401
  0
LINE
  8
_0-0_
  6
CONTINUOUS
 62
    4
 10
315.66810314767054
 20
236.42415888915681
 11
316.4445602829781
 21
239.32193636802401
  0
TEXT
  8
_0-0_
 62
    7
 10
317.82218683651814
 20
236.62780136824725
 40
4
 41
1
 50
0
  1
Φ9
  0
LINE
  8
_0-0_
  6
CONTINUOUS
 62
    4
 10
259.21810462971365
 20
234.77082345544602
 11
262.32268076176797
 21
238.69021206086379
  0
LINE
  8
_0-0_
  6
CONTINUOUS
 62
    4
 10
246.61352553357312
 20
218.85810571744983
 11
249.71810166562744
 21
222.7774943228676
  0
LINE
  8
_0-0_
  6
CONTINUOUS
 62
    4
 10
249.71810166562744
 20
222.7774943228676
 11
248.52747495599229
 21
220.02387705855813
  0
LINE
  8
_0-0_
  6
CONTINUOUS
 62
    4
 10
249.71810166562744
 20
222.7774943228676
 11
247.31018005650435
 21
220.98810517449377
  0
LINE
  8
_0-0_
  6
CONTINUOUS
 62
    4
 10
259.21810462971365
 20
234.77082345544602
 11
260.40873133934883
 21
237.52444071975549
  0
LINE
  8
_0-0_
  6
CONTINUOUS
 62
    4
 10
259.21810462971365
 20
234.77082345544602
 11
261.62602623883674
 21
236.56021260381985
  0
TEXT
  8
_0-0_
 62
    7
 10
260.77282377919323
 20
239.68141071007315
 40
4
 41
1
 50
0
  1
Φ9
  0
LINE
  8
_0-0_
  6
CONTINUOUS
 62
    4
 10
427.86246763341961
 20
234.89420821495963
 11
417.78547458363403
 21
240.93711406186577
  0
LINE
  8
_0-0_
  6
CONTINUOUS
 62
    4
 10
452.56182081076645
 20
220.08266026679817
 11
448.27373866192153
 21
222.65410956335398
  0
LINE
  8
_0-0_
  6
CONTINUOUS
 62
    4
 10
448.27373866192153
 20
222.65410956335398
 11
451.1582442684911
 21
221.82971438768345
  0
LINE
  8
_0-0_
  6
CONTINUOUS
 62
    4
 10
448.27373866192153
 20
222.65410956335398
 11
450.35959620673412
 21
220.49790959518117
  0
LINE
  8
_0-0_
  6
CONTINUOUS
 62
    4
 10
427.86246763341961
 20
234.89420821495963
 11
424.97796202685004
 21
235.71860339063016
  0
LINE
  8
_0-0_
  6
CONTINUOUS
 62
    4
 10
427.86246763341961
 20
234.89420821495963
 11
425.77661008860701
 21
237.05040818313245
  0
TEXT
  8
_0-0_
 62
    7
 10
411.96249115357398
 20
241.64708657702289
 40
4
 41
1
 50
0
  1
Φ14
  0
TEXT
  8
_0-0_
 62
    7
 10
463.5060155697098
 20
150.92238735550842
 40
2.5
 41
1
 50
0
  1
尺度
  0
TEXT
  8
_0-0_
 62
    7
 10
455.65888181174807
 20
154.2854446803492
 40
4
 41
1
 50
0
  1
2019/10/24
  0
TEXT
  8
_0-0_
 62
    7
 10
414.82537154989387
 20
154.25252123142249
 40
4
 41
1
 50
0
  1
楕円コンパス
  0
ENDSEC
  0
EOF
